<svg width="360" height="213" viewBox="0 0 360 213" fill="none" xmlns="http://www.w3.org/2000/svg">
<path d="M202.93 71.0301L210.35 70.9901C212.52 71.0301 212.37 36.0001 213.51 36.0001C215.31 36.0001 217.54 106.13 219.84 106.06C222.14 105.99 223.87 36.0001 226.17 36.0001C227.32 36.0001 228.33 53.4901 229.33 70.9901V71.0701C230.33 88.5601 231.35 106.06 232.49 106.06C234.79 106.06 236.52 36.0801 238.82 36.0001C241.12 35.9201 242.85 106.06 245.15 106.06C246.3 106.06 247.3 88.5701 248.31 71.0701V70.9901C249.32 53.5001 250.33 36.0001 251.47 36.0001C253.77 36.0001 255.5 106.13 257.8 106.06C260.1 105.98 261.83 36.0001 264.13 36.0001C265.28 36.0001 266.29 53.4901 267.29 70.9901V71.0701C268.29 88.5601 269.31 106.06 270.45 106.06C272.75 106.06 274.48 36.0801 276.78 36.0001C279.08 35.9201 280.81 106.06 283.11 106.06C284.26 106.06 285.26 88.5701 286.27 71.0701V70.9901C287.28 53.5001 288.29 36.0001 289.43 36.0001C291.73 36.0001 293.46 106.13 295.76 106.06C298.06 105.99 299.8 36.0001 302.1 36.0001C303.25 36.0001 304.26 53.4901 305.26 70.9901V71.0701C306.26 88.5601 307.28 106.06 308.42 106.06C310.72 106.06 312.45 36.0801 314.75 36.0001C317.05 35.9201 318.78 106.06 321.08 106.06C322.23 106.06 321.24 71.0701 325 70.9801L332.03 71.0401" stroke="#CCCCCC" stroke-width="0.9999" stroke-linecap="round"/>
<path opacity="0.49" d="M19 104H135" stroke="#F2F2F2" stroke-width="0.5" stroke-miterlimit="10"/>
<path d="M19 103.7V38H135.27V103.7" fill="url(#paint0_linear_396_35446)"/>
<path d="M19 103.7V38H135.27V103.7" stroke="#5E9BFF" stroke-miterlimit="10"/>
<path d="M19 108.03C21.2091 108.03 23 106.239 23 104.03C23 101.821 21.2091 100.03 19 100.03C16.7909 100.03 15 101.821 15 104.03C15 106.239 16.7909 108.03 19 108.03Z" fill="#242526" stroke="#5E9BFF" stroke-miterlimit="10"/>
<path d="M135 108.03C137.209 108.03 139 106.239 139 104.03C139 101.821 137.209 100.03 135 100.03C132.791 100.03 131 101.821 131 104.03C131 106.239 132.791 108.03 135 108.03Z" fill="#242526" stroke="#5E9BFF" stroke-miterlimit="10"/>
<path d="M135 42.03C137.209 42.03 139 40.2392 139 38.03C139 35.8209 137.209 34.03 135 34.03C132.791 34.03 131 35.8209 131 38.03C131 40.2392 132.791 42.03 135 42.03Z" fill="#242526" stroke="#5E9BFF" stroke-miterlimit="10"/>
<path d="M19 42.03C21.2091 42.03 23 40.2392 23 38.03C23 35.8209 21.2091 34.03 19 34.03C16.7909 34.03 15 35.8209 15 38.03C15 40.2392 16.7909 42.03 19 42.03Z" fill="#242526" stroke="#5E9BFF" stroke-miterlimit="10"/>
<path d="M202.93 178.53L210.35 178.51C212.52 178.53 212.37 161 213.51 161C215.31 161 217.54 196.09 219.84 196.06C222.14 196.03 223.87 161 226.17 161C227.32 161 228.33 169.75 229.33 178.51V178.55C230.33 187.3 231.35 196.06 232.49 196.06C234.79 196.06 236.52 161.04 238.82 161C241.12 160.96 242.85 196.06 245.15 196.06C246.3 196.06 247.3 187.31 248.31 178.55V178.51C249.32 169.76 250.33 161 251.47 161C253.77 161 255.5 196.09 257.8 196.06C260.1 196.02 261.83 161 264.13 161C265.28 161 266.29 169.75 267.29 178.51V178.55C268.29 187.3 269.31 196.06 270.45 196.06C272.75 196.06 274.48 161.04 276.78 161C279.08 160.96 280.81 196.06 283.11 196.06C284.26 196.06 285.26 187.31 286.27 178.55V178.51C287.28 169.76 288.29 161 289.43 161C291.73 161 293.46 196.09 295.76 196.06C298.06 196.03 299.8 161 302.1 161C303.25 161 304.26 169.75 305.26 178.51V178.55C306.26 187.3 307.28 196.06 308.42 196.06C310.72 196.06 312.45 161.04 314.75 161C317.05 160.96 318.78 196.06 321.08 196.06C322.23 196.06 321.24 178.55 325 178.5L332.03 178.53" stroke="#CCCCCC" stroke-width="0.7073" stroke-linecap="round"/>
<path opacity="0.49" d="M19 194.03H135" stroke="#F2F2F2" stroke-width="0.5" stroke-miterlimit="10"/>
<path d="M19 194.03V158.33H135.27V194.03" fill="url(#paint1_linear_396_35446)"/>
<path d="M19 194.03V158.33H135.27V194.03" stroke="#5E9BFF" stroke-miterlimit="10"/>
<path d="M19 198.03C21.2091 198.03 23 196.239 23 194.03C23 191.821 21.2091 190.03 19 190.03C16.7909 190.03 15 191.821 15 194.03C15 196.239 16.7909 198.03 19 198.03Z" fill="#242526" stroke="#5E9BFF" stroke-miterlimit="10"/>
<path d="M135 198.03C137.209 198.03 139 196.239 139 194.03C139 191.821 137.209 190.03 135 190.03C132.791 190.03 131 191.821 131 194.03C131 196.239 132.791 198.03 135 198.03Z" fill="#242526" stroke="#5E9BFF" stroke-miterlimit="10"/>
<path d="M135 162.03C137.209 162.03 139 160.239 139 158.03C139 155.821 137.209 154.03 135 154.03C132.791 154.03 131 155.821 131 158.03C131 160.239 132.791 162.03 135 162.03Z" fill="#242526" stroke="#5E9BFF" stroke-miterlimit="10"/>
<path d="M19 162.03C21.2091 162.03 23 160.239 23 158.03C23 155.821 21.2091 154.03 19 154.03C16.7909 154.03 15 155.821 15 158.03C15 160.239 16.7909 162.03 19 162.03Z" fill="#242526" stroke="#5E9BFF" stroke-miterlimit="10"/>
<path d="M47.1822 16.7554V6.95537H54.2872V8.34137H48.6522V11.1554H53.2792V12.5414H48.6522V15.3694H54.4062V16.7554H47.1822ZM56.3141 16.7554V9.75537H57.7141V10.9244C57.9708 10.509 58.2905 10.1824 58.6731 9.94437C59.0605 9.70637 59.5085 9.58737 60.0171 9.58737H60.1711C60.9458 9.58737 61.5525 9.86037 61.9911 10.4064C62.4345 10.9524 62.6561 11.72 62.6561 12.7094V16.7554H61.2561V12.8774C61.2561 11.552 60.7755 10.8894 59.8141 10.8894H59.6741C59.1981 10.8894 58.7921 11.0364 58.4561 11.3304C58.1248 11.6244 57.8775 11.9954 57.7141 12.4434V16.7554H56.3141ZM66.4992 16.7554C65.9952 15.6214 65.5146 14.4664 65.0572 13.2904C64.6046 12.1097 64.1846 10.9314 63.7972 9.75537H65.3792C65.6639 10.7214 65.9742 11.6897 66.3102 12.6604C66.6509 13.631 67.0102 14.5924 67.3882 15.5444C67.7662 14.5924 68.1232 13.631 68.4592 12.6604C68.7999 11.6897 69.1126 10.7214 69.3972 9.75537H70.9232C70.5359 10.9314 70.1136 12.1097 69.6562 13.2904C69.2036 14.4664 68.7252 15.6214 68.2212 16.7554H66.4992ZM74.9301 16.9234C74.2581 16.9234 73.6677 16.7694 73.1591 16.4614C72.6551 16.1534 72.2607 15.724 71.9761 15.1734C71.6961 14.6227 71.5561 13.9857 71.5561 13.2624C71.5561 12.539 71.6961 11.902 71.9761 11.3514C72.2607 10.796 72.6551 10.3644 73.1591 10.0564C73.6677 9.7437 74.2581 9.58737 74.9301 9.58737H75.0841C75.6954 9.58737 76.2321 9.73904 76.6941 10.0424C77.1607 10.341 77.5247 10.775 77.7861 11.3444C78.0474 11.909 78.1781 12.5904 78.1781 13.3884V13.8154H73.0051C73.0891 14.3894 73.3037 14.842 73.6491 15.1734C73.9991 15.5 74.4541 15.6634 75.0141 15.6634H75.1541C75.4901 15.6634 75.8121 15.5957 76.1201 15.4604C76.4281 15.3204 76.6871 15.1337 76.8971 14.9004L77.7581 15.8104C77.4407 16.151 77.0487 16.4217 76.5821 16.6224C76.1201 16.823 75.6207 16.9234 75.0841 16.9234H74.9301ZM74.8881 10.8474C74.3887 10.8474 73.9711 11.013 73.6351 11.3444C73.3037 11.671 73.0937 12.119 73.0051 12.6884H76.7711C76.7291 12.1704 76.5587 11.734 76.2601 11.3794C75.9661 11.0247 75.5554 10.8474 75.0281 10.8474H74.8881ZM79.8161 16.7554V6.53537H81.2161V16.7554H79.8161ZM86.3831 16.9234C85.6737 16.9234 85.0554 16.767 84.5281 16.4544C84.0054 16.137 83.6017 15.703 83.3171 15.1524C83.0324 14.597 82.8901 13.9647 82.8901 13.2554C82.8901 12.5414 83.0324 11.909 83.3171 11.3584C83.6017 10.8077 84.0054 10.376 84.5281 10.0634C85.0554 9.74604 85.6737 9.58737 86.3831 9.58737H86.5371C87.2511 9.58737 87.8694 9.74604 88.3921 10.0634C88.9147 10.376 89.3184 10.8077 89.6031 11.3584C89.8877 11.909 90.0301 12.5414 90.0301 13.2554C90.0301 13.9647 89.8877 14.597 89.6031 15.1524C89.3184 15.703 88.9147 16.137 88.3921 16.4544C87.8694 16.767 87.2511 16.9234 86.5371 16.9234H86.3831ZM86.3901 15.6214H86.5301C87.1694 15.6214 87.6711 15.4067 88.0351 14.9774C88.3991 14.548 88.5811 13.974 88.5811 13.2554C88.5811 12.532 88.3991 11.958 88.0351 11.5334C87.6711 11.104 87.1694 10.8894 86.5301 10.8894H86.3901C85.7554 10.8894 85.2537 11.104 84.8851 11.5334C84.5211 11.958 84.3391 12.532 84.3391 13.2554C84.3391 13.974 84.5211 14.548 84.8851 14.9774C85.2537 15.4067 85.7554 15.6214 86.3901 15.6214ZM91.6969 19.6954V9.75537H93.0969V10.8544C93.3396 10.4344 93.6569 10.1194 94.0489 9.90937C94.4409 9.6947 94.8773 9.58737 95.3579 9.58737H95.5119C96.1326 9.58737 96.6739 9.74604 97.1359 10.0634C97.6026 10.376 97.9643 10.81 98.2209 11.3654C98.4776 11.916 98.6059 12.546 98.6059 13.2554C98.6059 13.9647 98.4776 14.597 98.2209 15.1524C97.9643 15.703 97.6026 16.137 97.1359 16.4544C96.6739 16.767 96.1326 16.9234 95.5119 16.9234H95.3579C94.8959 16.9234 94.4666 16.8254 94.0699 16.6294C93.6779 16.4287 93.3536 16.1324 93.0969 15.7404V19.6954H91.6969ZM95.0219 15.6284H95.1619C95.7733 15.6284 96.2586 15.423 96.6179 15.0124C96.9773 14.6017 97.1569 14.016 97.1569 13.2554C97.1569 12.4947 96.9773 11.909 96.6179 11.4984C96.2586 11.0877 95.7733 10.8824 95.1619 10.8824H95.0219C94.6066 10.8824 94.2309 11.006 93.8949 11.2534C93.5636 11.5007 93.2976 11.839 93.0969 12.2684V14.2424C93.2976 14.6717 93.5636 15.01 93.8949 15.2574C94.2309 15.5047 94.6066 15.6284 95.0219 15.6284ZM103.272 16.9234C102.6 16.9234 102.01 16.7694 101.501 16.4614C100.997 16.1534 100.603 15.724 100.318 15.1734C100.038 14.6227 99.8979 13.9857 99.8979 13.2624C99.8979 12.539 100.038 11.902 100.318 11.3514C100.603 10.796 100.997 10.3644 101.501 10.0564C102.01 9.7437 102.6 9.58737 103.272 9.58737H103.426C104.037 9.58737 104.574 9.73904 105.036 10.0424C105.503 10.341 105.867 10.775 106.128 11.3444C106.389 11.909 106.52 12.5904 106.52 13.3884V13.8154H101.347C101.431 14.3894 101.646 14.842 101.991 15.1734C102.341 15.5 102.796 15.6634 103.356 15.6634H103.496C103.832 15.6634 104.154 15.5957 104.462 15.4604C104.77 15.3204 105.029 15.1337 105.239 14.9004L106.1 15.8104C105.783 16.151 105.391 16.4217 104.924 16.6224C104.462 16.823 103.963 16.9234 103.426 16.9234H103.272ZM103.23 10.8474C102.731 10.8474 102.313 11.013 101.977 11.3444C101.646 11.671 101.436 12.119 101.347 12.6884H105.113C105.071 12.1704 104.901 11.734 104.602 11.3794C104.308 11.0247 103.897 10.8474 103.37 10.8474H103.23Z" fill="white"/>
<path d="M240.389 16.7554C239.946 15.7987 239.503 14.7674 239.059 13.6614C238.616 12.5507 238.196 11.4237 237.799 10.2804C237.407 9.13237 237.064 8.02404 236.77 6.95537H238.401C238.639 7.8467 238.915 8.78704 239.227 9.77637C239.54 10.7657 239.871 11.748 240.221 12.7234C240.576 13.694 240.931 14.5994 241.285 15.4394C241.64 14.5994 241.997 13.694 242.356 12.7234C242.72 11.748 243.061 10.7657 243.378 9.77637C243.696 8.78704 243.966 7.8467 244.19 6.95537H245.772C245.478 8.02404 245.133 9.13237 244.736 10.2804C244.344 11.4237 243.927 12.5507 243.483 13.6614C243.04 14.7674 242.597 15.7987 242.153 16.7554H240.389ZM247.89 8.50937C247.605 8.50937 247.379 8.42304 247.211 8.25037C247.047 8.07304 246.966 7.84904 246.966 7.57837C246.966 7.30304 247.047 7.07904 247.211 6.90637C247.379 6.7337 247.605 6.64737 247.89 6.64737C248.179 6.64737 248.405 6.7337 248.569 6.90637C248.732 7.07904 248.814 7.30304 248.814 7.57837C248.814 7.84904 248.732 8.07304 248.569 8.25037C248.405 8.42304 248.179 8.50937 247.89 8.50937ZM247.19 16.7554V9.75537H248.59V16.7554H247.19ZM250.649 16.7554V6.53537H252.049V10.8544C252.291 10.4344 252.609 10.1194 253.001 9.90937C253.393 9.6947 253.829 9.58737 254.31 9.58737H254.464C255.084 9.58737 255.626 9.74604 256.088 10.0634C256.554 10.376 256.916 10.81 257.173 11.3654C257.429 11.916 257.558 12.546 257.558 13.2554C257.558 13.9647 257.429 14.597 257.173 15.1524C256.916 15.703 256.554 16.137 256.088 16.4544C255.626 16.767 255.084 16.9234 254.464 16.9234H254.31C253.848 16.9234 253.418 16.8254 253.022 16.6294C252.63 16.4287 252.305 16.1324 252.049 15.7404V16.7554H250.649ZM253.974 15.6284H254.114C254.725 15.6284 255.21 15.423 255.57 15.0124C255.929 14.6017 256.109 14.016 256.109 13.2554C256.109 12.4947 255.929 11.909 255.57 11.4984C255.21 11.0877 254.725 10.8824 254.114 10.8824H253.974C253.558 10.8824 253.183 11.006 252.847 11.2534C252.515 11.5007 252.249 11.839 252.049 12.2684V14.2424C252.249 14.6717 252.515 15.01 252.847 15.2574C253.183 15.5047 253.558 15.6284 253.974 15.6284ZM259.235 16.7554V9.75537H260.635V10.8194C261.101 9.99804 261.743 9.58737 262.56 9.58737C262.784 9.58737 262.987 9.60604 263.169 9.64337V11.0574C263.057 11.0434 262.935 11.0317 262.805 11.0224C262.679 11.013 262.555 11.0084 262.434 11.0084C261.972 11.0084 261.594 11.1414 261.3 11.4074C261.006 11.6734 260.784 12.0374 260.635 12.4994V16.7554H259.235ZM266.375 16.8954C265.638 16.8954 265.064 16.7064 264.653 16.3284C264.247 15.9457 264.044 15.444 264.044 14.8234C264.044 14.2074 264.273 13.6917 264.73 13.2764C265.192 12.861 265.927 12.6534 266.935 12.6534H268.839V12.6324C268.839 11.4564 268.298 10.8684 267.215 10.8684C266.762 10.8684 266.38 10.95 266.067 11.1134C265.759 11.2767 265.509 11.5054 265.318 11.7994L264.359 11.0224C264.658 10.5604 265.05 10.2057 265.535 9.95837C266.025 9.71104 266.58 9.58737 267.201 9.58737H267.355C268.214 9.58737 268.904 9.8347 269.427 10.3294C269.95 10.824 270.211 11.5637 270.211 12.5484V16.7554H268.867V15.6144C268.596 16.025 268.249 16.3424 267.824 16.5664C267.399 16.7857 266.916 16.8954 266.375 16.8954ZM266.683 15.6494C267.224 15.6494 267.675 15.528 268.034 15.2854C268.393 15.038 268.662 14.7044 268.839 14.2844V13.7524H266.991C266.44 13.7524 266.046 13.841 265.808 14.0184C265.575 14.191 265.458 14.4267 265.458 14.7254C265.458 15.3414 265.866 15.6494 266.683 15.6494ZM275.305 16.8464C274.474 16.8464 273.842 16.6364 273.408 16.2164C272.974 15.7964 272.757 15.15 272.757 14.2774V10.9734H271.385V9.75537H272.757V7.66937H274.157V9.75537H276.516V10.9734H274.157V14.0884C274.157 14.639 274.271 15.0217 274.5 15.2364C274.728 15.451 275.067 15.5584 275.515 15.5584C275.729 15.5584 275.921 15.549 276.089 15.5304C276.261 15.5117 276.439 15.4884 276.621 15.4604V16.6854C276.434 16.732 276.224 16.7694 275.991 16.7974C275.757 16.83 275.529 16.8464 275.305 16.8464ZM278.761 8.50937C278.476 8.50937 278.25 8.42304 278.082 8.25037C277.919 8.07304 277.837 7.84904 277.837 7.57837C277.837 7.30304 277.919 7.07904 278.082 6.90637C278.25 6.7337 278.476 6.64737 278.761 6.64737C279.05 6.64737 279.277 6.7337 279.44 6.90637C279.603 7.07904 279.685 7.30304 279.685 7.57837C279.685 7.84904 279.603 8.07304 279.44 8.25037C279.277 8.42304 279.05 8.50937 278.761 8.50937ZM278.061 16.7554V9.75537H279.461V16.7554H278.061ZM284.628 16.9234C283.919 16.9234 283.3 16.767 282.773 16.4544C282.25 16.137 281.847 15.703 281.562 15.1524C281.277 14.597 281.135 13.9647 281.135 13.2554C281.135 12.5414 281.277 11.909 281.562 11.3584C281.847 10.8077 282.25 10.376 282.773 10.0634C283.3 9.74604 283.919 9.58737 284.628 9.58737H284.782C285.496 9.58737 286.114 9.74604 286.637 10.0634C287.16 10.376 287.563 10.8077 287.848 11.3584C288.133 11.909 288.275 12.5414 288.275 13.2554C288.275 13.9647 288.133 14.597 287.848 15.1524C287.563 15.703 287.16 16.137 286.637 16.4544C286.114 16.767 285.496 16.9234 284.782 16.9234H284.628ZM284.635 15.6214H284.775C285.414 15.6214 285.916 15.4067 286.28 14.9774C286.644 14.548 286.826 13.974 286.826 13.2554C286.826 12.532 286.644 11.958 286.28 11.5334C285.916 11.104 285.414 10.8894 284.775 10.8894H284.635C284 10.8894 283.499 11.104 283.13 11.5334C282.766 11.958 282.584 12.532 282.584 13.2554C282.584 13.974 282.766 14.548 283.13 14.9774C283.499 15.4067 284 15.6214 284.635 15.6214ZM289.942 16.7554V9.75537H291.342V10.9244C291.598 10.509 291.918 10.1824 292.301 9.94437C292.688 9.70637 293.136 9.58737 293.645 9.58737H293.799C294.573 9.58737 295.18 9.86037 295.619 10.4064C296.062 10.9524 296.284 11.72 296.284 12.7094V16.7554H294.884V12.8774C294.884 11.552 294.403 10.8894 293.442 10.8894H293.302C292.826 10.8894 292.42 11.0364 292.084 11.3304C291.752 11.6244 291.505 11.9954 291.342 12.4434V16.7554H289.942Z" fill="white"/>
<defs>
<linearGradient id="paint0_linear_396_35446" x1="77.1368" y1="37.9979" x2="77.1368" y2="103.698" gradientUnits="userSpaceOnUse">
<stop stop-color="#5E9BFF"/>
<stop offset="1" stop-color="#5E9BFF" stop-opacity="0"/>
</linearGradient>
<linearGradient id="paint1_linear_396_35446" x1="77.1368" y1="158.328" x2="77.1368" y2="194.028" gradientUnits="userSpaceOnUse">
<stop stop-color="#5E9BFF"/>
<stop offset="1" stop-color="#5E9BFF" stop-opacity="0"/>
</linearGradient>
</defs>
</svg>
