<svg width="360" height="120" viewBox="0 0 360 120" fill="none" xmlns="http://www.w3.org/2000/svg">
<path d="M325.29 71.26L317.01 71.3C314.58 71.26 314.76 76.29 313.48 76.29C311.47 76.29 308.98 66.16 306.41 66.23C303.85 66.31 301.91 86.29 299.34 86.29C298.06 86.29 296.93 88.8 295.81 71.3V71.22C294.69 53.73 293.56 56.23 292.28 56.23C289.72 56.23 287.78 96.21 285.21 96.29C282.65 96.37 280.71 46.23 278.14 46.23C276.86 46.23 275.74 53.72 274.61 71.22V71.3C273.48 88.79 272.36 106.29 271.08 106.29H270.96C268.4 106.37 266.46 36.23 263.89 36.23C262.61 36.23 261.49 53.72 260.36 71.22V71.3C259.23 88.79 258.11 96.29 256.83 96.29C254.27 96.29 252.33 46.16 249.76 46.23C247.2 46.31 245.26 86.29 242.69 86.29C241.41 86.29 240.28 88.8 239.16 71.3V71.22C238.04 53.73 236.91 56.23 235.63 56.23C233.07 56.23 231.13 76.21 228.56 76.29C225.99 76.37 223.51 66.23 221.49 66.23C220.21 66.23 220.38 71.26 217.96 71.22L209.68 71.26" stroke="#CCCCCC" stroke-width="1.0567" stroke-linecap="round"/>
<path opacity="0.49" d="M19 105.53H135" stroke="#F2F2F2" stroke-miterlimit="10"/>
<path d="M19 106.03L77 40.5L135 106.5" fill="url(#paint0_linear_396_35380)"/>
<path d="M19 106.03L77 40.5L135 106.5" stroke="#5E9BFF" stroke-miterlimit="10"/>
<path d="M19 109.53C21.2091 109.53 23 107.739 23 105.53C23 103.321 21.2091 101.53 19 101.53C16.7909 101.53 15 103.321 15 105.53C15 107.739 16.7909 109.53 19 109.53Z" fill="#242526" stroke="#5E9BFF" stroke-miterlimit="10"/>
<path d="M135 109.53C137.209 109.53 139 107.739 139 105.53C139 103.321 137.209 101.53 135 101.53C132.791 101.53 131 103.321 131 105.53C131 107.739 132.791 109.53 135 109.53Z" fill="#242526" stroke="#5E9BFF" stroke-miterlimit="10"/>
<path d="M77 44C79.2091 44 81 42.2091 81 40C81 37.7909 79.2091 36 77 36C74.7909 36 73 37.7909 73 40C73 42.2091 74.7909 44 77 44Z" fill="#242526" stroke="#5E9BFF" stroke-miterlimit="10"/>
<path d="M47.7633 21V11.2H54.8683V12.586H49.2333V15.4H53.8603V16.786H49.2333V19.614H54.9873V21H47.7633ZM56.8952 21V14H58.2952V15.169C58.5519 14.7537 58.8715 14.427 59.2542 14.189C59.6415 13.951 60.0895 13.832 60.5982 13.832H60.7522C61.5269 13.832 62.1335 14.105 62.5722 14.651C63.0155 15.197 63.2372 15.9647 63.2372 16.954V21H61.8372V17.122C61.8372 15.7967 61.3565 15.134 60.3952 15.134H60.2552C59.7792 15.134 59.3732 15.281 59.0372 15.575C58.7059 15.869 58.4585 16.24 58.2952 16.688V21H56.8952ZM67.0803 21C66.5763 19.866 66.0957 18.711 65.6383 17.535C65.1857 16.3543 64.7657 15.176 64.3783 14H65.9603C66.245 14.966 66.5553 15.9343 66.8913 16.905C67.232 17.8757 67.5913 18.837 67.9693 19.789C68.3473 18.837 68.7043 17.8757 69.0403 16.905C69.381 15.9343 69.6937 14.966 69.9783 14H71.5043C71.117 15.176 70.6947 16.3543 70.2373 17.535C69.7847 18.711 69.3063 19.866 68.8023 21H67.0803ZM75.5112 21.168C74.8392 21.168 74.2488 21.014 73.7402 20.706C73.2362 20.398 72.8418 19.9687 72.5572 19.418C72.2772 18.8673 72.1372 18.2303 72.1372 17.507C72.1372 16.7837 72.2772 16.1467 72.5572 15.596C72.8418 15.0407 73.2362 14.609 73.7402 14.301C74.2488 13.9883 74.8392 13.832 75.5112 13.832H75.6652C76.2765 13.832 76.8132 13.9837 77.2752 14.287C77.7418 14.5857 78.1058 15.0197 78.3672 15.589C78.6285 16.1537 78.7592 16.835 78.7592 17.633V18.06H73.5862C73.6702 18.634 73.8848 19.0867 74.2302 19.418C74.5802 19.7447 75.0352 19.908 75.5952 19.908H75.7352C76.0712 19.908 76.3932 19.8403 76.7012 19.705C77.0092 19.565 77.2682 19.3783 77.4782 19.145L78.3392 20.055C78.0218 20.3957 77.6298 20.6663 77.1632 20.867C76.7012 21.0677 76.2018 21.168 75.6652 21.168H75.5112ZM75.4692 15.092C74.9698 15.092 74.5522 15.2577 74.2162 15.589C73.8848 15.9157 73.6748 16.3637 73.5862 16.933H77.3522C77.3102 16.415 77.1398 15.9787 76.8412 15.624C76.5472 15.2693 76.1365 15.092 75.6092 15.092H75.4692ZM80.3972 21V10.78H81.7972V21H80.3972ZM86.9641 21.168C86.2548 21.168 85.6365 21.0117 85.1091 20.699C84.5865 20.3817 84.1828 19.9477 83.8981 19.397C83.6135 18.8417 83.4711 18.2093 83.4711 17.5C83.4711 16.786 83.6135 16.1537 83.8981 15.603C84.1828 15.0523 84.5865 14.6207 85.1091 14.308C85.6365 13.9907 86.2548 13.832 86.9641 13.832H87.1181C87.8321 13.832 88.4505 13.9907 88.9731 14.308C89.4958 14.6207 89.8995 15.0523 90.1841 15.603C90.4688 16.1537 90.6111 16.786 90.6111 17.5C90.6111 18.2093 90.4688 18.8417 90.1841 19.397C89.8995 19.9477 89.4958 20.3817 88.9731 20.699C88.4505 21.0117 87.8321 21.168 87.1181 21.168H86.9641ZM86.9711 19.866H87.1111C87.7505 19.866 88.2521 19.6513 88.6161 19.222C88.9801 18.7927 89.1621 18.2187 89.1621 17.5C89.1621 16.7767 88.9801 16.2027 88.6161 15.778C88.2521 15.3487 87.7505 15.134 87.1111 15.134H86.9711C86.3365 15.134 85.8348 15.3487 85.4661 15.778C85.1021 16.2027 84.9201 16.7767 84.9201 17.5C84.9201 18.2187 85.1021 18.7927 85.4661 19.222C85.8348 19.6513 86.3365 19.866 86.9711 19.866ZM92.278 23.94V14H93.678V15.099C93.9207 14.679 94.238 14.364 94.63 14.154C95.022 13.9393 95.4584 13.832 95.939 13.832H96.093C96.7137 13.832 97.255 13.9907 97.717 14.308C98.1837 14.6207 98.5454 15.0547 98.802 15.61C99.0587 16.1607 99.187 16.7907 99.187 17.5C99.187 18.2093 99.0587 18.8417 98.802 19.397C98.5454 19.9477 98.1837 20.3817 97.717 20.699C97.255 21.0117 96.7137 21.168 96.093 21.168H95.939C95.477 21.168 95.0477 21.07 94.651 20.874C94.259 20.6733 93.9347 20.377 93.678 19.985V23.94H92.278ZM95.603 19.873H95.743C96.3544 19.873 96.8397 19.6677 97.199 19.257C97.5584 18.8463 97.738 18.2607 97.738 17.5C97.738 16.7393 97.5584 16.1537 97.199 15.743C96.8397 15.3323 96.3544 15.127 95.743 15.127H95.603C95.1877 15.127 94.812 15.2507 94.476 15.498C94.1447 15.7453 93.8787 16.0837 93.678 16.513V18.487C93.8787 18.9163 94.1447 19.2547 94.476 19.502C94.812 19.7493 95.1877 19.873 95.603 19.873ZM103.853 21.168C103.181 21.168 102.591 21.014 102.082 20.706C101.578 20.398 101.184 19.9687 100.899 19.418C100.619 18.8673 100.479 18.2303 100.479 17.507C100.479 16.7837 100.619 16.1467 100.899 15.596C101.184 15.0407 101.578 14.609 102.082 14.301C102.591 13.9883 103.181 13.832 103.853 13.832H104.007C104.618 13.832 105.155 13.9837 105.617 14.287C106.084 14.5857 106.448 15.0197 106.709 15.589C106.97 16.1537 107.101 16.835 107.101 17.633V18.06H101.928C102.012 18.634 102.227 19.0867 102.572 19.418C102.922 19.7447 103.377 19.908 103.937 19.908H104.077C104.413 19.908 104.735 19.8403 105.043 19.705C105.351 19.565 105.61 19.3783 105.82 19.145L106.681 20.055C106.364 20.3957 105.972 20.6663 105.505 20.867C105.043 21.0677 104.544 21.168 104.007 21.168H103.853ZM103.811 15.092C103.312 15.092 102.894 15.2577 102.558 15.589C102.227 15.9157 102.017 16.3637 101.928 16.933H105.694C105.652 16.415 105.482 15.9787 105.183 15.624C104.889 15.2693 104.478 15.092 103.951 15.092H103.811Z" fill="white"/>
<path d="M241.057 21C240.614 20.0433 240.171 19.012 239.727 17.906C239.284 16.7953 238.864 15.6683 238.467 14.525C238.075 13.377 237.732 12.2687 237.438 11.2H239.069C239.307 12.0913 239.583 13.0317 239.895 14.021C240.208 15.0103 240.539 15.9927 240.889 16.968C241.244 17.9387 241.599 18.844 241.953 19.684C242.308 18.844 242.665 17.9387 243.024 16.968C243.388 15.9927 243.729 15.0103 244.046 14.021C244.364 13.0317 244.634 12.0913 244.858 11.2H246.44C246.146 12.2687 245.801 13.377 245.404 14.525C245.012 15.6683 244.595 16.7953 244.151 17.906C243.708 19.012 243.265 20.0433 242.821 21H241.057ZM248.558 12.754C248.273 12.754 248.047 12.6677 247.879 12.495C247.715 12.3177 247.634 12.0937 247.634 11.823C247.634 11.5477 247.715 11.3237 247.879 11.151C248.047 10.9783 248.273 10.892 248.558 10.892C248.847 10.892 249.073 10.9783 249.237 11.151C249.4 11.3237 249.482 11.5477 249.482 11.823C249.482 12.0937 249.4 12.3177 249.237 12.495C249.073 12.6677 248.847 12.754 248.558 12.754ZM247.858 21V14H249.258V21H247.858ZM251.317 21V10.78H252.717V15.099C252.959 14.679 253.277 14.364 253.669 14.154C254.061 13.9393 254.497 13.832 254.978 13.832H255.132C255.752 13.832 256.294 13.9907 256.756 14.308C257.222 14.6207 257.584 15.0547 257.841 15.61C258.097 16.1607 258.226 16.7907 258.226 17.5C258.226 18.2093 258.097 18.8417 257.841 19.397C257.584 19.9477 257.222 20.3817 256.756 20.699C256.294 21.0117 255.752 21.168 255.132 21.168H254.978C254.516 21.168 254.086 21.07 253.69 20.874C253.298 20.6733 252.973 20.377 252.717 19.985V21H251.317ZM254.642 19.873H254.782C255.393 19.873 255.878 19.6677 256.238 19.257C256.597 18.8463 256.777 18.2607 256.777 17.5C256.777 16.7393 256.597 16.1537 256.238 15.743C255.878 15.3323 255.393 15.127 254.782 15.127H254.642C254.226 15.127 253.851 15.2507 253.515 15.498C253.183 15.7453 252.917 16.0837 252.717 16.513V18.487C252.917 18.9163 253.183 19.2547 253.515 19.502C253.851 19.7493 254.226 19.873 254.642 19.873ZM259.903 21V14H261.303V15.064C261.769 14.2427 262.411 13.832 263.228 13.832C263.452 13.832 263.655 13.8507 263.837 13.888V15.302C263.725 15.288 263.603 15.2763 263.473 15.267C263.347 15.2577 263.223 15.253 263.102 15.253C262.64 15.253 262.262 15.386 261.968 15.652C261.674 15.918 261.452 16.282 261.303 16.744V21H259.903ZM267.043 21.14C266.306 21.14 265.732 20.951 265.321 20.573C264.915 20.1903 264.712 19.6887 264.712 19.068C264.712 18.452 264.941 17.9363 265.398 17.521C265.86 17.1057 266.595 16.898 267.603 16.898H269.507V16.877C269.507 15.701 268.966 15.113 267.883 15.113C267.43 15.113 267.048 15.1947 266.735 15.358C266.427 15.5213 266.177 15.75 265.986 16.044L265.027 15.267C265.326 14.805 265.718 14.4503 266.203 14.203C266.693 13.9557 267.248 13.832 267.869 13.832H268.023C268.882 13.832 269.572 14.0793 270.095 14.574C270.618 15.0687 270.879 15.8083 270.879 16.793V21H269.535V19.859C269.264 20.2697 268.917 20.587 268.492 20.811C268.067 21.0303 267.584 21.14 267.043 21.14ZM267.351 19.894C267.892 19.894 268.343 19.7727 268.702 19.53C269.061 19.2827 269.33 18.949 269.507 18.529V17.997H267.659C267.108 17.997 266.714 18.0857 266.476 18.263C266.243 18.4357 266.126 18.6713 266.126 18.97C266.126 19.586 266.534 19.894 267.351 19.894ZM275.973 21.091C275.142 21.091 274.51 20.881 274.076 20.461C273.642 20.041 273.425 19.3947 273.425 18.522V15.218H272.053V14H273.425V11.914H274.825V14H277.184V15.218H274.825V18.333C274.825 18.8837 274.939 19.2663 275.168 19.481C275.396 19.6957 275.735 19.803 276.183 19.803C276.397 19.803 276.589 19.7937 276.757 19.775C276.929 19.7563 277.107 19.733 277.289 19.705V20.93C277.102 20.9767 276.892 21.014 276.659 21.042C276.425 21.0747 276.197 21.091 275.973 21.091ZM279.429 12.754C279.144 12.754 278.918 12.6677 278.75 12.495C278.586 12.3177 278.505 12.0937 278.505 11.823C278.505 11.5477 278.586 11.3237 278.75 11.151C278.918 10.9783 279.144 10.892 279.429 10.892C279.718 10.892 279.944 10.9783 280.108 11.151C280.271 11.3237 280.353 11.5477 280.353 11.823C280.353 12.0937 280.271 12.3177 280.108 12.495C279.944 12.6677 279.718 12.754 279.429 12.754ZM278.729 21V14H280.129V21H278.729ZM285.296 21.168C284.586 21.168 283.968 21.0117 283.441 20.699C282.918 20.3817 282.514 19.9477 282.23 19.397C281.945 18.8417 281.803 18.2093 281.803 17.5C281.803 16.786 281.945 16.1537 282.23 15.603C282.514 15.0523 282.918 14.6207 283.441 14.308C283.968 13.9907 284.586 13.832 285.296 13.832H285.45C286.164 13.832 286.782 13.9907 287.305 14.308C287.827 14.6207 288.231 15.0523 288.516 15.603C288.8 16.1537 288.943 16.786 288.943 17.5C288.943 18.2093 288.8 18.8417 288.516 19.397C288.231 19.9477 287.827 20.3817 287.305 20.699C286.782 21.0117 286.164 21.168 285.45 21.168H285.296ZM285.303 19.866H285.443C286.082 19.866 286.584 19.6513 286.948 19.222C287.312 18.7927 287.494 18.2187 287.494 17.5C287.494 16.7767 287.312 16.2027 286.948 15.778C286.584 15.3487 286.082 15.134 285.443 15.134H285.303C284.668 15.134 284.166 15.3487 283.798 15.778C283.434 16.2027 283.252 16.7767 283.252 17.5C283.252 18.2187 283.434 18.7927 283.798 19.222C284.166 19.6513 284.668 19.866 285.303 19.866ZM290.61 21V14H292.01V15.169C292.266 14.7537 292.586 14.427 292.969 14.189C293.356 13.951 293.804 13.832 294.313 13.832H294.467C295.241 13.832 295.848 14.105 296.287 14.651C296.73 15.197 296.952 15.9647 296.952 16.954V21H295.552V17.122C295.552 15.7967 295.071 15.134 294.11 15.134H293.97C293.494 15.134 293.088 15.281 292.752 15.575C292.42 15.869 292.173 16.24 292.01 16.688V21H290.61Z" fill="white"/>
<defs>
<linearGradient id="paint0_linear_396_35380" x1="77" y1="40.5" x2="77" y2="106.5" gradientUnits="userSpaceOnUse">
<stop stop-color="#5E9BFF"/>
<stop offset="1" stop-color="#5E9BFF" stop-opacity="0"/>
</linearGradient>
</defs>
</svg>
