<svg width="360" height="279" viewBox="0 0 360 279" fill="none" xmlns="http://www.w3.org/2000/svg">
<path d="M98.1788 17.1401V7.34014H99.6768V15.7261H104.871V17.1401H98.1788ZM109.393 17.3081C108.684 17.3081 108.066 17.1518 107.538 16.8391C107.016 16.5218 106.612 16.0878 106.327 15.5371C106.043 14.9818 105.9 14.3495 105.9 13.6401C105.9 12.9261 106.043 12.2938 106.327 11.7431C106.612 11.1925 107.016 10.7608 107.538 10.4481C108.066 10.1308 108.684 9.97214 109.393 9.97214H109.547C110.261 9.97214 110.88 10.1308 111.402 10.4481C111.925 10.7608 112.329 11.1925 112.613 11.7431C112.898 12.2938 113.04 12.9261 113.04 13.6401C113.04 14.3495 112.898 14.9818 112.613 15.5371C112.329 16.0878 111.925 16.5218 111.402 16.8391C110.88 17.1518 110.261 17.3081 109.547 17.3081H109.393ZM109.4 16.0061H109.54C110.18 16.0061 110.681 15.7915 111.045 15.3621C111.409 14.9328 111.591 14.3588 111.591 13.6401C111.591 12.9168 111.409 12.3428 111.045 11.9181C110.681 11.4888 110.18 11.2741 109.54 11.2741H109.4C108.766 11.2741 108.264 11.4888 107.895 11.9181C107.531 12.3428 107.349 12.9168 107.349 13.6401C107.349 14.3588 107.531 14.9328 107.895 15.3621C108.264 15.7915 108.766 16.0061 109.4 16.0061ZM116.051 17.1401C115.631 16.0155 115.234 14.8675 114.861 13.6961C114.492 12.5201 114.147 11.3348 113.825 10.1401H115.365C115.593 11.1061 115.843 12.0721 116.114 13.0381C116.384 14.0041 116.669 14.9585 116.968 15.9011L118.501 10.5741H119.985L121.525 15.9221C121.823 14.9795 122.108 14.0228 122.379 13.0521C122.654 12.0815 122.906 11.1108 123.135 10.1401H124.633C124.311 11.3348 123.963 12.5201 123.59 13.6961C123.221 14.8675 122.827 16.0155 122.407 17.1401H120.65L119.236 12.2121L117.815 17.1401H116.051ZM129.487 17.1401V7.34014H136.459V8.74014H130.971V11.6241H135.542V13.0241H130.971V17.1401H129.487ZM137.635 17.1401V10.1401H139.035V11.2041C139.502 10.3828 140.143 9.97214 140.96 9.97214C141.184 9.97214 141.387 9.9908 141.569 10.0281V11.4421C141.457 11.4281 141.336 11.4165 141.205 11.4071C141.079 11.3978 140.955 11.3931 140.834 11.3931C140.372 11.3931 139.994 11.5261 139.7 11.7921C139.406 12.0581 139.184 12.4221 139.035 12.8841V17.1401H137.635ZM145.792 17.3081C145.12 17.3081 144.53 17.1541 144.021 16.8461C143.517 16.5381 143.123 16.1088 142.838 15.5581C142.558 15.0075 142.418 14.3705 142.418 13.6471C142.418 12.9238 142.558 12.2868 142.838 11.7361C143.123 11.1808 143.517 10.7491 144.021 10.4411C144.53 10.1285 145.12 9.97214 145.792 9.97214H145.946C146.557 9.97214 147.094 10.1238 147.556 10.4271C148.023 10.7258 148.387 11.1598 148.648 11.7291C148.909 12.2938 149.04 12.9751 149.04 13.7731V14.2001H143.867C143.951 14.7741 144.166 15.2268 144.511 15.5581C144.861 15.8848 145.316 16.0481 145.876 16.0481H146.016C146.352 16.0481 146.674 15.9805 146.982 15.8451C147.29 15.7051 147.549 15.5185 147.759 15.2851L148.62 16.1951C148.303 16.5358 147.911 16.8065 147.444 17.0071C146.982 17.2078 146.483 17.3081 145.946 17.3081H145.792ZM145.75 11.2321C145.251 11.2321 144.833 11.3978 144.497 11.7291C144.166 12.0558 143.956 12.5038 143.867 13.0731H147.633C147.591 12.5551 147.421 12.1188 147.122 11.7641C146.828 11.4095 146.417 11.2321 145.89 11.2321H145.75ZM153.387 17.3081C152.766 17.3081 152.223 17.1518 151.756 16.8391C151.294 16.5218 150.935 16.0878 150.678 15.5371C150.421 14.9818 150.293 14.3495 150.293 13.6401C150.293 12.9308 150.421 12.3008 150.678 11.7501C150.935 11.1948 151.294 10.7608 151.756 10.4481C152.223 10.1308 152.766 9.97214 153.387 9.97214H153.541C154.003 9.97214 154.43 10.0725 154.822 10.2731C155.219 10.4691 155.545 10.7631 155.802 11.1551V10.1401H157.202V20.0801H155.802V16.0411C155.559 16.4611 155.242 16.7785 154.85 16.9931C154.458 17.2031 154.022 17.3081 153.541 17.3081H153.387ZM153.737 16.0131H153.877C154.292 16.0131 154.666 15.8895 154.997 15.6421C155.333 15.3948 155.601 15.0565 155.802 14.6271V12.6531C155.601 12.2238 155.333 11.8855 154.997 11.6381C154.666 11.3908 154.292 11.2671 153.877 11.2671H153.737C153.126 11.2671 152.64 11.4725 152.281 11.8831C151.922 12.2938 151.742 12.8795 151.742 13.6401C151.742 14.4008 151.922 14.9865 152.281 15.3971C152.64 15.8078 153.126 16.0131 153.737 16.0131ZM161.63 17.3081C160.823 17.3081 160.207 17.0351 159.782 16.4891C159.357 15.9431 159.145 15.1755 159.145 14.1861V10.1401H160.545V14.0181C160.545 15.3435 161.026 16.0061 161.987 16.0061H162.127C162.603 16.0061 163.007 15.8591 163.338 15.5651C163.674 15.2711 163.924 14.9001 164.087 14.4521V10.1401H165.487V17.1401H164.087V15.9711C163.83 16.3865 163.508 16.7131 163.121 16.9511C162.738 17.1891 162.293 17.3081 161.784 17.3081H161.63ZM170.538 17.3081C169.866 17.3081 169.276 17.1541 168.767 16.8461C168.263 16.5381 167.869 16.1088 167.584 15.5581C167.304 15.0075 167.164 14.3705 167.164 13.6471C167.164 12.9238 167.304 12.2868 167.584 11.7361C167.869 11.1808 168.263 10.7491 168.767 10.4411C169.276 10.1285 169.866 9.97214 170.538 9.97214H170.692C171.303 9.97214 171.84 10.1238 172.302 10.4271C172.769 10.7258 173.133 11.1598 173.394 11.7291C173.655 12.2938 173.786 12.9751 173.786 13.7731V14.2001H168.613C168.697 14.7741 168.912 15.2268 169.257 15.5581C169.607 15.8848 170.062 16.0481 170.622 16.0481H170.762C171.098 16.0481 171.42 15.9805 171.728 15.8451C172.036 15.7051 172.295 15.5185 172.505 15.2851L173.366 16.1951C173.049 16.5358 172.657 16.8065 172.19 17.0071C171.728 17.2078 171.229 17.3081 170.692 17.3081H170.538ZM170.496 11.2321C169.997 11.2321 169.579 11.3978 169.243 11.7291C168.912 12.0558 168.702 12.5038 168.613 13.0731H172.379C172.337 12.5551 172.167 12.1188 171.868 11.7641C171.574 11.4095 171.163 11.2321 170.636 11.2321H170.496ZM175.424 17.1401V10.1401H176.824V11.3091C177.081 10.8938 177.4 10.5671 177.783 10.3291C178.17 10.0911 178.618 9.97214 179.127 9.97214H179.281C180.056 9.97214 180.662 10.2451 181.101 10.7911C181.544 11.3371 181.766 12.1048 181.766 13.0941V17.1401H180.366V13.2621C180.366 11.9368 179.885 11.2741 178.924 11.2741H178.784C178.308 11.2741 177.902 11.4211 177.566 11.7151C177.235 12.0091 176.987 12.3801 176.824 12.8281V17.1401H175.424ZM186.761 17.3081C186.089 17.3081 185.494 17.1611 184.976 16.8671C184.458 16.5731 184.052 16.1531 183.758 15.6071C183.469 15.0565 183.324 14.4031 183.324 13.6471C183.324 12.8865 183.469 12.2331 183.758 11.6871C184.048 11.1365 184.449 10.7141 184.962 10.4201C185.48 10.1215 186.08 9.97214 186.761 9.97214H186.915C187.457 9.97214 187.968 10.1121 188.448 10.3921C188.934 10.6675 189.326 11.0478 189.624 11.5331L188.539 12.2891C188.339 11.9718 188.098 11.7245 187.818 11.5471C187.538 11.3651 187.221 11.2741 186.866 11.2741H186.726C186.12 11.2741 185.641 11.4888 185.291 11.9181C184.946 12.3428 184.773 12.9168 184.773 13.6401C184.773 14.3588 184.946 14.9328 185.291 15.3621C185.641 15.7915 186.12 16.0061 186.726 16.0061H186.866C187.221 16.0061 187.548 15.9268 187.846 15.7681C188.145 15.6095 188.402 15.3971 188.616 15.1311L189.624 15.9851C189.312 16.3958 188.917 16.7201 188.441 16.9581C187.97 17.1915 187.461 17.3081 186.915 17.3081H186.761ZM191.541 20.2481C191.34 20.2481 191.151 20.2318 190.974 20.1991V18.9391C191.123 18.9625 191.254 18.9741 191.366 18.9741C191.856 18.9741 192.255 18.8341 192.563 18.5541C192.871 18.2788 193.141 17.8728 193.375 17.3361C192.801 16.1835 192.262 15.0028 191.758 13.7941C191.254 12.5855 190.773 11.3675 190.316 10.1401H191.94C192.238 11.0781 192.56 12.0161 192.906 12.9541C193.256 13.8875 193.627 14.8115 194.019 15.7261L195.93 10.1401H197.456L194.719 17.3571C194.369 18.2811 193.953 18.9928 193.473 19.4921C192.992 19.9961 192.348 20.2481 191.541 20.2481ZM204.854 17.1401C204.411 16.1835 203.967 15.1521 203.524 14.0461C203.081 12.9355 202.661 11.8085 202.264 10.6651C201.872 9.51714 201.529 8.4088 201.235 7.34014H202.866C203.104 8.23147 203.379 9.1718 203.692 10.1611C204.005 11.1505 204.336 12.1328 204.686 13.1081C205.041 14.0788 205.395 14.9841 205.75 15.8241C206.105 14.9841 206.462 14.0788 206.821 13.1081C207.185 12.1328 207.526 11.1505 207.843 10.1611C208.16 9.1718 208.431 8.23147 208.655 7.34014H210.237C209.943 8.4088 209.598 9.51714 209.201 10.6651C208.809 11.8085 208.391 12.9355 207.948 14.0461C207.505 15.1521 207.061 16.1835 206.618 17.1401H204.854ZM212.354 8.89414C212.07 8.89414 211.843 8.8078 211.675 8.63514C211.512 8.4578 211.43 8.2338 211.43 7.96314C211.43 7.6878 211.512 7.4638 211.675 7.29114C211.843 7.11847 212.07 7.03214 212.354 7.03214C212.644 7.03214 212.87 7.11847 213.033 7.29114C213.197 7.4638 213.278 7.6878 213.278 7.96314C213.278 8.2338 213.197 8.4578 213.033 8.63514C212.87 8.8078 212.644 8.89414 212.354 8.89414ZM211.654 17.1401V10.1401H213.054V17.1401H211.654ZM215.113 17.1401V6.92014H216.513V11.2391C216.756 10.8191 217.073 10.5041 217.465 10.2941C217.857 10.0795 218.294 9.97214 218.774 9.97214H218.928C219.549 9.97214 220.09 10.1308 220.552 10.4481C221.019 10.7608 221.381 11.1948 221.637 11.7501C221.894 12.3008 222.022 12.9308 222.022 13.6401C222.022 14.3495 221.894 14.9818 221.637 15.5371C221.381 16.0878 221.019 16.5218 220.552 16.8391C220.09 17.1518 219.549 17.3081 218.928 17.3081H218.774C218.312 17.3081 217.883 17.2101 217.486 17.0141C217.094 16.8135 216.77 16.5171 216.513 16.1251V17.1401H215.113ZM218.438 16.0131H218.578C219.19 16.0131 219.675 15.8078 220.034 15.3971C220.394 14.9865 220.573 14.4008 220.573 13.6401C220.573 12.8795 220.394 12.2938 220.034 11.8831C219.675 11.4725 219.19 11.2671 218.578 11.2671H218.438C218.023 11.2671 217.647 11.3908 217.311 11.6381C216.98 11.8855 216.714 12.2238 216.513 12.6531V14.6271C216.714 15.0565 216.98 15.3948 217.311 15.6421C217.647 15.8895 218.023 16.0131 218.438 16.0131ZM223.699 17.1401V10.1401H225.099V11.2041C225.566 10.3828 226.208 9.97214 227.024 9.97214C227.248 9.97214 227.451 9.9908 227.633 10.0281V11.4421C227.521 11.4281 227.4 11.4165 227.269 11.4071C227.143 11.3978 227.02 11.3931 226.898 11.3931C226.436 11.3931 226.058 11.5261 225.764 11.7921C225.47 12.0581 225.249 12.4221 225.099 12.8841V17.1401H223.699ZM230.84 17.2801C230.102 17.2801 229.528 17.0911 229.118 16.7131C228.712 16.3305 228.509 15.8288 228.509 15.2081C228.509 14.5921 228.737 14.0765 229.195 13.6611C229.657 13.2458 230.392 13.0381 231.4 13.0381H233.304V13.0171C233.304 11.8411 232.762 11.2531 231.68 11.2531C231.227 11.2531 230.844 11.3348 230.532 11.4981C230.224 11.6615 229.974 11.8901 229.783 12.1841L228.824 11.4071C229.122 10.9451 229.514 10.5905 230 10.3431C230.49 10.0958 231.045 9.97214 231.666 9.97214H231.82C232.678 9.97214 233.369 10.2195 233.892 10.7141C234.414 11.2088 234.676 11.9485 234.676 12.9331V17.1401H233.332V15.9991C233.061 16.4098 232.713 16.7271 232.289 16.9511C231.864 17.1705 231.381 17.2801 230.84 17.2801ZM231.148 16.0341C231.689 16.0341 232.139 15.9128 232.499 15.6701C232.858 15.4228 233.126 15.0891 233.304 14.6691V14.1371H231.456C230.905 14.1371 230.511 14.2258 230.273 14.4031C230.039 14.5758 229.923 14.8115 229.923 15.1101C229.923 15.7261 230.331 16.0341 231.148 16.0341ZM239.769 17.2311C238.939 17.2311 238.306 17.0211 237.872 16.6011C237.438 16.1811 237.221 15.5348 237.221 14.6621V11.3581H235.849V10.1401H237.221V8.05414H238.621V10.1401H240.98V11.3581H238.621V14.4731C238.621 15.0238 238.736 15.4065 238.964 15.6211C239.193 15.8358 239.531 15.9431 239.979 15.9431C240.194 15.9431 240.385 15.9338 240.553 15.9151C240.726 15.8965 240.903 15.8731 241.085 15.8451V17.0701C240.899 17.1168 240.689 17.1541 240.455 17.1821C240.222 17.2148 239.993 17.2311 239.769 17.2311ZM243.226 8.89414C242.941 8.89414 242.715 8.8078 242.547 8.63514C242.383 8.4578 242.302 8.2338 242.302 7.96314C242.302 7.6878 242.383 7.4638 242.547 7.29114C242.715 7.11847 242.941 7.03214 243.226 7.03214C243.515 7.03214 243.741 7.11847 243.905 7.29114C244.068 7.4638 244.15 7.6878 244.15 7.96314C244.15 8.2338 244.068 8.4578 243.905 8.63514C243.741 8.8078 243.515 8.89414 243.226 8.89414ZM242.526 17.1401V10.1401H243.926V17.1401H242.526ZM249.093 17.3081C248.383 17.3081 247.765 17.1518 247.238 16.8391C246.715 16.5218 246.311 16.0878 246.027 15.5371C245.742 14.9818 245.6 14.3495 245.6 13.6401C245.6 12.9261 245.742 12.2938 246.027 11.7431C246.311 11.1925 246.715 10.7608 247.238 10.4481C247.765 10.1308 248.383 9.97214 249.093 9.97214H249.247C249.961 9.97214 250.579 10.1308 251.102 10.4481C251.624 10.7608 252.028 11.1925 252.313 11.7431C252.597 12.2938 252.74 12.9261 252.74 13.6401C252.74 14.3495 252.597 14.9818 252.313 15.5371C252.028 16.0878 251.624 16.5218 251.102 16.8391C250.579 17.1518 249.961 17.3081 249.247 17.3081H249.093ZM249.1 16.0061H249.24C249.879 16.0061 250.381 15.7915 250.745 15.3621C251.109 14.9328 251.291 14.3588 251.291 13.6401C251.291 12.9168 251.109 12.3428 250.745 11.9181C250.381 11.4888 249.879 11.2741 249.24 11.2741H249.1C248.465 11.2741 247.963 11.4888 247.595 11.9181C247.231 12.3428 247.049 12.9168 247.049 13.6401C247.049 14.3588 247.231 14.9328 247.595 15.3621C247.963 15.7915 248.465 16.0061 249.1 16.0061ZM254.406 17.1401V10.1401H255.806V11.3091C256.063 10.8938 256.383 10.5671 256.765 10.3291C257.153 10.0911 257.601 9.97214 258.109 9.97214H258.263C259.038 9.97214 259.645 10.2451 260.083 10.7911C260.527 11.3371 260.748 12.1048 260.748 13.0941V17.1401H259.348V13.2621C259.348 11.9368 258.868 11.2741 257.906 11.2741H257.766C257.29 11.2741 256.884 11.4211 256.548 11.7151C256.217 12.0091 255.97 12.3801 255.806 12.8281V17.1401H254.406Z" fill="white"/>
<path d="M97.5103 166.719V156.919H98.9943V161.091H104.195V156.919H105.679V166.719H104.195V162.505H98.9943V166.719H97.5103ZM108.764 158.473C108.479 158.473 108.253 158.387 108.085 158.214C107.922 158.037 107.84 157.813 107.84 157.542C107.84 157.267 107.922 157.043 108.085 156.87C108.253 156.698 108.479 156.611 108.764 156.611C109.053 156.611 109.28 156.698 109.443 156.87C109.606 157.043 109.688 157.267 109.688 157.542C109.688 157.813 109.606 158.037 109.443 158.214C109.28 158.387 109.053 158.473 108.764 158.473ZM108.064 166.719V159.719H109.464V166.719H108.064ZM114.078 164.605C113.751 164.605 113.443 164.573 113.154 164.507C112.967 164.717 112.874 164.911 112.874 165.088C112.874 165.438 113.147 165.613 113.693 165.613H115.345C116.152 165.613 116.768 165.774 117.193 166.096C117.622 166.418 117.837 166.878 117.837 167.475C117.837 168.222 117.499 168.801 116.822 169.211C116.15 169.622 115.205 169.827 113.987 169.827C112.96 169.827 112.167 169.673 111.607 169.365C111.047 169.062 110.767 168.621 110.767 168.042C110.767 167.333 111.217 166.778 112.118 166.376C111.857 166.129 111.726 165.83 111.726 165.48C111.726 165.037 111.924 164.603 112.321 164.178C111.56 163.726 111.18 163.026 111.18 162.078C111.18 161.327 111.434 160.718 111.943 160.251C112.456 159.785 113.168 159.551 114.078 159.551H114.204C114.54 159.551 114.848 159.586 115.128 159.656C115.413 159.726 115.669 159.827 115.898 159.957C116.173 159.425 116.666 159.159 117.375 159.159C117.538 159.159 117.72 159.178 117.921 159.215V160.356C117.786 160.319 117.669 160.296 117.571 160.286C117.473 160.277 117.389 160.272 117.319 160.272C116.969 160.272 116.71 160.345 116.542 160.489C116.915 160.923 117.102 161.453 117.102 162.078C117.102 162.825 116.845 163.434 116.332 163.905C115.823 164.372 115.114 164.605 114.204 164.605H114.078ZM114.085 163.45H114.197C114.696 163.45 115.079 163.327 115.345 163.079C115.616 162.827 115.751 162.494 115.751 162.078C115.751 161.663 115.616 161.332 115.345 161.084C115.079 160.832 114.696 160.706 114.197 160.706H114.085C113.586 160.706 113.201 160.832 112.93 161.084C112.664 161.332 112.531 161.663 112.531 162.078C112.531 162.494 112.664 162.827 112.93 163.079C113.201 163.327 113.586 163.45 114.085 163.45ZM112.139 167.769C112.139 168.376 112.797 168.679 114.113 168.679C114.878 168.679 115.462 168.577 115.863 168.371C116.264 168.166 116.465 167.893 116.465 167.552C116.465 167.048 116.04 166.796 115.191 166.796H113.301C113.245 166.796 113.189 166.794 113.133 166.789C112.82 166.887 112.575 167.02 112.398 167.188C112.225 167.361 112.139 167.555 112.139 167.769ZM119.179 166.719V156.499H120.579V160.888C120.836 160.473 121.156 160.146 121.538 159.908C121.926 159.67 122.374 159.551 122.882 159.551H123.036C123.844 159.551 124.46 159.824 124.884 160.37C125.309 160.916 125.521 161.684 125.521 162.673V166.719H124.121V162.841C124.121 161.516 123.641 160.853 122.679 160.853H122.539C122.063 160.853 121.657 161 121.321 161.294C120.99 161.588 120.743 161.959 120.579 162.407V166.719H119.179ZM130.87 166.719V156.919H137.842V158.319H132.354V161.203H136.925V162.603H132.354V166.719H130.87ZM139.017 166.719V159.719H140.417V160.783C140.884 159.962 141.526 159.551 142.342 159.551C142.566 159.551 142.769 159.57 142.951 159.607V161.021C142.839 161.007 142.718 160.996 142.587 160.986C142.461 160.977 142.338 160.972 142.216 160.972C141.754 160.972 141.376 161.105 141.082 161.371C140.788 161.637 140.567 162.001 140.417 162.463V166.719H139.017ZM147.297 166.887C146.625 166.887 146.035 166.733 145.526 166.425C145.022 166.117 144.628 165.688 144.343 165.137C144.063 164.587 143.923 163.95 143.923 163.226C143.923 162.503 144.063 161.866 144.343 161.315C144.628 160.76 145.022 160.328 145.526 160.02C146.035 159.708 146.625 159.551 147.297 159.551H147.451C148.063 159.551 148.599 159.703 149.061 160.006C149.528 160.305 149.892 160.739 150.153 161.308C150.415 161.873 150.545 162.554 150.545 163.352V163.779H145.372C145.456 164.353 145.671 164.806 146.016 165.137C146.366 165.464 146.821 165.627 147.381 165.627H147.521C147.857 165.627 148.179 165.56 148.487 165.424C148.795 165.284 149.054 165.098 149.264 164.864L150.125 165.774C149.808 166.115 149.416 166.386 148.949 166.586C148.487 166.787 147.988 166.887 147.451 166.887H147.297ZM147.255 160.811C146.756 160.811 146.338 160.977 146.002 161.308C145.671 161.635 145.461 162.083 145.372 162.652H149.138C149.096 162.134 148.926 161.698 148.627 161.343C148.333 160.989 147.923 160.811 147.395 160.811H147.255ZM154.892 166.887C154.272 166.887 153.728 166.731 153.261 166.418C152.799 166.101 152.44 165.667 152.183 165.116C151.927 164.561 151.798 163.929 151.798 163.219C151.798 162.51 151.927 161.88 152.183 161.329C152.44 160.774 152.799 160.34 153.261 160.027C153.728 159.71 154.272 159.551 154.892 159.551H155.046C155.508 159.551 155.935 159.652 156.327 159.852C156.724 160.048 157.051 160.342 157.307 160.734V159.719H158.707V169.659H157.307V165.62C157.065 166.04 156.747 166.358 156.355 166.572C155.963 166.782 155.527 166.887 155.046 166.887H154.892ZM155.242 165.592H155.382C155.798 165.592 156.171 165.469 156.502 165.221C156.838 164.974 157.107 164.636 157.307 164.206V162.232C157.107 161.803 156.838 161.465 156.502 161.217C156.171 160.97 155.798 160.846 155.382 160.846H155.242C154.631 160.846 154.146 161.052 153.786 161.462C153.427 161.873 153.247 162.459 153.247 163.219C153.247 163.98 153.427 164.566 153.786 164.976C154.146 165.387 154.631 165.592 155.242 165.592ZM163.135 166.887C162.328 166.887 161.712 166.614 161.287 166.068C160.863 165.522 160.65 164.755 160.65 163.765V159.719H162.05V163.597C162.05 164.923 162.531 165.585 163.492 165.585H163.632C164.108 165.585 164.512 165.438 164.843 165.144C165.179 164.85 165.429 164.479 165.592 164.031V159.719H166.992V166.719H165.592V165.55C165.336 165.966 165.014 166.292 164.626 166.53C164.244 166.768 163.798 166.887 163.289 166.887H163.135ZM172.043 166.887C171.371 166.887 170.781 166.733 170.272 166.425C169.768 166.117 169.374 165.688 169.089 165.137C168.809 164.587 168.669 163.95 168.669 163.226C168.669 162.503 168.809 161.866 169.089 161.315C169.374 160.76 169.768 160.328 170.272 160.02C170.781 159.708 171.371 159.551 172.043 159.551H172.197C172.809 159.551 173.345 159.703 173.807 160.006C174.274 160.305 174.638 160.739 174.899 161.308C175.161 161.873 175.291 162.554 175.291 163.352V163.779H170.118C170.202 164.353 170.417 164.806 170.762 165.137C171.112 165.464 171.567 165.627 172.127 165.627H172.267C172.603 165.627 172.925 165.56 173.233 165.424C173.541 165.284 173.8 165.098 174.01 164.864L174.871 165.774C174.554 166.115 174.162 166.386 173.695 166.586C173.233 166.787 172.734 166.887 172.197 166.887H172.043ZM172.001 160.811C171.502 160.811 171.084 160.977 170.748 161.308C170.417 161.635 170.207 162.083 170.118 162.652H173.884C173.842 162.134 173.672 161.698 173.373 161.343C173.079 160.989 172.669 160.811 172.141 160.811H172.001ZM176.929 166.719V159.719H178.329V160.888C178.586 160.473 178.906 160.146 179.288 159.908C179.676 159.67 180.124 159.551 180.632 159.551H180.786C181.561 159.551 182.168 159.824 182.606 160.37C183.05 160.916 183.271 161.684 183.271 162.673V166.719H181.871V162.841C181.871 161.516 181.391 160.853 180.429 160.853H180.289C179.813 160.853 179.407 161 179.071 161.294C178.74 161.588 178.493 161.959 178.329 162.407V166.719H176.929ZM188.267 166.887C187.595 166.887 187 166.74 186.482 166.446C185.964 166.152 185.558 165.732 185.264 165.186C184.974 164.636 184.83 163.982 184.83 163.226C184.83 162.466 184.974 161.812 185.264 161.266C185.553 160.716 185.954 160.293 186.468 159.999C186.986 159.701 187.585 159.551 188.267 159.551H188.421C188.962 159.551 189.473 159.691 189.954 159.971C190.439 160.247 190.831 160.627 191.13 161.112L190.045 161.868C189.844 161.551 189.604 161.304 189.324 161.126C189.044 160.944 188.726 160.853 188.372 160.853H188.232C187.625 160.853 187.147 161.068 186.797 161.497C186.451 161.922 186.279 162.496 186.279 163.219C186.279 163.938 186.451 164.512 186.797 164.941C187.147 165.371 187.625 165.585 188.232 165.585H188.372C188.726 165.585 189.053 165.506 189.352 165.347C189.65 165.189 189.907 164.976 190.122 164.71L191.13 165.564C190.817 165.975 190.423 166.299 189.947 166.537C189.475 166.771 188.967 166.887 188.421 166.887H188.267ZM192.937 169.827C192.736 169.827 192.547 169.811 192.37 169.778V168.518C192.519 168.542 192.65 168.553 192.762 168.553C193.252 168.553 193.651 168.413 193.959 168.133C194.267 167.858 194.537 167.452 194.771 166.915C194.197 165.763 193.658 164.582 193.154 163.373C192.65 162.165 192.169 160.947 191.712 159.719H193.336C193.634 160.657 193.956 161.595 194.302 162.533C194.652 163.467 195.023 164.391 195.415 165.305L197.326 159.719H198.852L196.115 166.936C195.765 167.86 195.349 168.572 194.869 169.071C194.388 169.575 193.744 169.827 192.937 169.827ZM206.25 166.719C205.807 165.763 205.363 164.731 204.92 163.625C204.477 162.515 204.057 161.388 203.66 160.244C203.268 159.096 202.925 157.988 202.631 156.919H204.262C204.5 157.811 204.775 158.751 205.088 159.74C205.401 160.73 205.732 161.712 206.082 162.687C206.437 163.658 206.791 164.563 207.146 165.403C207.501 164.563 207.858 163.658 208.217 162.687C208.581 161.712 208.922 160.73 209.239 159.74C209.556 158.751 209.827 157.811 210.051 156.919H211.633C211.339 157.988 210.994 159.096 210.597 160.244C210.205 161.388 209.787 162.515 209.344 163.625C208.901 164.731 208.457 165.763 208.014 166.719H206.25ZM213.75 158.473C213.466 158.473 213.239 158.387 213.071 158.214C212.908 158.037 212.826 157.813 212.826 157.542C212.826 157.267 212.908 157.043 213.071 156.87C213.239 156.698 213.466 156.611 213.75 156.611C214.04 156.611 214.266 156.698 214.429 156.87C214.593 157.043 214.674 157.267 214.674 157.542C214.674 157.813 214.593 158.037 214.429 158.214C214.266 158.387 214.04 158.473 213.75 158.473ZM213.05 166.719V159.719H214.45V166.719H213.05ZM216.509 166.719V156.499H217.909V160.818C218.152 160.398 218.469 160.083 218.861 159.873C219.253 159.659 219.69 159.551 220.17 159.551H220.324C220.945 159.551 221.486 159.71 221.948 160.027C222.415 160.34 222.777 160.774 223.033 161.329C223.29 161.88 223.418 162.51 223.418 163.219C223.418 163.929 223.29 164.561 223.033 165.116C222.777 165.667 222.415 166.101 221.948 166.418C221.486 166.731 220.945 166.887 220.324 166.887H220.17C219.708 166.887 219.279 166.789 218.882 166.593C218.49 166.393 218.166 166.096 217.909 165.704V166.719H216.509ZM219.834 165.592H219.974C220.586 165.592 221.071 165.387 221.43 164.976C221.79 164.566 221.969 163.98 221.969 163.219C221.969 162.459 221.79 161.873 221.43 161.462C221.071 161.052 220.586 160.846 219.974 160.846H219.834C219.419 160.846 219.043 160.97 218.707 161.217C218.376 161.465 218.11 161.803 217.909 162.232V164.206C218.11 164.636 218.376 164.974 218.707 165.221C219.043 165.469 219.419 165.592 219.834 165.592ZM225.095 166.719V159.719H226.495V160.783C226.962 159.962 227.604 159.551 228.42 159.551C228.644 159.551 228.847 159.57 229.029 159.607V161.021C228.917 161.007 228.796 160.996 228.665 160.986C228.539 160.977 228.416 160.972 228.294 160.972C227.832 160.972 227.454 161.105 227.16 161.371C226.866 161.637 226.645 162.001 226.495 162.463V166.719H225.095ZM232.29 166.859C231.553 166.859 230.979 166.67 230.568 166.292C230.162 165.91 229.959 165.408 229.959 164.787C229.959 164.171 230.188 163.656 230.645 163.24C231.107 162.825 231.842 162.617 232.85 162.617H234.754V162.596C234.754 161.42 234.213 160.832 233.13 160.832C232.678 160.832 232.295 160.914 231.982 161.077C231.674 161.241 231.425 161.469 231.233 161.763L230.274 160.986C230.573 160.524 230.965 160.17 231.45 159.922C231.94 159.675 232.496 159.551 233.116 159.551H233.27C234.129 159.551 234.82 159.799 235.342 160.293C235.865 160.788 236.126 161.528 236.126 162.512V166.719H234.782V165.578C234.512 165.989 234.164 166.306 233.739 166.53C233.315 166.75 232.832 166.859 232.29 166.859ZM232.598 165.613C233.14 165.613 233.59 165.492 233.949 165.249C234.309 165.002 234.577 164.668 234.754 164.248V163.716H232.906C232.356 163.716 231.961 163.805 231.723 163.982C231.49 164.155 231.373 164.391 231.373 164.689C231.373 165.305 231.782 165.613 232.598 165.613ZM241.22 166.81C240.389 166.81 239.757 166.6 239.323 166.18C238.889 165.76 238.672 165.114 238.672 164.241V160.937H237.3V159.719H238.672V157.633H240.072V159.719H242.431V160.937H240.072V164.052C240.072 164.603 240.186 164.986 240.415 165.2C240.644 165.415 240.982 165.522 241.43 165.522C241.645 165.522 241.836 165.513 242.004 165.494C242.177 165.476 242.354 165.452 242.536 165.424V166.649C242.349 166.696 242.139 166.733 241.906 166.761C241.673 166.794 241.444 166.81 241.22 166.81ZM244.676 158.473C244.392 158.473 244.165 158.387 243.997 158.214C243.834 158.037 243.752 157.813 243.752 157.542C243.752 157.267 243.834 157.043 243.997 156.87C244.165 156.698 244.392 156.611 244.676 156.611C244.966 156.611 245.192 156.698 245.355 156.87C245.519 157.043 245.6 157.267 245.6 157.542C245.6 157.813 245.519 158.037 245.355 158.214C245.192 158.387 244.966 158.473 244.676 158.473ZM243.976 166.719V159.719H245.376V166.719H243.976ZM250.543 166.887C249.834 166.887 249.216 166.731 248.688 166.418C248.166 166.101 247.762 165.667 247.477 165.116C247.193 164.561 247.05 163.929 247.05 163.219C247.05 162.505 247.193 161.873 247.477 161.322C247.762 160.772 248.166 160.34 248.688 160.027C249.216 159.71 249.834 159.551 250.543 159.551H250.697C251.411 159.551 252.03 159.71 252.552 160.027C253.075 160.34 253.479 160.772 253.763 161.322C254.048 161.873 254.19 162.505 254.19 163.219C254.19 163.929 254.048 164.561 253.763 165.116C253.479 165.667 253.075 166.101 252.552 166.418C252.03 166.731 251.411 166.887 250.697 166.887H250.543ZM250.55 165.585H250.69C251.33 165.585 251.831 165.371 252.195 164.941C252.559 164.512 252.741 163.938 252.741 163.219C252.741 162.496 252.559 161.922 252.195 161.497C251.831 161.068 251.33 160.853 250.69 160.853H250.55C249.916 160.853 249.414 161.068 249.045 161.497C248.681 161.922 248.499 162.496 248.499 163.219C248.499 163.938 248.681 164.512 249.045 164.941C249.414 165.371 249.916 165.585 250.55 165.585ZM255.857 166.719V159.719H257.257V160.888C257.514 160.473 257.833 160.146 258.216 159.908C258.603 159.67 259.051 159.551 259.56 159.551H259.714C260.489 159.551 261.095 159.824 261.534 160.37C261.977 160.916 262.199 161.684 262.199 162.673V166.719H260.799V162.841C260.799 161.516 260.318 160.853 259.357 160.853H259.217C258.741 160.853 258.335 161 257.999 161.294C257.668 161.588 257.42 161.959 257.257 162.407V166.719H255.857Z" fill="white"/>
<path d="M26.56 71.0301L44.19 70.9901C49.35 71.0301 48.98 36.0001 51.71 36.0001C55.99 36.0001 61.3 106.13 66.75 106.06C72.2 105.99 76.33 36.0001 81.79 36.0001C84.52 36.0001 86.93 53.4901 89.31 70.9901V71.0701C91.69 88.5601 94.1 106.06 96.83 106.06C102.29 106.06 106.42 36.0801 111.87 36.0001C117.32 35.9201 121.46 106.06 126.91 106.06C129.64 106.06 132.02 88.5701 134.43 71.0701V70.9901C136.84 53.5001 139.22 36.0001 141.95 36.0001C147.41 36.0001 151.54 106.13 156.99 106.06C162.45 105.98 166.58 36.0001 172.03 36.0001C174.76 36.0001 177.17 53.4901 179.55 70.9901V71.0701C181.93 88.5601 184.34 106.06 187.07 106.06C192.53 106.06 196.66 36.0801 202.11 36.0001C207.56 35.9201 211.7 106.06 217.15 106.06C219.88 106.06 222.26 88.5701 224.67 71.0701V70.9901C227.09 53.4901 229.47 36.0001 232.2 36.0001C237.66 36.0001 241.79 106.13 247.24 106.06C252.69 105.99 256.83 36.0001 262.28 36.0001C265.01 36.0001 267.42 53.4901 269.8 70.9901V71.0701C272.18 88.5601 274.59 106.06 277.32 106.06C282.78 106.06 286.91 36.0801 292.36 36.0001C297.81 35.9201 301.95 106.06 307.4 106.06C310.13 106.06 307.79 71.0701 316.72 70.9801L333.43 71.0401" stroke="#CCCCCC" stroke-width="1.5417" stroke-linecap="round"/>
<path d="M26.56 221.79L33.96 221.75C36.13 221.79 35.97 186.76 37.12 186.76C38.92 186.76 41.14 256.89 43.43 256.82C45.72 256.74 47.45 186.76 49.74 186.76C52.03 186.68 53.76 256.82 56.05 256.82C57.19 256.82 58.19 239.33 59.21 221.83V221.75C60.22 204.26 61.22 186.76 62.37 186.76C64.66 186.76 66.39 256.89 68.68 256.82C70.97 256.74 72.7 186.76 74.99 186.76C76.13 186.76 77.15 204.25 78.15 221.75V221.83C79.15 239.32 80.16 256.82 81.31 256.82C83.6 256.82 85.33 186.84 87.62 186.76C89.91 186.68 91.64 256.82 93.93 256.82C95.07 256.82 96.07 239.33 97.09 221.83V221.75C98.1 204.26 99.1 186.76 100.25 186.76C102.54 186.76 104.27 256.89 106.56 256.82C108.85 256.74 110.58 186.76 112.87 186.76C114.01 186.76 115.03 204.25 116.03 221.75V221.83C117.03 239.32 118.04 256.82 119.19 256.82C121.48 256.82 123.21 186.84 125.5 186.76C127.79 186.68 129.52 256.82 131.81 256.82C132.95 256.82 133.95 239.33 134.97 221.83V221.75C135.98 204.26 136.98 186.76 138.13 186.76C140.42 186.76 142.15 256.89 144.44 256.82C146.73 256.74 148.46 186.76 150.75 186.76C151.89 186.76 152.91 204.25 153.91 221.75V221.83C154.91 239.32 155.92 256.82 157.07 256.82C159.36 256.82 161.09 186.84 163.38 186.76C165.67 186.68 167.4 256.82 169.69 256.82C170.83 256.82 171.83 239.33 172.85 221.83V221.75C173.86 204.26 174.86 186.76 176.01 186.76C178.3 186.76 180.03 256.89 182.32 256.82C184.61 256.74 186.34 186.76 188.63 186.76C189.77 186.76 190.79 204.25 191.79 221.75V221.83C192.79 239.32 193.8 256.82 194.95 256.82C197.24 256.82 198.97 186.84 201.26 186.76C203.55 186.68 205.28 256.82 207.57 256.82C208.71 256.82 209.71 239.33 210.73 221.83V221.75C211.74 204.26 212.74 186.76 213.89 186.76C216.18 186.76 217.91 256.89 220.2 256.82C222.49 256.74 224.22 186.76 226.51 186.76C227.65 186.76 228.67 204.25 229.67 221.75V221.83C230.67 239.32 231.68 256.82 232.83 256.82C235.12 256.82 236.85 186.84 239.14 186.76C241.43 186.68 243.16 256.82 245.45 256.82C246.59 256.82 247.59 239.33 248.61 221.83V221.75C249.62 204.26 250.62 186.76 251.77 186.76C254.06 186.76 255.79 256.89 258.08 256.82C260.37 256.74 262.1 186.76 264.39 186.76C265.53 186.76 266.55 204.25 267.55 221.75V221.83C268.55 239.32 269.56 256.82 270.71 256.82C273 256.82 274.73 186.84 277.02 186.76C279.31 186.68 281.04 256.82 283.33 256.82C284.47 256.82 285.47 239.33 286.49 221.83V221.75C287.5 204.26 288.5 186.76 289.65 186.76C291.94 186.76 293.67 256.89 295.96 256.82C298.25 256.74 299.98 186.76 302.27 186.76C303.41 186.76 304.43 204.25 305.43 221.75V221.83C306.43 239.32 307.44 256.82 308.59 256.82C310.88 256.82 312.61 186.84 314.9 186.76C317.19 186.68 318.92 256.82 321.21 256.82C322.35 256.82 321.37 221.83 325.12 221.74L332.13 221.8" stroke="#CCCCCC" stroke-width="0.9986" stroke-linecap="round"/>
</svg>
