<svg width="360" height="120" viewBox="0 0 360 120" fill="none" xmlns="http://www.w3.org/2000/svg">
<path opacity="0.49" d="M19 104.03H135" stroke="#F2F2F2" stroke-miterlimit="10"/>
<path d="M19 104.03L77 38.5L135 104.5" fill="url(#paint0_linear_396_35350)"/>
<path d="M19 104.03L77 38.5L135 104.5" stroke="#FF66BF" stroke-miterlimit="10"/>
<path d="M19 108.03C21.2091 108.03 23 106.239 23 104.03C23 101.821 21.2091 100.03 19 100.03C16.7909 100.03 15 101.821 15 104.03C15 106.239 16.7909 108.03 19 108.03Z" fill="#242526" stroke="#FF66BF" stroke-miterlimit="10"/>
<path d="M135 108.03C137.209 108.03 139 106.239 139 104.03C139 101.821 137.209 100.03 135 100.03C132.791 100.03 131 101.821 131 104.03C131 106.239 132.791 108.03 135 108.03Z" fill="#242526" stroke="#FF66BF" stroke-miterlimit="10"/>
<path d="M77 42.5C79.2091 42.5 81 40.7091 81 38.5C81 36.2909 79.2091 34.5 77 34.5C74.7909 34.5 73 36.2909 73 38.5C73 40.7091 74.7909 42.5 77 42.5Z" fill="#242526" stroke="#FF66BF" stroke-miterlimit="10"/>
<path d="M47.7633 17V7.2H54.8683V8.586H49.2333V11.4H53.8603V12.786H49.2333V15.614H54.9873V17H47.7633ZM56.8952 17V10H58.2952V11.169C58.5519 10.7537 58.8715 10.427 59.2542 10.189C59.6415 9.951 60.0895 9.832 60.5982 9.832H60.7522C61.5269 9.832 62.1335 10.105 62.5722 10.651C63.0155 11.197 63.2372 11.9647 63.2372 12.954V17H61.8372V13.122C61.8372 11.7967 61.3565 11.134 60.3952 11.134H60.2552C59.7792 11.134 59.3732 11.281 59.0372 11.575C58.7059 11.869 58.4585 12.24 58.2952 12.688V17H56.8952ZM67.0803 17C66.5763 15.866 66.0957 14.711 65.6383 13.535C65.1857 12.3543 64.7657 11.176 64.3783 10H65.9603C66.245 10.966 66.5553 11.9343 66.8913 12.905C67.232 13.8757 67.5913 14.837 67.9693 15.789C68.3473 14.837 68.7043 13.8757 69.0403 12.905C69.381 11.9343 69.6937 10.966 69.9783 10H71.5043C71.117 11.176 70.6947 12.3543 70.2373 13.535C69.7847 14.711 69.3063 15.866 68.8023 17H67.0803ZM75.5112 17.168C74.8392 17.168 74.2488 17.014 73.7402 16.706C73.2362 16.398 72.8418 15.9687 72.5572 15.418C72.2772 14.8673 72.1372 14.2303 72.1372 13.507C72.1372 12.7837 72.2772 12.1467 72.5572 11.596C72.8418 11.0407 73.2362 10.609 73.7402 10.301C74.2488 9.98833 74.8392 9.832 75.5112 9.832H75.6652C76.2765 9.832 76.8132 9.98367 77.2752 10.287C77.7418 10.5857 78.1058 11.0197 78.3672 11.589C78.6285 12.1537 78.7592 12.835 78.7592 13.633V14.06H73.5862C73.6702 14.634 73.8848 15.0867 74.2302 15.418C74.5802 15.7447 75.0352 15.908 75.5952 15.908H75.7352C76.0712 15.908 76.3932 15.8403 76.7012 15.705C77.0092 15.565 77.2682 15.3783 77.4782 15.145L78.3392 16.055C78.0218 16.3957 77.6298 16.6663 77.1632 16.867C76.7012 17.0677 76.2018 17.168 75.6652 17.168H75.5112ZM75.4692 11.092C74.9698 11.092 74.5522 11.2577 74.2162 11.589C73.8848 11.9157 73.6748 12.3637 73.5862 12.933H77.3522C77.3102 12.415 77.1398 11.9787 76.8412 11.624C76.5472 11.2693 76.1365 11.092 75.6092 11.092H75.4692ZM80.3972 17V6.78H81.7972V17H80.3972ZM86.9641 17.168C86.2548 17.168 85.6365 17.0117 85.1091 16.699C84.5865 16.3817 84.1828 15.9477 83.8981 15.397C83.6135 14.8417 83.4711 14.2093 83.4711 13.5C83.4711 12.786 83.6135 12.1537 83.8981 11.603C84.1828 11.0523 84.5865 10.6207 85.1091 10.308C85.6365 9.99067 86.2548 9.832 86.9641 9.832H87.1181C87.8321 9.832 88.4505 9.99067 88.9731 10.308C89.4958 10.6207 89.8995 11.0523 90.1841 11.603C90.4688 12.1537 90.6111 12.786 90.6111 13.5C90.6111 14.2093 90.4688 14.8417 90.1841 15.397C89.8995 15.9477 89.4958 16.3817 88.9731 16.699C88.4505 17.0117 87.8321 17.168 87.1181 17.168H86.9641ZM86.9711 15.866H87.1111C87.7505 15.866 88.2521 15.6513 88.6161 15.222C88.9801 14.7927 89.1621 14.2187 89.1621 13.5C89.1621 12.7767 88.9801 12.2027 88.6161 11.778C88.2521 11.3487 87.7505 11.134 87.1111 11.134H86.9711C86.3365 11.134 85.8348 11.3487 85.4661 11.778C85.1021 12.2027 84.9201 12.7767 84.9201 13.5C84.9201 14.2187 85.1021 14.7927 85.4661 15.222C85.8348 15.6513 86.3365 15.866 86.9711 15.866ZM92.278 19.94V10H93.678V11.099C93.9207 10.679 94.238 10.364 94.63 10.154C95.022 9.93933 95.4584 9.832 95.939 9.832H96.093C96.7137 9.832 97.255 9.99067 97.717 10.308C98.1837 10.6207 98.5454 11.0547 98.802 11.61C99.0587 12.1607 99.187 12.7907 99.187 13.5C99.187 14.2093 99.0587 14.8417 98.802 15.397C98.5454 15.9477 98.1837 16.3817 97.717 16.699C97.255 17.0117 96.7137 17.168 96.093 17.168H95.939C95.477 17.168 95.0477 17.07 94.651 16.874C94.259 16.6733 93.9347 16.377 93.678 15.985V19.94H92.278ZM95.603 15.873H95.743C96.3544 15.873 96.8397 15.6677 97.199 15.257C97.5584 14.8463 97.738 14.2607 97.738 13.5C97.738 12.7393 97.5584 12.1537 97.199 11.743C96.8397 11.3323 96.3544 11.127 95.743 11.127H95.603C95.1877 11.127 94.812 11.2507 94.476 11.498C94.1447 11.7453 93.8787 12.0837 93.678 12.513V14.487C93.8787 14.9163 94.1447 15.2547 94.476 15.502C94.812 15.7493 95.1877 15.873 95.603 15.873ZM103.853 17.168C103.181 17.168 102.591 17.014 102.082 16.706C101.578 16.398 101.184 15.9687 100.899 15.418C100.619 14.8673 100.479 14.2303 100.479 13.507C100.479 12.7837 100.619 12.1467 100.899 11.596C101.184 11.0407 101.578 10.609 102.082 10.301C102.591 9.98833 103.181 9.832 103.853 9.832H104.007C104.618 9.832 105.155 9.98367 105.617 10.287C106.084 10.5857 106.448 11.0197 106.709 11.589C106.97 12.1537 107.101 12.835 107.101 13.633V14.06H101.928C102.012 14.634 102.227 15.0867 102.572 15.418C102.922 15.7447 103.377 15.908 103.937 15.908H104.077C104.413 15.908 104.735 15.8403 105.043 15.705C105.351 15.565 105.61 15.3783 105.82 15.145L106.681 16.055C106.364 16.3957 105.972 16.6663 105.505 16.867C105.043 17.0677 104.544 17.168 104.007 17.168H103.853ZM103.811 11.092C103.312 11.092 102.894 11.2577 102.558 11.589C102.227 11.9157 102.017 12.3637 101.928 12.933H105.694C105.652 12.415 105.482 11.9787 105.183 11.624C104.889 11.2693 104.478 11.092 103.951 11.092H103.811Z" fill="white"/>
<path d="M241.057 17C240.614 16.0433 240.171 15.012 239.727 13.906C239.284 12.7953 238.864 11.6683 238.467 10.525C238.075 9.377 237.732 8.26867 237.438 7.2H239.069C239.307 8.09133 239.583 9.03167 239.895 10.021C240.208 11.0103 240.539 11.9927 240.889 12.968C241.244 13.9387 241.599 14.844 241.953 15.684C242.308 14.844 242.665 13.9387 243.024 12.968C243.388 11.9927 243.729 11.0103 244.046 10.021C244.364 9.03167 244.634 8.09133 244.858 7.2H246.44C246.146 8.26867 245.801 9.377 245.404 10.525C245.012 11.6683 244.595 12.7953 244.151 13.906C243.708 15.012 243.265 16.0433 242.821 17H241.057ZM248.558 8.754C248.273 8.754 248.047 8.66767 247.879 8.495C247.715 8.31767 247.634 8.09367 247.634 7.823C247.634 7.54767 247.715 7.32367 247.879 7.151C248.047 6.97833 248.273 6.892 248.558 6.892C248.847 6.892 249.073 6.97833 249.237 7.151C249.4 7.32367 249.482 7.54767 249.482 7.823C249.482 8.09367 249.4 8.31767 249.237 8.495C249.073 8.66767 248.847 8.754 248.558 8.754ZM247.858 17V10H249.258V17H247.858ZM251.317 17V6.78H252.717V11.099C252.959 10.679 253.277 10.364 253.669 10.154C254.061 9.93933 254.497 9.832 254.978 9.832H255.132C255.752 9.832 256.294 9.99067 256.756 10.308C257.222 10.6207 257.584 11.0547 257.841 11.61C258.097 12.1607 258.226 12.7907 258.226 13.5C258.226 14.2093 258.097 14.8417 257.841 15.397C257.584 15.9477 257.222 16.3817 256.756 16.699C256.294 17.0117 255.752 17.168 255.132 17.168H254.978C254.516 17.168 254.086 17.07 253.69 16.874C253.298 16.6733 252.973 16.377 252.717 15.985V17H251.317ZM254.642 15.873H254.782C255.393 15.873 255.878 15.6677 256.238 15.257C256.597 14.8463 256.777 14.2607 256.777 13.5C256.777 12.7393 256.597 12.1537 256.238 11.743C255.878 11.3323 255.393 11.127 254.782 11.127H254.642C254.226 11.127 253.851 11.2507 253.515 11.498C253.183 11.7453 252.917 12.0837 252.717 12.513V14.487C252.917 14.9163 253.183 15.2547 253.515 15.502C253.851 15.7493 254.226 15.873 254.642 15.873ZM259.903 17V10H261.303V11.064C261.769 10.2427 262.411 9.832 263.228 9.832C263.452 9.832 263.655 9.85067 263.837 9.888V11.302C263.725 11.288 263.603 11.2763 263.473 11.267C263.347 11.2577 263.223 11.253 263.102 11.253C262.64 11.253 262.262 11.386 261.968 11.652C261.674 11.918 261.452 12.282 261.303 12.744V17H259.903ZM267.043 17.14C266.306 17.14 265.732 16.951 265.321 16.573C264.915 16.1903 264.712 15.6887 264.712 15.068C264.712 14.452 264.941 13.9363 265.398 13.521C265.86 13.1057 266.595 12.898 267.603 12.898H269.507V12.877C269.507 11.701 268.966 11.113 267.883 11.113C267.43 11.113 267.048 11.1947 266.735 11.358C266.427 11.5213 266.177 11.75 265.986 12.044L265.027 11.267C265.326 10.805 265.718 10.4503 266.203 10.203C266.693 9.95567 267.248 9.832 267.869 9.832H268.023C268.882 9.832 269.572 10.0793 270.095 10.574C270.618 11.0687 270.879 11.8083 270.879 12.793V17H269.535V15.859C269.264 16.2697 268.917 16.587 268.492 16.811C268.067 17.0303 267.584 17.14 267.043 17.14ZM267.351 15.894C267.892 15.894 268.343 15.7727 268.702 15.53C269.061 15.2827 269.33 14.949 269.507 14.529V13.997H267.659C267.108 13.997 266.714 14.0857 266.476 14.263C266.243 14.4357 266.126 14.6713 266.126 14.97C266.126 15.586 266.534 15.894 267.351 15.894ZM275.973 17.091C275.142 17.091 274.51 16.881 274.076 16.461C273.642 16.041 273.425 15.3947 273.425 14.522V11.218H272.053V10H273.425V7.914H274.825V10H277.184V11.218H274.825V14.333C274.825 14.8837 274.939 15.2663 275.168 15.481C275.396 15.6957 275.735 15.803 276.183 15.803C276.397 15.803 276.589 15.7937 276.757 15.775C276.929 15.7563 277.107 15.733 277.289 15.705V16.93C277.102 16.9767 276.892 17.014 276.659 17.042C276.425 17.0747 276.197 17.091 275.973 17.091ZM279.429 8.754C279.144 8.754 278.918 8.66767 278.75 8.495C278.586 8.31767 278.505 8.09367 278.505 7.823C278.505 7.54767 278.586 7.32367 278.75 7.151C278.918 6.97833 279.144 6.892 279.429 6.892C279.718 6.892 279.944 6.97833 280.108 7.151C280.271 7.32367 280.353 7.54767 280.353 7.823C280.353 8.09367 280.271 8.31767 280.108 8.495C279.944 8.66767 279.718 8.754 279.429 8.754ZM278.729 17V10H280.129V17H278.729ZM285.296 17.168C284.586 17.168 283.968 17.0117 283.441 16.699C282.918 16.3817 282.514 15.9477 282.23 15.397C281.945 14.8417 281.803 14.2093 281.803 13.5C281.803 12.786 281.945 12.1537 282.23 11.603C282.514 11.0523 282.918 10.6207 283.441 10.308C283.968 9.99067 284.586 9.832 285.296 9.832H285.45C286.164 9.832 286.782 9.99067 287.305 10.308C287.827 10.6207 288.231 11.0523 288.516 11.603C288.8 12.1537 288.943 12.786 288.943 13.5C288.943 14.2093 288.8 14.8417 288.516 15.397C288.231 15.9477 287.827 16.3817 287.305 16.699C286.782 17.0117 286.164 17.168 285.45 17.168H285.296ZM285.303 15.866H285.443C286.082 15.866 286.584 15.6513 286.948 15.222C287.312 14.7927 287.494 14.2187 287.494 13.5C287.494 12.7767 287.312 12.2027 286.948 11.778C286.584 11.3487 286.082 11.134 285.443 11.134H285.303C284.668 11.134 284.166 11.3487 283.798 11.778C283.434 12.2027 283.252 12.7767 283.252 13.5C283.252 14.2187 283.434 14.7927 283.798 15.222C284.166 15.6513 284.668 15.866 285.303 15.866ZM290.61 17V10H292.01V11.169C292.266 10.7537 292.586 10.427 292.969 10.189C293.356 9.951 293.804 9.832 294.313 9.832H294.467C295.241 9.832 295.848 10.105 296.287 10.651C296.73 11.197 296.952 11.9647 296.952 12.954V17H295.552V13.122C295.552 11.7967 295.071 11.134 294.11 11.134H293.97C293.494 11.134 293.088 11.281 292.752 11.575C292.42 11.869 292.173 12.24 292.01 12.688V17H290.61Z" fill="white"/>
<path d="M329.48 71.2601L327.53 71.3001C325.77 71.2601 321.35 106.29 316.89 106.29C311.65 106.29 308.41 36.2301 303.69 36.2301C299.52 36.2301 299.52 106.29 294.53 106.29C289.01 106.29 289.01 36.3401 285.37 36.2301C281.73 36.1201 280.49 106.21 278.64 106.29C276.79 106.37 275.38 36.2301 273.53 36.2301C272.6 36.2301 271.79 53.7201 270.97 71.2201V71.3001C270.15 88.7901 269.34 106.29 268.41 106.29C266.55 106.29 266.77 36.1601 264.91 36.2301C263.98 36.2301 262.34 106.29 261.41 106.29C259.55 106.29 258.15 36.1601 256.3 36.2301C254.44 36.3101 253.21 106.4 249.57 106.29C245.94 106.18 245.94 36.2301 240.41 36.2301C235.42 36.2301 235.42 106.29 231.25 106.29C226.53 106.29 223.3 36.2301 218.05 36.2301C213.59 36.2301 209.17 71.2601 207.41 71.2201L205.46 71.2601" stroke="#CCCCCC" stroke-width="0.899" stroke-linecap="round"/>
<defs>
<linearGradient id="paint0_linear_396_35350" x1="77" y1="38.5" x2="77" y2="104.5" gradientUnits="userSpaceOnUse">
<stop stop-color="#FF66BF"/>
<stop offset="1" stop-color="#FF66BF" stop-opacity="0"/>
</linearGradient>
</defs>
</svg>
