<svg width="360" height="279" viewBox="0 0 360 279" fill="none" xmlns="http://www.w3.org/2000/svg">
<path d="M119.353 24.3081C118.429 24.3081 117.622 24.1051 116.931 23.6991C116.241 23.2885 115.704 22.7098 115.321 21.9631C114.943 21.2165 114.754 20.3368 114.754 19.3241C114.754 18.3068 114.943 17.4131 115.321 16.6431C115.704 15.8685 116.241 15.2641 116.931 14.8301C117.622 14.3915 118.429 14.1721 119.353 14.1721H119.563C120.473 14.1721 121.25 14.3821 121.894 14.8021C122.543 15.2175 123.054 15.7751 123.427 16.4751L122.174 17.2031C121.913 16.7038 121.561 16.3048 121.117 16.0061C120.679 15.7075 120.154 15.5581 119.542 15.5581H119.346C118.768 15.5581 118.247 15.7051 117.785 15.9991C117.328 16.2931 116.964 16.7178 116.693 17.2731C116.427 17.8285 116.294 18.5005 116.294 19.2891C116.294 20.0778 116.427 20.7428 116.693 21.2841C116.964 21.8208 117.328 22.2291 117.785 22.5091C118.247 22.7845 118.768 22.9221 119.346 22.9221H119.542C120.158 22.9221 120.681 22.7868 121.11 22.5161C121.54 22.2408 121.89 21.8628 122.16 21.3821L123.406 22.1241C123.024 22.7915 122.513 23.3235 121.873 23.7201C121.234 24.1121 120.464 24.3081 119.563 24.3081H119.353ZM128.061 24.3081C127.352 24.3081 126.734 24.1518 126.206 23.8391C125.684 23.5218 125.28 23.0878 124.995 22.5371C124.711 21.9818 124.568 21.3495 124.568 20.6401C124.568 19.9261 124.711 19.2938 124.995 18.7431C125.28 18.1925 125.684 17.7608 126.206 17.4481C126.734 17.1308 127.352 16.9721 128.061 16.9721H128.215C128.929 16.9721 129.548 17.1308 130.07 17.4481C130.593 17.7608 130.997 18.1925 131.281 18.7431C131.566 19.2938 131.708 19.9261 131.708 20.6401C131.708 21.3495 131.566 21.9818 131.281 22.5371C130.997 23.0878 130.593 23.5218 130.07 23.8391C129.548 24.1518 128.929 24.3081 128.215 24.3081H128.061ZM128.068 23.0061H128.208C128.848 23.0061 129.349 22.7915 129.713 22.3621C130.077 21.9328 130.259 21.3588 130.259 20.6401C130.259 19.9168 130.077 19.3428 129.713 18.9181C129.349 18.4888 128.848 18.2741 128.208 18.2741H128.068C127.434 18.2741 126.932 18.4888 126.563 18.9181C126.199 19.3428 126.017 19.9168 126.017 20.6401C126.017 21.3588 126.199 21.9328 126.563 22.3621C126.932 22.7915 127.434 23.0061 128.068 23.0061ZM133.375 24.1401V17.1401H134.775V18.3091C135.032 17.8938 135.352 17.5671 135.734 17.3291C136.122 17.0911 136.57 16.9721 137.078 16.9721H137.232C138.007 16.9721 138.614 17.2451 139.052 17.7911C139.496 18.3371 139.717 19.1048 139.717 20.0941V24.1401H138.317V20.2621C138.317 18.9368 137.837 18.2741 136.875 18.2741H136.735C136.259 18.2741 135.853 18.4211 135.517 18.7151C135.186 19.0091 134.939 19.3801 134.775 19.8281V24.1401H133.375ZM144.81 24.2311C143.98 24.2311 143.347 24.0211 142.913 23.6011C142.479 23.1811 142.262 22.5348 142.262 21.6621V18.3581H140.89V17.1401H142.262V15.0541H143.662V17.1401H146.021V18.3581H143.662V21.4731C143.662 22.0238 143.777 22.4065 144.005 22.6211C144.234 22.8358 144.572 22.9431 145.02 22.9431C145.235 22.9431 145.426 22.9338 145.594 22.9151C145.767 22.8965 145.944 22.8731 146.126 22.8451V24.0701C145.94 24.1168 145.73 24.1541 145.496 24.1821C145.263 24.2148 145.034 24.2311 144.81 24.2311ZM148.267 15.8941C147.982 15.8941 147.756 15.8078 147.588 15.6351C147.424 15.4578 147.343 15.2338 147.343 14.9631C147.343 14.6878 147.424 14.4638 147.588 14.2911C147.756 14.1185 147.982 14.0321 148.267 14.0321C148.556 14.0321 148.782 14.1185 148.946 14.2911C149.109 14.4638 149.191 14.6878 149.191 14.9631C149.191 15.2338 149.109 15.4578 148.946 15.6351C148.782 15.8078 148.556 15.8941 148.267 15.8941ZM147.567 24.1401V17.1401H148.967V24.1401H147.567ZM151.026 24.1401V17.1401H152.426V18.3091C152.682 17.8938 153.002 17.5671 153.385 17.3291C153.772 17.0911 154.22 16.9721 154.729 16.9721H154.883C155.657 16.9721 156.264 17.2451 156.703 17.7911C157.146 18.3371 157.368 19.1048 157.368 20.0941V24.1401H155.968V20.2621C155.968 18.9368 155.487 18.2741 154.526 18.2741H154.386C153.91 18.2741 153.504 18.4211 153.168 18.7151C152.836 19.0091 152.589 19.3801 152.426 19.8281V24.1401H151.026ZM162.419 24.3081C161.709 24.3081 161.091 24.1518 160.564 23.8391C160.041 23.5218 159.637 23.0878 159.353 22.5371C159.068 21.9818 158.926 21.3495 158.926 20.6401C158.926 19.9261 159.068 19.2938 159.353 18.7431C159.637 18.1925 160.041 17.7608 160.564 17.4481C161.091 17.1308 161.709 16.9721 162.419 16.9721H162.573C163.287 16.9721 163.905 17.1308 164.428 17.4481C164.95 17.7608 165.354 18.1925 165.639 18.7431C165.923 19.2938 166.066 19.9261 166.066 20.6401C166.066 21.3495 165.923 21.9818 165.639 22.5371C165.354 23.0878 164.95 23.5218 164.428 23.8391C163.905 24.1518 163.287 24.3081 162.573 24.3081H162.419ZM162.426 23.0061H162.566C163.205 23.0061 163.707 22.7915 164.071 22.3621C164.435 21.9328 164.617 21.3588 164.617 20.6401C164.617 19.9168 164.435 19.3428 164.071 18.9181C163.707 18.4888 163.205 18.2741 162.566 18.2741H162.426C161.791 18.2741 161.289 18.4888 160.921 18.9181C160.557 19.3428 160.375 19.9168 160.375 20.6401C160.375 21.3588 160.557 21.9328 160.921 22.3621C161.289 22.7915 161.791 23.0061 162.426 23.0061ZM170.099 24.3081C169.291 24.3081 168.675 24.0351 168.251 23.4891C167.826 22.9431 167.614 22.1755 167.614 21.1861V17.1401H169.014V21.0181C169.014 22.3435 169.494 23.0061 170.456 23.0061H170.596C171.072 23.0061 171.475 22.8591 171.807 22.5651C172.143 22.2711 172.392 21.9001 172.556 21.4521V17.1401H173.956V24.1401H172.556V22.9711C172.299 23.3865 171.977 23.7131 171.59 23.9511C171.207 24.1891 170.761 24.3081 170.253 24.3081H170.099ZM178.545 24.3081C177.84 24.3081 177.233 24.1938 176.725 23.9651C176.216 23.7365 175.791 23.3958 175.451 22.9431L176.403 22.0681C176.907 22.7448 177.616 23.0831 178.531 23.0831H178.671C179.133 23.0831 179.49 23.0131 179.742 22.8731C179.998 22.7285 180.127 22.5208 180.127 22.2501C180.127 22.0261 180.043 21.8418 179.875 21.6971C179.711 21.5525 179.41 21.4358 178.972 21.3471L177.775 21.0951C176.384 20.8058 175.689 20.1571 175.689 19.1491C175.689 18.4958 175.943 17.9708 176.452 17.5741C176.96 17.1728 177.635 16.9721 178.475 16.9721H178.629C179.823 16.9721 180.74 17.4155 181.38 18.3021L180.428 19.0931C180.185 18.7711 179.912 18.5425 179.609 18.4071C179.31 18.2671 178.979 18.1971 178.615 18.1971H178.475C178.059 18.1971 177.721 18.2695 177.46 18.4141C177.203 18.5588 177.075 18.7641 177.075 19.0301C177.075 19.2308 177.154 19.3918 177.313 19.5131C177.476 19.6298 177.749 19.7301 178.132 19.8141L179.532 20.1151C180.134 20.2458 180.614 20.4791 180.974 20.8151C181.333 21.1465 181.513 21.5968 181.513 22.1661C181.513 22.7868 181.272 23.3001 180.792 23.7061C180.316 24.1075 179.618 24.3081 178.699 24.3081H178.545ZM189.124 24.1401C188.68 23.1835 188.237 22.1521 187.794 21.0461C187.35 19.9355 186.93 18.8085 186.534 17.6651C186.142 16.5171 185.799 15.4088 185.505 14.3401H187.136C187.374 15.2315 187.649 16.1718 187.962 17.1611C188.274 18.1505 188.606 19.1328 188.956 20.1081C189.31 21.0788 189.665 21.9841 190.02 22.8241C190.374 21.9841 190.731 21.0788 191.091 20.1081C191.455 19.1328 191.795 18.1505 192.113 17.1611C192.43 16.1718 192.701 15.2315 192.925 14.3401H194.507C194.213 15.4088 193.867 16.5171 193.471 17.6651C193.079 18.8085 192.661 19.9355 192.218 21.0461C191.774 22.1521 191.331 23.1835 190.888 24.1401H189.124ZM196.624 15.8941C196.339 15.8941 196.113 15.8078 195.945 15.6351C195.782 15.4578 195.7 15.2338 195.7 14.9631C195.7 14.6878 195.782 14.4638 195.945 14.2911C196.113 14.1185 196.339 14.0321 196.624 14.0321C196.913 14.0321 197.14 14.1185 197.303 14.2911C197.466 14.4638 197.548 14.6878 197.548 14.9631C197.548 15.2338 197.466 15.4578 197.303 15.6351C197.14 15.8078 196.913 15.8941 196.624 15.8941ZM195.924 24.1401V17.1401H197.324V24.1401H195.924ZM199.383 24.1401V13.9201H200.783V18.2391C201.026 17.8191 201.343 17.5041 201.735 17.2941C202.127 17.0795 202.563 16.9721 203.044 16.9721H203.198C203.819 16.9721 204.36 17.1308 204.822 17.4481C205.289 17.7608 205.65 18.1948 205.907 18.7501C206.164 19.3008 206.292 19.9308 206.292 20.6401C206.292 21.3495 206.164 21.9818 205.907 22.5371C205.65 23.0878 205.289 23.5218 204.822 23.8391C204.36 24.1518 203.819 24.3081 203.198 24.3081H203.044C202.582 24.3081 202.153 24.2101 201.756 24.0141C201.364 23.8135 201.04 23.5171 200.783 23.1251V24.1401H199.383ZM202.708 23.0131H202.848C203.459 23.0131 203.945 22.8078 204.304 22.3971C204.663 21.9865 204.843 21.4008 204.843 20.6401C204.843 19.8795 204.663 19.2938 204.304 18.8831C203.945 18.4725 203.459 18.2671 202.848 18.2671H202.708C202.293 18.2671 201.917 18.3908 201.581 18.6381C201.25 18.8855 200.984 19.2238 200.783 19.6531V21.6271C200.984 22.0565 201.25 22.3948 201.581 22.6421C201.917 22.8895 202.293 23.0131 202.708 23.0131ZM207.969 24.1401V17.1401H209.369V18.2041C209.836 17.3828 210.477 16.9721 211.294 16.9721C211.518 16.9721 211.721 16.9908 211.903 17.0281V18.4421C211.791 18.4281 211.67 18.4165 211.539 18.4071C211.413 18.3978 211.289 18.3931 211.168 18.3931C210.706 18.3931 210.328 18.5261 210.034 18.7921C209.74 19.0581 209.518 19.4221 209.369 19.8841V24.1401H207.969ZM215.109 24.2801C214.372 24.2801 213.798 24.0911 213.387 23.7131C212.981 23.3305 212.778 22.8288 212.778 22.2081C212.778 21.5921 213.007 21.0765 213.464 20.6611C213.926 20.2458 214.661 20.0381 215.669 20.0381H217.573V20.0171C217.573 18.8411 217.032 18.2531 215.949 18.2531C215.497 18.2531 215.114 18.3348 214.801 18.4981C214.493 18.6615 214.244 18.8901 214.052 19.1841L213.093 18.4071C213.392 17.9451 213.784 17.5905 214.269 17.3431C214.759 17.0958 215.315 16.9721 215.935 16.9721H216.089C216.948 16.9721 217.639 17.2195 218.161 17.7141C218.684 18.2088 218.945 18.9485 218.945 19.9331V24.1401H217.601V22.9991C217.331 23.4098 216.983 23.7271 216.558 23.9511C216.134 24.1705 215.651 24.2801 215.109 24.2801ZM215.417 23.0341C215.959 23.0341 216.409 22.9128 216.768 22.6701C217.128 22.4228 217.396 22.0891 217.573 21.6691V21.1371H215.725C215.175 21.1371 214.78 21.2258 214.542 21.4031C214.309 21.5758 214.192 21.8115 214.192 22.1101C214.192 22.7261 214.601 23.0341 215.417 23.0341ZM224.039 24.2311C223.208 24.2311 222.576 24.0211 222.142 23.6011C221.708 23.1811 221.491 22.5348 221.491 21.6621V18.3581H220.119V17.1401H221.491V15.0541H222.891V17.1401H225.25V18.3581H222.891V21.4731C222.891 22.0238 223.005 22.4065 223.234 22.6211C223.463 22.8358 223.801 22.9431 224.249 22.9431C224.464 22.9431 224.655 22.9338 224.823 22.9151C224.996 22.8965 225.173 22.8731 225.355 22.8451V24.0701C225.168 24.1168 224.958 24.1541 224.725 24.1821C224.492 24.2148 224.263 24.2311 224.039 24.2311ZM227.495 15.8941C227.21 15.8941 226.984 15.8078 226.816 15.6351C226.653 15.4578 226.571 15.2338 226.571 14.9631C226.571 14.6878 226.653 14.4638 226.816 14.2911C226.984 14.1185 227.21 14.0321 227.495 14.0321C227.784 14.0321 228.011 14.1185 228.174 14.2911C228.337 14.4638 228.419 14.6878 228.419 14.9631C228.419 15.2338 228.337 15.4578 228.174 15.6351C228.011 15.8078 227.784 15.8941 227.495 15.8941ZM226.795 24.1401V17.1401H228.195V24.1401H226.795ZM233.362 24.3081C232.653 24.3081 232.034 24.1518 231.507 23.8391C230.984 23.5218 230.581 23.0878 230.296 22.5371C230.011 21.9818 229.869 21.3495 229.869 20.6401C229.869 19.9261 230.011 19.2938 230.296 18.7431C230.581 18.1925 230.984 17.7608 231.507 17.4481C232.034 17.1308 232.653 16.9721 233.362 16.9721H233.516C234.23 16.9721 234.848 17.1308 235.371 17.4481C235.894 17.7608 236.297 18.1925 236.582 18.7431C236.867 19.2938 237.009 19.9261 237.009 20.6401C237.009 21.3495 236.867 21.9818 236.582 22.5371C236.297 23.0878 235.894 23.5218 235.371 23.8391C234.848 24.1518 234.23 24.3081 233.516 24.3081H233.362ZM233.369 23.0061H233.509C234.148 23.0061 234.65 22.7915 235.014 22.3621C235.378 21.9328 235.56 21.3588 235.56 20.6401C235.56 19.9168 235.378 19.3428 235.014 18.9181C234.65 18.4888 234.148 18.2741 233.509 18.2741H233.369C232.734 18.2741 232.233 18.4888 231.864 18.9181C231.5 19.3428 231.318 19.9168 231.318 20.6401C231.318 21.3588 231.5 21.9328 231.864 22.3621C232.233 22.7915 232.734 23.0061 233.369 23.0061ZM238.676 24.1401V17.1401H240.076V18.3091C240.333 17.8938 240.652 17.5671 241.035 17.3291C241.422 17.0911 241.87 16.9721 242.379 16.9721H242.533C243.308 16.9721 243.914 17.2451 244.353 17.7911C244.796 18.3371 245.018 19.1048 245.018 20.0941V24.1401H243.618V20.2621C243.618 18.9368 243.137 18.2741 242.176 18.2741H242.036C241.56 18.2741 241.154 18.4211 240.818 18.7151C240.487 19.0091 240.239 19.3801 240.076 19.8281V24.1401H238.676Z" fill="white"/>
<path d="M148.816 173.964V165.578H145.54V164.164H153.576V165.578H150.3V173.964H148.816ZM154.362 173.964V166.964H155.762V168.028C156.228 167.207 156.87 166.796 157.687 166.796C157.911 166.796 158.114 166.815 158.296 166.852V168.266C158.184 168.252 158.062 168.24 157.932 168.231C157.806 168.222 157.682 168.217 157.561 168.217C157.099 168.217 156.721 168.35 156.427 168.616C156.133 168.882 155.911 169.246 155.762 169.708V173.964H154.362ZM161.502 174.104C160.765 174.104 160.191 173.915 159.78 173.537C159.374 173.154 159.171 172.653 159.171 172.032C159.171 171.416 159.4 170.9 159.857 170.485C160.319 170.07 161.054 169.862 162.062 169.862H163.966V169.841C163.966 168.665 163.425 168.077 162.342 168.077C161.889 168.077 161.507 168.159 161.194 168.322C160.886 168.485 160.636 168.714 160.445 169.008L159.486 168.231C159.785 167.769 160.177 167.414 160.662 167.167C161.152 166.92 161.707 166.796 162.328 166.796H162.482C163.341 166.796 164.031 167.043 164.554 167.538C165.077 168.033 165.338 168.772 165.338 169.757V173.964H163.994V172.823C163.723 173.234 163.376 173.551 162.951 173.775C162.526 173.994 162.043 174.104 161.502 174.104ZM161.81 172.858C162.351 172.858 162.802 172.737 163.161 172.494C163.52 172.247 163.789 171.913 163.966 171.493V170.961H162.118C161.567 170.961 161.173 171.05 160.935 171.227C160.702 171.4 160.585 171.635 160.585 171.934C160.585 172.55 160.993 172.858 161.81 172.858ZM167.281 173.964V166.964H168.681V168.133C168.938 167.718 169.258 167.391 169.64 167.153C170.028 166.915 170.476 166.796 170.984 166.796H171.138C171.913 166.796 172.52 167.069 172.958 167.615C173.402 168.161 173.623 168.929 173.623 169.918V173.964H172.223V170.086C172.223 168.761 171.743 168.098 170.781 168.098H170.641C170.165 168.098 169.759 168.245 169.423 168.539C169.092 168.833 168.845 169.204 168.681 169.652V173.964H167.281ZM178.094 174.132C177.389 174.132 176.782 174.018 176.274 173.789C175.765 173.56 175.34 173.22 175 172.767L175.952 171.892C176.456 172.569 177.165 172.907 178.08 172.907H178.22C178.682 172.907 179.039 172.837 179.291 172.697C179.547 172.552 179.676 172.345 179.676 172.074C179.676 171.85 179.592 171.666 179.424 171.521C179.26 171.376 178.959 171.26 178.521 171.171L177.324 170.919C175.933 170.63 175.238 169.981 175.238 168.973C175.238 168.32 175.492 167.795 176.001 167.398C176.509 166.997 177.184 166.796 178.024 166.796H178.178C179.372 166.796 180.289 167.239 180.929 168.126L179.977 168.917C179.734 168.595 179.461 168.366 179.158 168.231C178.859 168.091 178.528 168.021 178.164 168.021H178.024C177.608 168.021 177.27 168.093 177.009 168.238C176.752 168.383 176.624 168.588 176.624 168.854C176.624 169.055 176.703 169.216 176.862 169.337C177.025 169.454 177.298 169.554 177.681 169.638L179.081 169.939C179.683 170.07 180.163 170.303 180.523 170.639C180.882 170.97 181.062 171.421 181.062 171.99C181.062 172.611 180.821 173.124 180.341 173.53C179.865 173.931 179.167 174.132 178.248 174.132H178.094ZM183.321 165.718C183.037 165.718 182.81 165.632 182.642 165.459C182.479 165.282 182.397 165.058 182.397 164.787C182.397 164.512 182.479 164.288 182.642 164.115C182.81 163.942 183.037 163.856 183.321 163.856C183.611 163.856 183.837 163.942 184 164.115C184.164 164.288 184.245 164.512 184.245 164.787C184.245 165.058 184.164 165.282 184 165.459C183.837 165.632 183.611 165.718 183.321 165.718ZM182.621 173.964V166.964H184.021V173.964H182.621ZM189.069 174.132C188.397 174.132 187.807 173.978 187.298 173.67C186.794 173.362 186.4 172.933 186.115 172.382C185.835 171.831 185.695 171.194 185.695 170.471C185.695 169.748 185.835 169.111 186.115 168.56C186.4 168.005 186.794 167.573 187.298 167.265C187.807 166.952 188.397 166.796 189.069 166.796H189.223C189.835 166.796 190.371 166.948 190.833 167.251C191.3 167.55 191.664 167.984 191.925 168.553C192.187 169.118 192.317 169.799 192.317 170.597V171.024H187.144C187.228 171.598 187.443 172.051 187.788 172.382C188.138 172.709 188.593 172.872 189.153 172.872H189.293C189.629 172.872 189.951 172.804 190.259 172.669C190.567 172.529 190.826 172.342 191.036 172.109L191.897 173.019C191.58 173.36 191.188 173.63 190.721 173.831C190.259 174.032 189.76 174.132 189.223 174.132H189.069ZM189.027 168.056C188.528 168.056 188.11 168.222 187.774 168.553C187.443 168.88 187.233 169.328 187.144 169.897H190.91C190.868 169.379 190.698 168.943 190.399 168.588C190.105 168.233 189.695 168.056 189.167 168.056H189.027ZM193.955 173.964V166.964H195.355V168.133C195.612 167.718 195.932 167.391 196.314 167.153C196.702 166.915 197.15 166.796 197.658 166.796H197.812C198.587 166.796 199.194 167.069 199.632 167.615C200.076 168.161 200.297 168.929 200.297 169.918V173.964H198.897V170.086C198.897 168.761 198.417 168.098 197.455 168.098H197.315C196.839 168.098 196.433 168.245 196.097 168.539C195.766 168.833 195.519 169.204 195.355 169.652V173.964H193.955ZM205.39 174.055C204.56 174.055 203.927 173.845 203.493 173.425C203.059 173.005 202.842 172.359 202.842 171.486V168.182H201.47V166.964H202.842V164.878H204.242V166.964H206.601V168.182H204.242V171.297C204.242 171.848 204.357 172.23 204.585 172.445C204.814 172.66 205.152 172.767 205.6 172.767C205.815 172.767 206.006 172.758 206.174 172.739C206.347 172.72 206.524 172.697 206.706 172.669V173.894C206.52 173.941 206.31 173.978 206.076 174.006C205.843 174.039 205.614 174.055 205.39 174.055ZM210.674 174.132C209.969 174.132 209.362 174.018 208.854 173.789C208.345 173.56 207.92 173.22 207.58 172.767L208.532 171.892C209.036 172.569 209.745 172.907 210.66 172.907H210.8C211.262 172.907 211.619 172.837 211.871 172.697C212.127 172.552 212.256 172.345 212.256 172.074C212.256 171.85 212.172 171.666 212.004 171.521C211.84 171.376 211.539 171.26 211.101 171.171L209.904 170.919C208.513 170.63 207.818 169.981 207.818 168.973C207.818 168.32 208.072 167.795 208.581 167.398C209.089 166.997 209.764 166.796 210.604 166.796H210.758C211.952 166.796 212.869 167.239 213.509 168.126L212.557 168.917C212.314 168.595 212.041 168.366 211.738 168.231C211.439 168.091 211.108 168.021 210.744 168.021H210.604C210.188 168.021 209.85 168.093 209.589 168.238C209.332 168.383 209.204 168.588 209.204 168.854C209.204 169.055 209.283 169.216 209.442 169.337C209.605 169.454 209.878 169.554 210.261 169.638L211.661 169.939C212.263 170.07 212.743 170.303 213.103 170.639C213.462 170.97 213.642 171.421 213.642 171.99C213.642 172.611 213.401 173.124 212.921 173.53C212.445 173.931 211.747 174.132 210.828 174.132H210.674Z" fill="white"/>
<path d="M26.56 78.0301L44.19 77.9901C49.35 78.0301 48.98 43.0001 51.71 43.0001C55.99 43.0001 61.3 113.13 66.75 113.06C72.2 112.99 76.33 43.0001 81.79 43.0001C84.52 43.0001 86.93 60.4901 89.31 77.9901V78.0701C91.69 95.5601 94.1 113.06 96.83 113.06C102.29 113.06 106.42 43.0801 111.87 43.0001C117.32 42.9201 121.46 113.06 126.91 113.06C129.64 113.06 132.02 95.5701 134.43 78.0701V77.9901C136.84 60.5001 139.22 43.0001 141.95 43.0001C147.41 43.0001 151.54 113.13 156.99 113.06C162.45 112.98 166.58 43.0001 172.03 43.0001C174.76 43.0001 177.17 60.4901 179.55 77.9901V78.0701C181.93 95.5601 184.34 113.06 187.07 113.06C192.53 113.06 196.66 43.0801 202.11 43.0001C207.56 42.9201 211.7 113.06 217.15 113.06C219.88 113.06 222.26 95.5701 224.67 78.0701V77.9901C227.09 60.4901 229.47 43.0001 232.2 43.0001C237.66 43.0001 241.79 113.13 247.24 113.06C252.69 112.99 256.83 43.0001 262.28 43.0001C265.01 43.0001 267.42 60.4901 269.8 77.9901V78.0701C272.18 95.5601 274.59 113.06 277.32 113.06C282.78 113.06 286.91 43.0801 292.36 43.0001C297.81 42.9201 301.95 113.06 307.4 113.06C310.13 113.06 307.79 78.0701 316.72 77.9801L333.43 78.0401" stroke="#CCCCCC" stroke-width="1.5417" stroke-linecap="round"/>
<path d="M26.56 228.79L30.26 228.75C31.34 228.79 31.27 193.76 31.84 193.76C32.74 193.76 33.85 263.89 35 263.82C35.57 263.82 35.08 228.83 36.96 228.74L128.11 228.8C129.19 228.84 129.12 193.81 129.69 193.81C130.59 193.81 131.7 263.94 132.85 263.87C133.42 263.87 132.93 228.88 134.81 228.79L225.96 228.85C227.04 228.89 226.97 193.86 227.54 193.86C228.44 193.86 229.55 263.99 230.7 263.92C231.27 263.92 230.78 228.93 232.66 228.84L323.81 228.9C324.89 228.94 324.82 193.91 325.39 193.91C326.29 193.91 327.4 264.04 328.55 263.97C329.12 263.97 328.63 228.98 330.51 228.89H333.47" stroke="#CCCCCC" stroke-width="0.9986" stroke-linecap="round"/>
</svg>
