<svg width="360" height="175" viewBox="0 0 360 175" fill="none" xmlns="http://www.w3.org/2000/svg">
<path d="M157.016 24.3955V14.5955H158.654L163.764 22.3095V14.5955H165.185V24.3955H163.547L158.437 16.6815V24.3955H157.016ZM170.678 24.5635C169.969 24.5635 169.35 24.4072 168.823 24.0945C168.3 23.7772 167.897 23.3432 167.612 22.7925C167.327 22.2372 167.185 21.6048 167.185 20.8955C167.185 20.1815 167.327 19.5492 167.612 18.9985C167.897 18.4478 168.3 18.0162 168.823 17.7035C169.35 17.3862 169.969 17.2275 170.678 17.2275H170.832C171.546 17.2275 172.164 17.3862 172.687 17.7035C173.21 18.0162 173.613 18.4478 173.898 18.9985C174.183 19.5492 174.325 20.1815 174.325 20.8955C174.325 21.6048 174.183 22.2372 173.898 22.7925C173.613 23.3432 173.21 23.7772 172.687 24.0945C172.164 24.4072 171.546 24.5635 170.832 24.5635H170.678ZM170.685 23.2615H170.825C171.464 23.2615 171.966 23.0468 172.33 22.6175C172.694 22.1882 172.876 21.6142 172.876 20.8955C172.876 20.1722 172.694 19.5982 172.33 19.1735C171.966 18.7442 171.464 18.5295 170.825 18.5295H170.685C170.05 18.5295 169.549 18.7442 169.18 19.1735C168.816 19.5982 168.634 20.1722 168.634 20.8955C168.634 21.6142 168.816 22.1882 169.18 22.6175C169.549 23.0468 170.05 23.2615 170.685 23.2615ZM175.992 24.3955V17.3955H177.392V18.4595C177.859 17.6382 178.5 17.2275 179.317 17.2275C179.541 17.2275 179.744 17.2462 179.926 17.2835V18.6975C179.814 18.6835 179.693 18.6718 179.562 18.6625C179.436 18.6532 179.312 18.6485 179.191 18.6485C178.729 18.6485 178.351 18.7815 178.057 19.0475C177.763 19.3135 177.541 19.6775 177.392 20.1395V24.3955H175.992ZM181.283 24.3955V17.3955H182.683V18.5435C182.935 18.1328 183.248 17.8108 183.621 17.5775C183.994 17.3442 184.426 17.2275 184.916 17.2275H185.07C185.611 17.2275 186.066 17.3605 186.435 17.6265C186.804 17.8925 187.077 18.2752 187.254 18.7745C187.525 18.2938 187.87 17.9158 188.29 17.6405C188.71 17.3652 189.186 17.2275 189.718 17.2275H189.872C190.656 17.2275 191.253 17.5005 191.664 18.0465C192.079 18.5925 192.287 19.3602 192.287 20.3495V24.3955H190.887V20.5175C190.887 19.1922 190.43 18.5295 189.515 18.5295H189.375C188.913 18.5295 188.521 18.6765 188.199 18.9705C187.882 19.2598 187.644 19.6262 187.485 20.0695V24.3955H186.085V20.5175C186.085 19.1922 185.628 18.5295 184.713 18.5295H184.573C184.111 18.5295 183.719 18.6765 183.397 18.9705C183.08 19.2598 182.842 19.6262 182.683 20.0695V24.3955H181.283ZM196.134 24.5355C195.397 24.5355 194.823 24.3465 194.412 23.9685C194.006 23.5858 193.803 23.0842 193.803 22.4635C193.803 21.8475 194.032 21.3318 194.489 20.9165C194.951 20.5012 195.686 20.2935 196.694 20.2935H198.598V20.2725C198.598 19.0965 198.057 18.5085 196.974 18.5085C196.522 18.5085 196.139 18.5902 195.826 18.7535C195.518 18.9168 195.269 19.1455 195.077 19.4395L194.118 18.6625C194.417 18.2005 194.809 17.8458 195.294 17.5985C195.784 17.3512 196.34 17.2275 196.96 17.2275H197.114C197.973 17.2275 198.664 17.4748 199.186 17.9695C199.709 18.4642 199.97 19.2038 199.97 20.1885V24.3955H198.626V23.2545C198.356 23.6652 198.008 23.9825 197.583 24.2065C197.159 24.4258 196.676 24.5355 196.134 24.5355ZM196.442 23.2895C196.984 23.2895 197.434 23.1682 197.793 22.9255C198.153 22.6782 198.421 22.3445 198.598 21.9245V21.3925H196.75C196.2 21.3925 195.805 21.4812 195.567 21.6585C195.334 21.8312 195.217 22.0668 195.217 22.3655C195.217 22.9815 195.626 23.2895 196.442 23.2895ZM201.914 24.3955V14.1755H203.314V24.3955H201.914Z" fill="white"/>
<path d="M65.6275 24.3955V14.5955H69.8205C71.0479 14.5955 71.9672 14.8732 72.5785 15.4285C73.1899 15.9792 73.4955 16.7235 73.4955 17.6615C73.4955 18.3708 73.3205 18.9728 72.9705 19.4675C72.6205 19.9622 72.0932 20.3145 71.3885 20.5245C71.8132 21.1265 72.2285 21.7518 72.6345 22.4005C73.0405 23.0492 73.4302 23.7142 73.8035 24.3955H72.0885C71.7479 23.7328 71.3885 23.0865 71.0105 22.4565C70.6372 21.8265 70.2709 21.2502 69.9115 20.7275C69.8835 20.7275 69.8532 20.7275 69.8205 20.7275H67.0975V24.3955H65.6275ZM69.6805 15.9605H67.0975V19.3905H69.6805C70.4739 19.3905 71.0572 19.2505 71.4305 18.9705C71.8039 18.6858 71.9905 18.2542 71.9905 17.6755C71.9905 17.0968 71.8039 16.6675 71.4305 16.3875C71.0572 16.1028 70.4739 15.9605 69.6805 15.9605ZM78.2776 24.5635C77.5683 24.5635 76.95 24.4072 76.4226 24.0945C75.9 23.7772 75.4963 23.3432 75.2116 22.7925C74.927 22.2372 74.7846 21.6048 74.7846 20.8955C74.7846 20.1815 74.927 19.5492 75.2116 18.9985C75.4963 18.4478 75.9 18.0162 76.4226 17.7035C76.95 17.3862 77.5683 17.2275 78.2776 17.2275H78.4316C79.1456 17.2275 79.764 17.3862 80.2866 17.7035C80.8093 18.0162 81.213 18.4478 81.4976 18.9985C81.7823 19.5492 81.9246 20.1815 81.9246 20.8955C81.9246 21.6048 81.7823 22.2372 81.4976 22.7925C81.213 23.3432 80.8093 23.7772 80.2866 24.0945C79.764 24.4072 79.1456 24.5635 78.4316 24.5635H78.2776ZM78.2846 23.2615H78.4246C79.064 23.2615 79.5656 23.0468 79.9296 22.6175C80.2936 22.1882 80.4756 21.6142 80.4756 20.8955C80.4756 20.1722 80.2936 19.5982 79.9296 19.1735C79.5656 18.7442 79.064 18.5295 78.4246 18.5295H78.2846C77.65 18.5295 77.1483 18.7442 76.7796 19.1735C76.4156 19.5982 76.2336 20.1722 76.2336 20.8955C76.2336 21.6142 76.4156 22.1882 76.7796 22.6175C77.1483 23.0468 77.65 23.2615 78.2846 23.2615ZM85.9575 24.5635C85.1502 24.5635 84.5342 24.2905 84.1095 23.7445C83.6848 23.1985 83.4725 22.4308 83.4725 21.4415V17.3955H84.8725V21.2735C84.8725 22.5988 85.3532 23.2615 86.3145 23.2615H86.4545C86.9305 23.2615 87.3342 23.1145 87.6655 22.8205C88.0015 22.5265 88.2512 22.1555 88.4145 21.7075V17.3955H89.8145V24.3955H88.4145V23.2265C88.1578 23.6418 87.8358 23.9685 87.4485 24.2065C87.0658 24.4445 86.6202 24.5635 86.1115 24.5635H85.9575ZM91.8767 24.3955V17.3955H93.2767V18.5645C93.5333 18.1492 93.853 17.8225 94.2357 17.5845C94.623 17.3465 95.071 17.2275 95.5797 17.2275H95.7337C96.5083 17.2275 97.115 17.5005 97.5537 18.0465C97.997 18.5925 98.2187 19.3602 98.2187 20.3495V24.3955H96.8187V20.5175C96.8187 19.1922 96.338 18.5295 95.3767 18.5295H95.2367C94.7607 18.5295 94.3547 18.6765 94.0187 18.9705C93.6873 19.2645 93.44 19.6355 93.2767 20.0835V24.3955H91.8767ZM102.871 24.5635C102.25 24.5635 101.706 24.4072 101.24 24.0945C100.778 23.7772 100.418 23.3432 100.162 22.7925C99.9051 22.2372 99.7768 21.6048 99.7768 20.8955C99.7768 20.1862 99.9051 19.5562 100.162 19.0055C100.418 18.4502 100.778 18.0162 101.24 17.7035C101.706 17.3862 102.25 17.2275 102.871 17.2275H103.025C103.487 17.2275 103.914 17.3278 104.306 17.5285C104.702 17.7245 105.029 18.0185 105.286 18.4105V14.1755H106.686V24.3955H105.286V23.2965C105.043 23.7165 104.726 24.0338 104.334 24.2485C103.942 24.4585 103.505 24.5635 103.025 24.5635H102.871ZM103.221 23.2685H103.361C103.776 23.2685 104.149 23.1448 104.481 22.8975C104.817 22.6502 105.085 22.3118 105.286 21.8825V19.9085C105.085 19.4792 104.817 19.1408 104.481 18.8935C104.149 18.6462 103.776 18.5225 103.361 18.5225H103.221C102.609 18.5225 102.124 18.7278 101.765 19.1385C101.405 19.5492 101.226 20.1348 101.226 20.8955C101.226 21.6562 101.405 22.2418 101.765 22.6525C102.124 23.0632 102.609 23.2685 103.221 23.2685Z" fill="white"/>
<path d="M264.281 24.5635C263.362 24.5635 262.564 24.4002 261.887 24.0735C261.211 23.7422 260.646 23.2662 260.193 22.6455L261.271 21.6655C261.668 22.1882 262.114 22.5732 262.608 22.8205C263.108 23.0678 263.663 23.1915 264.274 23.1915H264.449C265.182 23.1915 265.735 23.0655 266.108 22.8135C266.482 22.5615 266.668 22.2115 266.668 21.7635C266.668 21.4182 266.568 21.1498 266.367 20.9585C266.171 20.7672 265.933 20.6225 265.653 20.5245C265.373 20.4265 265.107 20.3518 264.855 20.3005L263.266 19.9645C262.996 19.9085 262.702 19.8268 262.384 19.7195C262.072 19.6122 261.773 19.4628 261.488 19.2715C261.204 19.0755 260.97 18.8212 260.788 18.5085C260.606 18.1958 260.515 17.8062 260.515 17.3395C260.515 16.7562 260.667 16.2475 260.97 15.8135C261.278 15.3748 261.71 15.0342 262.265 14.7915C262.821 14.5488 263.472 14.4275 264.218 14.4275H264.393C265.961 14.4275 267.168 15.0342 268.012 16.2475L266.948 17.1295C266.566 16.6255 266.162 16.2778 265.737 16.0865C265.313 15.8952 264.855 15.7995 264.365 15.7995H264.19C263.551 15.7995 263.033 15.9278 262.636 16.1845C262.24 16.4365 262.041 16.7818 262.041 17.2205C262.041 17.5052 262.118 17.7338 262.272 17.9065C262.426 18.0745 262.632 18.2052 262.888 18.2985C263.15 18.3918 263.432 18.4712 263.735 18.5365L265.324 18.8725C265.544 18.9192 265.812 18.9915 266.129 19.0895C266.451 19.1875 266.769 19.3368 267.081 19.5375C267.399 19.7335 267.662 20.0018 267.872 20.3425C268.087 20.6832 268.194 21.1195 268.194 21.6515C268.194 22.2582 268.04 22.7785 267.732 23.2125C267.424 23.6465 266.99 23.9802 266.43 24.2135C265.87 24.4468 265.212 24.5635 264.456 24.5635H264.281ZM269.913 24.3955V14.1755H271.313V18.5645C271.569 18.1492 271.889 17.8225 272.272 17.5845C272.659 17.3465 273.107 17.2275 273.616 17.2275H273.77C274.577 17.2275 275.193 17.5005 275.618 18.0465C276.042 18.5925 276.255 19.3602 276.255 20.3495V24.3955H274.855V20.5175C274.855 19.1922 274.374 18.5295 273.413 18.5295H273.273C272.797 18.5295 272.391 18.6765 272.055 18.9705C271.723 19.2645 271.476 19.6355 271.313 20.0835V24.3955H269.913ZM280.102 24.5355C279.364 24.5355 278.79 24.3465 278.38 23.9685C277.974 23.5858 277.771 23.0842 277.771 22.4635C277.771 21.8475 277.999 21.3318 278.457 20.9165C278.919 20.5012 279.654 20.2935 280.662 20.2935H282.566V20.2725C282.566 19.0965 282.024 18.5085 280.942 18.5085C280.489 18.5085 280.106 18.5902 279.794 18.7535C279.486 18.9168 279.236 19.1455 279.045 19.4395L278.086 18.6625C278.384 18.2005 278.776 17.8458 279.262 17.5985C279.752 17.3512 280.307 17.2275 280.928 17.2275H281.082C281.94 17.2275 282.631 17.4748 283.154 17.9695C283.676 18.4642 283.938 19.2038 283.938 20.1885V24.3955H282.594V23.2545C282.323 23.6652 281.975 23.9825 281.551 24.2065C281.126 24.4258 280.643 24.5355 280.102 24.5355ZM280.41 23.2895C280.951 23.2895 281.401 23.1682 281.761 22.9255C282.12 22.6782 282.388 22.3445 282.566 21.9245V21.3925H280.718C280.167 21.3925 279.773 21.4812 279.535 21.6585C279.301 21.8312 279.185 22.0668 279.185 22.3655C279.185 22.9815 279.593 23.2895 280.41 23.2895ZM285.881 24.3955V17.3955H287.281V18.4595C287.748 17.6382 288.39 17.2275 289.206 17.2275C289.43 17.2275 289.633 17.2462 289.815 17.2835V18.6975C289.703 18.6835 289.582 18.6718 289.451 18.6625C289.325 18.6532 289.202 18.6485 289.08 18.6485C288.618 18.6485 288.24 18.7815 287.946 19.0475C287.652 19.3135 287.431 19.6775 287.281 20.1395V24.3955H285.881ZM291.172 27.3355V17.3955H292.572V18.4945C292.815 18.0745 293.132 17.7595 293.524 17.5495C293.916 17.3348 294.353 17.2275 294.833 17.2275H294.987C295.608 17.2275 296.149 17.3862 296.611 17.7035C297.078 18.0162 297.44 18.4502 297.696 19.0055C297.953 19.5562 298.081 20.1862 298.081 20.8955C298.081 21.6048 297.953 22.2372 297.696 22.7925C297.44 23.3432 297.078 23.7772 296.611 24.0945C296.149 24.4072 295.608 24.5635 294.987 24.5635H294.833C294.371 24.5635 293.942 24.4655 293.545 24.2695C293.153 24.0688 292.829 23.7725 292.572 23.3805V27.3355H291.172ZM294.497 23.2685H294.637C295.249 23.2685 295.734 23.0632 296.093 22.6525C296.453 22.2418 296.632 21.6562 296.632 20.8955C296.632 20.1348 296.453 19.5492 296.093 19.1385C295.734 18.7278 295.249 18.5225 294.637 18.5225H294.497C294.082 18.5225 293.706 18.6462 293.37 18.8935C293.039 19.1408 292.773 19.4792 292.572 19.9085V21.8825C292.773 22.3118 293.039 22.6502 293.37 22.8975C293.706 23.1448 294.082 23.2685 294.497 23.2685Z" fill="white"/>
<path d="M108.78 78.5H103.55C94.86 78.59 99.21 113.58 94.48 113.58C86.64 113.58 88.29 43.52 79.85 43.52C73.47 43.52 77.56 78.55 72.54 78.51H67.79" stroke="#CCCCCC" stroke-width="0.9986" stroke-linecap="round"/>
<path d="M292.21 78.5H282.3C280.42 78.59 280.92 113.58 280.34 113.58C279.19 113.66 278.08 43.52 277.18 43.52C276.61 43.52 276.69 78.55 275.6 78.51H266.18" stroke="#CCCCCC" stroke-width="0.9986" stroke-linecap="round"/>
<path d="M201.24 78.56L193.75 78.5C188.77 78.59 190.07 113.58 188.55 113.58C185.51 113.66 182.55 43.52 180.16 43.52C178.64 43.52 178.85 78.55 175.96 78.51H166.23" stroke="#CCCCCC" stroke-width="0.9986" stroke-linecap="round"/>
<path d="M90.27 151.19V136.89C90.27 134.9 89.12 133.27 87.71 133.27H84.62C83.21 133.27 82.06 134.9 82.06 136.89V151.19H90.27Z" fill="#BEDF6C" fill-opacity="0.6" stroke="#BEDF6C"/>
<path d="M183.61 133.27C179.98 133.27 179.64 144.9 179.64 146.89V151.19H187.85V146.89C187.84 146.89 187.24 133.27 183.61 133.27Z" fill="#BEDF6C" fill-opacity="0.6" stroke="#BEDF6C"/>
<path d="M278.97 133.5C277.79 133.5 275 147.13 275 149.12V151.42H283.21V149.12C283.2 149.12 280.27 133.5 278.97 133.5Z" fill="#BEDF6C" fill-opacity="0.6" stroke="#BEDF6C"/>
</svg>
