<svg width="244" height="147" viewBox="0 0 244 147" fill="none" xmlns="http://www.w3.org/2000/svg">
<rect width="244" height="147" fill="#191919" style="fill:#191919;fill:color(display-p3 0.0994 0.0994 0.0994);fill-opacity:1;"/>
<mask id="path-1-inside-1_5071_38580" fill="white">
<path d="M79.1416 48.6211C81.0705 48.6212 82.6338 50.1853 82.6338 52.1143V103.959C82.6338 105.888 81.0705 107.452 79.1416 107.452C77.2126 107.452 75.6484 105.888 75.6484 103.959V52.1143C75.6484 50.1853 77.2126 48.6211 79.1416 48.6211ZM55.5693 52.834C57.4983 52.834 59.0625 54.3982 59.0625 56.3271V95.6816C59.0625 97.6106 57.4983 99.1748 55.5693 99.1748C53.6404 99.1747 52.0771 97.6106 52.0771 95.6816V56.3271C52.0771 54.3982 53.6404 52.834 55.5693 52.834ZM67.3535 40C69.2825 40 70.8467 41.5642 70.8467 43.4932V93.5205C70.8467 95.4495 69.2825 97.0137 67.3535 97.0137C65.4247 97.0135 63.8613 95.4494 63.8613 93.5205V43.4932C63.8613 41.5643 65.4247 40.0002 67.3535 40ZM90.9316 48.1064C92.8605 48.1066 94.4238 49.6707 94.4238 51.5996V90.5488C94.4238 92.4777 92.8605 94.0418 90.9316 94.042C89.0027 94.042 87.4385 92.4778 87.4385 90.5488V51.5996C87.4385 49.6706 89.0027 48.1064 90.9316 48.1064ZM43.7793 59.5879C45.7083 59.5879 47.2725 61.1521 47.2725 63.0811V85.8184C47.2722 87.7472 45.7081 89.3105 43.7793 89.3105C41.8506 89.3104 40.2873 87.747 40.2871 85.8184V63.0811C40.2871 61.1522 41.8505 59.5881 43.7793 59.5879ZM102.719 58.2266C104.648 58.2266 106.212 59.7907 106.212 61.7197V81.4746C106.212 83.4036 104.648 84.9678 102.719 84.9678C100.79 84.9677 99.2266 83.4035 99.2266 81.4746V61.7197C99.2266 59.7908 100.79 58.2267 102.719 58.2266ZM31.9902 68.2686C33.919 68.2688 35.4823 69.832 35.4824 71.7607V76.3447C35.4824 78.2736 33.919 79.8377 31.9902 79.8379C30.0612 79.8379 28.4971 78.2737 28.4971 76.3447V71.7607C28.4971 69.8318 30.0613 68.2686 31.9902 68.2686ZM114.507 68.2686C116.436 68.2687 117.999 69.8319 117.999 71.7607V76.3447C117.999 78.2736 116.436 79.8378 114.507 79.8379C112.578 79.8379 111.014 78.2737 111.014 76.3447V71.7607C111.014 69.8318 112.578 68.2686 114.507 68.2686Z"/>
</mask>
<path d="M79.1416 48.6211C81.0705 48.6212 82.6338 50.1853 82.6338 52.1143V103.959C82.6338 105.888 81.0705 107.452 79.1416 107.452C77.2126 107.452 75.6484 105.888 75.6484 103.959V52.1143C75.6484 50.1853 77.2126 48.6211 79.1416 48.6211ZM55.5693 52.834C57.4983 52.834 59.0625 54.3982 59.0625 56.3271V95.6816C59.0625 97.6106 57.4983 99.1748 55.5693 99.1748C53.6404 99.1747 52.0771 97.6106 52.0771 95.6816V56.3271C52.0771 54.3982 53.6404 52.834 55.5693 52.834ZM67.3535 40C69.2825 40 70.8467 41.5642 70.8467 43.4932V93.5205C70.8467 95.4495 69.2825 97.0137 67.3535 97.0137C65.4247 97.0135 63.8613 95.4494 63.8613 93.5205V43.4932C63.8613 41.5643 65.4247 40.0002 67.3535 40ZM90.9316 48.1064C92.8605 48.1066 94.4238 49.6707 94.4238 51.5996V90.5488C94.4238 92.4777 92.8605 94.0418 90.9316 94.042C89.0027 94.042 87.4385 92.4778 87.4385 90.5488V51.5996C87.4385 49.6706 89.0027 48.1064 90.9316 48.1064ZM43.7793 59.5879C45.7083 59.5879 47.2725 61.1521 47.2725 63.0811V85.8184C47.2722 87.7472 45.7081 89.3105 43.7793 89.3105C41.8506 89.3104 40.2873 87.747 40.2871 85.8184V63.0811C40.2871 61.1522 41.8505 59.5881 43.7793 59.5879ZM102.719 58.2266C104.648 58.2266 106.212 59.7907 106.212 61.7197V81.4746C106.212 83.4036 104.648 84.9678 102.719 84.9678C100.79 84.9677 99.2266 83.4035 99.2266 81.4746V61.7197C99.2266 59.7908 100.79 58.2267 102.719 58.2266ZM31.9902 68.2686C33.919 68.2688 35.4823 69.832 35.4824 71.7607V76.3447C35.4824 78.2736 33.919 79.8377 31.9902 79.8379C30.0612 79.8379 28.4971 78.2737 28.4971 76.3447V71.7607C28.4971 69.8318 30.0613 68.2686 31.9902 68.2686ZM114.507 68.2686C116.436 68.2687 117.999 69.8319 117.999 71.7607V76.3447C117.999 78.2736 116.436 79.8378 114.507 79.8379C112.578 79.8379 111.014 78.2737 111.014 76.3447V71.7607C111.014 69.8318 112.578 68.2686 114.507 68.2686Z" fill="white" style="fill:white;fill-opacity:1;"/>
<path d="M79.1416 48.6211L79.1417 47.1211H79.1416V48.6211ZM79.1416 107.452L79.1416 108.952L79.1417 108.952L79.1416 107.452ZM55.5693 52.834L55.5693 51.334L55.5693 51.334L55.5693 52.834ZM55.5693 99.1748L55.5693 100.675H55.5693V99.1748ZM67.3535 40L67.3535 38.5L67.3534 38.5L67.3535 40ZM67.3535 97.0137L67.3534 98.5137H67.3535V97.0137ZM90.9316 48.1064L90.9318 46.6064H90.9316V48.1064ZM94.4238 90.5488L95.9238 90.5488V90.5488H94.4238ZM90.9316 94.042L90.9316 95.542L90.9318 95.542L90.9316 94.042ZM87.4385 90.5488L85.9385 90.5488L85.9385 90.5488L87.4385 90.5488ZM43.7793 59.5879L43.7793 58.0879L43.7792 58.0879L43.7793 59.5879ZM47.2725 85.8184L48.7725 85.8185V85.8184H47.2725ZM43.7793 89.3105L43.7792 90.8105H43.7793V89.3105ZM40.2871 85.8184L38.7871 85.8184L38.7871 85.8185L40.2871 85.8184ZM102.719 58.2266L102.719 56.7266L102.719 56.7266L102.719 58.2266ZM102.719 84.9678L102.719 86.4678H102.719V84.9678ZM31.9902 68.2686L31.9904 66.7686H31.9902V68.2686ZM35.4824 71.7607L36.9824 71.7607L36.9824 71.7607L35.4824 71.7607ZM31.9902 79.8379L31.9902 81.3379L31.9904 81.3379L31.9902 79.8379ZM28.4971 71.7607L26.9971 71.7607V71.7607H28.4971ZM114.507 68.2686L114.507 66.7686H114.507V68.2686ZM117.999 71.7607L119.499 71.7607L119.499 71.7607L117.999 71.7607ZM114.507 79.8379L114.507 81.3379L114.507 81.3379L114.507 79.8379ZM111.014 71.7607L109.514 71.7607V71.7607H111.014ZM79.1416 48.6211L79.1415 50.1211C80.2416 50.1211 81.1338 51.0133 81.1338 52.1143H82.6338H84.1338C84.1338 49.3574 81.8995 47.1212 79.1417 47.1211L79.1416 48.6211ZM82.6338 52.1143H81.1338V103.959H82.6338H84.1338V52.1143H82.6338ZM82.6338 103.959H81.1338C81.1338 105.06 80.2416 105.952 79.1415 105.952L79.1416 107.452L79.1417 108.952C81.8995 108.952 84.1338 106.716 84.1338 103.959H82.6338ZM79.1416 107.452V105.952C78.041 105.952 77.1484 105.06 77.1484 103.959H75.6484H74.1484C74.1484 106.716 76.3842 108.952 79.1416 108.952V107.452ZM75.6484 103.959H77.1484V52.1143H75.6484H74.1484V103.959H75.6484ZM75.6484 52.1143H77.1484C77.1484 51.0137 78.041 50.1211 79.1416 50.1211V48.6211V47.1211C76.3842 47.1211 74.1484 49.3568 74.1484 52.1143H75.6484ZM55.5693 52.834V54.334C56.6699 54.334 57.5625 55.2266 57.5625 56.3271H59.0625H60.5625C60.5625 53.5697 58.3267 51.334 55.5693 51.334V52.834ZM59.0625 56.3271H57.5625V95.6816H59.0625H60.5625V56.3271H59.0625ZM59.0625 95.6816H57.5625C57.5625 96.7822 56.6699 97.6748 55.5693 97.6748V99.1748V100.675C58.3267 100.675 60.5625 98.4391 60.5625 95.6816H59.0625ZM55.5693 99.1748L55.5694 97.6748C54.4693 97.6748 53.5771 96.7827 53.5771 95.6816H52.0771H50.5771C50.5771 98.4385 52.8115 100.675 55.5693 100.675L55.5693 99.1748ZM52.0771 95.6816H53.5771V56.3271H52.0771H50.5771V95.6816H52.0771ZM52.0771 56.3271H53.5771C53.5771 55.2261 54.4693 54.334 55.5694 54.334L55.5693 52.834L55.5693 51.334C52.8115 51.3341 50.5771 53.5703 50.5771 56.3271H52.0771ZM67.3535 40V41.5C68.4541 41.5 69.3467 42.3926 69.3467 43.4932H70.8467H72.3467C72.3467 40.7358 70.1109 38.5 67.3535 38.5V40ZM70.8467 43.4932H69.3467V93.5205H70.8467H72.3467V43.4932H70.8467ZM70.8467 93.5205H69.3467C69.3467 94.6211 68.4541 95.5137 67.3535 95.5137V97.0137V98.5137C70.1109 98.5137 72.3467 96.2779 72.3467 93.5205H70.8467ZM67.3535 97.0137L67.3536 95.5137C66.2535 95.5136 65.3613 94.6214 65.3613 93.5205H63.8613H62.3613C62.3613 96.2774 64.5958 98.5134 67.3534 98.5137L67.3535 97.0137ZM63.8613 93.5205H65.3613V43.4932H63.8613H62.3613V93.5205H63.8613ZM63.8613 43.4932H65.3613C65.3613 42.3923 66.2535 41.5001 67.3536 41.5L67.3535 40L67.3534 38.5C64.5958 38.5002 62.3613 40.7363 62.3613 43.4932H63.8613ZM90.9316 48.1064L90.9315 49.6064C92.0316 49.6066 92.9238 50.4988 92.9238 51.5996H94.4238H95.9238C95.9238 48.8427 93.6893 46.6067 90.9318 46.6064L90.9316 48.1064ZM94.4238 51.5996H92.9238V90.5488H94.4238H95.9238V51.5996H94.4238ZM94.4238 90.5488L92.9238 90.5488C92.9238 91.6497 92.0316 92.5419 90.9315 92.542L90.9316 94.042L90.9318 95.542C93.6893 95.5417 95.9238 93.3057 95.9238 90.5488L94.4238 90.5488ZM90.9316 94.042V92.542C89.8311 92.542 88.9385 91.6494 88.9385 90.5488L87.4385 90.5488L85.9385 90.5488C85.9385 93.3062 88.1742 95.542 90.9316 95.542V94.042ZM87.4385 90.5488H88.9385V51.5996H87.4385H85.9385V90.5488H87.4385ZM87.4385 51.5996H88.9385C88.9385 50.4991 89.8311 49.6064 90.9316 49.6064V48.1064V46.6064C88.1742 46.6064 85.9385 48.8422 85.9385 51.5996H87.4385ZM43.7793 59.5879V61.0879C44.8799 61.0879 45.7725 61.9805 45.7725 63.0811H47.2725H48.7725C48.7725 60.3236 46.5367 58.0879 43.7793 58.0879V59.5879ZM47.2725 63.0811H45.7725V85.8184H47.2725H48.7725V63.0811H47.2725ZM47.2725 85.8184L45.7725 85.8182C45.7723 86.9183 44.8801 87.8105 43.7793 87.8105V89.3105V90.8105C46.5362 90.8105 48.7722 88.576 48.7725 85.8185L47.2725 85.8184ZM43.7793 89.3105L43.7794 87.8105C42.6791 87.8104 41.7872 86.9186 41.7871 85.8182L40.2871 85.8184L38.7871 85.8185C38.7874 88.5755 41.0221 90.8103 43.7792 90.8105L43.7793 89.3105ZM40.2871 85.8184H41.7871V63.0811H40.2871H38.7871V85.8184H40.2871ZM40.2871 63.0811H41.7871C41.7871 61.9802 42.6793 61.088 43.7794 61.0879L43.7793 59.5879L43.7792 58.0879C41.0216 58.0881 38.7871 60.3242 38.7871 63.0811H40.2871ZM102.719 58.2266V59.7266C103.819 59.7266 104.712 60.6192 104.712 61.7197H106.212H107.712C107.712 58.9623 105.476 56.7266 102.719 56.7266V58.2266ZM106.212 61.7197H104.712V81.4746H106.212H107.712V61.7197H106.212ZM106.212 81.4746H104.712C104.712 82.5752 103.819 83.4678 102.719 83.4678V84.9678V86.4678C105.476 86.4678 107.712 84.232 107.712 81.4746H106.212ZM102.719 84.9678L102.719 83.4678C101.619 83.4677 100.727 82.5756 100.727 81.4746H99.2266H97.7266C97.7266 84.2315 99.9609 86.4676 102.719 86.4678L102.719 84.9678ZM99.2266 81.4746H100.727V61.7197H99.2266H97.7266V81.4746H99.2266ZM99.2266 61.7197H100.727C100.727 60.6188 101.619 59.7266 102.719 59.7266L102.719 58.2266L102.719 56.7266C99.9609 56.7267 97.7266 58.9628 97.7266 61.7197H99.2266ZM31.9902 68.2686L31.9901 69.7686C33.0906 69.7687 33.9824 70.6605 33.9824 71.7608L35.4824 71.7607L36.9824 71.7607C36.9823 69.0034 34.7473 66.7689 31.9904 66.7686L31.9902 68.2686ZM35.4824 71.7607H33.9824V76.3447H35.4824H36.9824V71.7607H35.4824ZM35.4824 76.3447H33.9824C33.9824 77.4455 33.0902 78.3378 31.9901 78.3379L31.9902 79.8379L31.9904 81.3379C34.7479 81.3376 36.9824 79.1016 36.9824 76.3447H35.4824ZM31.9902 79.8379V78.3379C30.8897 78.3379 29.9971 77.4453 29.9971 76.3447H28.4971H26.9971C26.9971 79.1021 29.2328 81.3379 31.9902 81.3379V79.8379ZM28.4971 76.3447H29.9971V71.7607H28.4971H26.9971V76.3447H28.4971ZM28.4971 71.7607L29.9971 71.7608C29.9971 70.6607 30.8892 69.7686 31.9902 69.7686V68.2686V66.7686C29.2334 66.7686 26.9972 69.0029 26.9971 71.7607L28.4971 71.7607ZM114.507 68.2686L114.507 69.7686C115.607 69.7686 116.499 70.6604 116.499 71.7608L117.999 71.7607L119.499 71.7607C119.499 69.0034 117.264 66.7687 114.507 66.7686L114.507 68.2686ZM117.999 71.7607H116.499V76.3447H117.999H119.499V71.7607H117.999ZM117.999 76.3447H116.499C116.499 77.4456 115.607 78.3378 114.507 78.3379L114.507 79.8379L114.507 81.3379C117.265 81.3377 119.499 79.1016 119.499 76.3447H117.999ZM114.507 79.8379V78.3379C113.406 78.3379 112.514 77.4453 112.514 76.3447H111.014H109.514C109.514 79.1021 111.749 81.3379 114.507 81.3379V79.8379ZM111.014 76.3447H112.514V71.7607H111.014H109.514V76.3447H111.014ZM111.014 71.7607L112.514 71.7608C112.514 70.6607 113.406 69.7686 114.507 69.7686V68.2686V66.7686C111.75 66.7686 109.514 69.0029 109.514 71.7607L111.014 71.7607Z" fill="#191919" style="fill:#191919;fill:color(display-p3 0.0994 0.0994 0.0994);fill-opacity:1;" mask="url(#path-1-inside-1_5071_38580)"/>
<circle cx="155.2" cy="50.7538" r="16.7538" fill="#D4FF89" style="fill:#D4FF89;fill:color(display-p3 0.8308 1.0000 0.5384);fill-opacity:1;"/>
<path d="M149.232 52.9883C149.115 52.5208 148.979 52.0339 148.823 51.5274C148.667 51.021 148.499 50.5116 148.319 49.9992C148.143 49.4867 147.958 48.9848 147.767 48.4934C147.575 48.0019 147.383 47.536 147.191 47.0955H147.614C147.425 47.536 147.235 48.0019 147.043 48.4934C146.851 48.9848 146.665 49.4867 146.486 49.9992C146.309 50.5116 146.142 51.021 145.987 51.5274C145.831 52.0339 145.694 52.5208 145.578 52.9883H144.436C144.634 52.3021 144.857 51.5964 145.106 50.8712C145.354 50.146 145.619 49.4283 145.901 48.7181C146.183 48.0049 146.469 47.3307 146.76 46.6954H148.081C148.3 47.1719 148.516 47.6708 148.728 48.1922C148.944 48.7136 149.151 49.2455 149.349 49.7879C149.55 50.3273 149.738 50.8682 149.915 51.4106C150.095 51.95 150.257 52.4759 150.401 52.9883H149.232ZM149.263 51.3342H145.578L145.703 50.4352H149.133L149.263 51.3342ZM151.617 46.6954H152.718V52.9883H151.617V46.6954ZM154.47 46.6954H159.028V47.6214H155.09L155.571 47.1898V52.9883H154.47V46.6954ZM155.09 49.4823H158.421V50.4082H155.09V49.4823ZM160.413 46.6954H164.971V47.6214H161.034L161.515 47.1898V52.9883H160.413V46.6954ZM161.034 49.4823H164.364V50.4082H161.034V49.4823Z" fill="#191919" style="fill:#191919;fill:color(display-p3 0.0994 0.0994 0.0994);fill-opacity:1;"/>
<ellipse cx="195.655" cy="68.7538" rx="16.3451" ry="16.7538" fill="#6178FD" style="fill:#6178FD;fill:color(display-p3 0.3804 0.4706 0.9922);fill-opacity:1;"/>
<path d="M192.806 64.6974H193.965C193.825 65.3866 193.661 66.0908 193.475 66.81C193.293 67.5262 193.095 68.2379 192.882 68.9451C192.669 69.6522 192.452 70.334 192.23 70.9902H190.801L189.574 66.3155H189.776L188.549 70.9902H187.133C186.908 70.334 186.69 69.6522 186.477 68.9451C186.264 68.2379 186.065 67.5262 185.879 66.81C185.696 66.0908 185.534 65.3866 185.394 64.6974H186.585C186.693 65.2997 186.818 65.926 186.962 66.5762C187.109 67.2265 187.266 67.8723 187.434 68.5135C187.602 69.1518 187.773 69.7586 187.947 70.334H187.794L189.111 65.3491H190.262L191.574 70.334H191.43C191.604 69.7586 191.776 69.1518 191.947 68.5135C192.118 67.8723 192.277 67.2265 192.424 66.5762C192.573 65.926 192.701 65.2997 192.806 64.6974ZM198.974 70.9902C198.857 70.5228 198.721 70.0358 198.565 69.5294C198.409 69.023 198.242 68.5135 198.062 68.0011C197.885 67.4887 197.701 66.9868 197.509 66.4953C197.317 66.0039 197.125 65.5379 196.934 65.0974H197.356C197.167 65.5379 196.977 66.0039 196.785 66.4953C196.593 66.9868 196.408 67.4887 196.228 68.0011C196.051 68.5135 195.885 69.023 195.729 69.5294C195.573 70.0358 195.437 70.5228 195.32 70.9902H194.178C194.376 70.304 194.599 69.5983 194.848 68.8731C195.097 68.148 195.362 67.4303 195.644 66.7201C195.925 66.0069 196.211 65.3326 196.502 64.6974H197.824C198.042 65.1738 198.258 65.6728 198.471 66.1942C198.687 66.7156 198.893 67.2475 199.091 67.7899C199.292 68.3292 199.481 68.8701 199.658 69.4125C199.837 69.9519 199.999 70.4778 200.143 70.9902H198.974ZM199.006 69.3361H195.32L195.446 68.4371H198.875L199.006 69.3361ZM204.804 64.6974H205.959C205.771 65.3836 205.553 66.0893 205.308 66.8145C205.062 67.5396 204.801 68.2573 204.525 68.9675C204.25 69.6777 203.971 70.352 203.689 70.9902H202.359C202.074 70.352 201.794 69.6777 201.518 68.9675C201.243 68.2573 200.982 67.5396 200.736 66.8145C200.493 66.0893 200.276 65.3836 200.084 64.6974H201.276C201.437 65.3237 201.625 65.9814 201.837 66.6706C202.053 67.3568 202.281 68.0371 202.521 68.7113C202.763 69.3826 203.008 70.0133 203.253 70.6037H202.813C202.996 70.1602 203.18 69.6927 203.366 69.2013C203.552 68.7098 203.731 68.2079 203.905 67.6955C204.079 67.183 204.242 66.6736 204.395 66.1672C204.548 65.6578 204.684 65.1678 204.804 64.6974Z" fill="white" style="fill:white;fill-opacity:1;"/>
<circle cx="188.754" cy="113.754" r="16.7538" fill="#A8BEFF" style="fill:#A8BEFF;fill:color(display-p3 0.6588 0.7451 1.0000);fill-opacity:1;"/>
<path d="M178.542 113.662C178.542 113.033 178.667 112.473 178.915 111.981C179.167 111.49 179.522 111.105 179.981 110.826C180.442 110.544 180.984 110.403 181.608 110.403H181.752C182.222 110.403 182.645 110.484 183.019 110.646C183.397 110.805 183.719 111.031 183.986 111.325C184.255 111.615 184.461 111.96 184.601 112.359C184.745 112.754 184.817 113.189 184.817 113.662C184.817 114.291 184.691 114.852 184.44 115.343C184.191 115.835 183.837 116.221 183.379 116.503C182.92 116.782 182.378 116.921 181.752 116.921H181.608C181.14 116.921 180.718 116.842 180.34 116.683C179.963 116.521 179.641 116.295 179.374 116.004C179.107 115.71 178.902 115.364 178.758 114.966C178.614 114.567 178.542 114.133 178.542 113.662ZM179.675 113.662C179.675 114.136 179.754 114.548 179.913 114.898C180.075 115.249 180.301 115.52 180.592 115.712C180.886 115.901 181.226 115.995 181.612 115.995H181.747C182.137 115.995 182.477 115.901 182.767 115.712C183.058 115.52 183.283 115.249 183.442 114.898C183.604 114.548 183.684 114.136 183.684 113.662C183.684 113.186 183.604 112.774 183.442 112.426C183.283 112.075 183.058 111.806 182.767 111.617C182.477 111.425 182.137 111.329 181.747 111.329H181.612C181.226 111.329 180.886 111.425 180.592 111.617C180.301 111.806 180.075 112.075 179.913 112.426C179.754 112.774 179.675 113.186 179.675 113.662ZM185.776 113.716C185.776 113.069 185.905 112.496 186.163 111.999C186.424 111.502 186.786 111.112 187.251 110.83C187.715 110.546 188.256 110.403 188.873 110.403H189.013C189.585 110.403 190.079 110.525 190.496 110.767C190.912 111.007 191.25 111.332 191.507 111.743L190.667 112.287C190.481 111.984 190.249 111.749 189.97 111.581C189.694 111.41 189.36 111.325 188.968 111.325H188.833C188.467 111.325 188.139 111.419 187.848 111.608C187.558 111.794 187.327 112.063 187.156 112.417C186.988 112.768 186.904 113.192 186.904 113.689C186.904 114.169 186.985 114.582 187.147 114.93C187.312 115.277 187.544 115.544 187.844 115.73C188.144 115.916 188.494 116.008 188.896 116.008H189.026C189.395 116.008 189.724 115.962 190.015 115.869C190.306 115.773 190.547 115.638 190.739 115.465L190.622 115.905V113.9L190.999 114.264H188.824V113.37H191.692V116.053C191.503 116.23 191.268 116.385 190.986 116.516C190.704 116.645 190.394 116.744 190.055 116.813C189.72 116.885 189.369 116.921 189.004 116.921H188.873C188.397 116.921 187.967 116.843 187.583 116.687C187.203 116.531 186.877 116.313 186.608 116.031C186.341 115.746 186.136 115.408 185.992 115.015C185.848 114.623 185.776 114.19 185.776 113.716ZM192.852 113.716C192.852 113.069 192.981 112.496 193.239 111.999C193.499 111.502 193.862 111.112 194.327 110.83C194.791 110.546 195.332 110.403 195.949 110.403H196.089C196.661 110.403 197.155 110.525 197.572 110.767C197.988 111.007 198.326 111.332 198.583 111.743L197.743 112.287C197.557 111.984 197.325 111.749 197.046 111.581C196.77 111.41 196.436 111.325 196.044 111.325H195.909C195.543 111.325 195.215 111.419 194.924 111.608C194.634 111.794 194.403 112.063 194.232 112.417C194.064 112.768 193.98 113.192 193.98 113.689C193.98 114.169 194.061 114.582 194.223 114.93C194.388 115.277 194.62 115.544 194.92 115.73C195.22 115.916 195.57 116.008 195.972 116.008H196.102C196.471 116.008 196.8 115.962 197.091 115.869C197.382 115.773 197.623 115.638 197.815 115.465L197.698 115.905V113.9L198.075 114.264H195.9V113.37H198.768V116.053C198.579 116.23 198.343 116.385 198.062 116.516C197.78 116.645 197.47 116.744 197.131 116.813C196.796 116.885 196.445 116.921 196.08 116.921H195.949C195.473 116.921 195.043 116.843 194.659 116.687C194.279 116.531 193.953 116.313 193.684 116.031C193.417 115.746 193.212 115.408 193.068 115.015C192.924 114.623 192.852 114.19 192.852 113.716Z" fill="#191919" style="fill:#191919;fill:color(display-p3 0.0994 0.0994 0.0994);fill-opacity:1;"/>
<ellipse cx="155.2" cy="91.3451" rx="16.7538" ry="16.3451" fill="#FF7BC8" style="fill:#FF7BC8;fill:color(display-p3 1.0000 0.4813 0.7830);fill-opacity:1;"/>
<path d="M145.375 87.6974H146.638L148.831 91.6709H148.683L150.863 87.6974H152.126V93.9902H151.074V88.8031H151.25L149.231 92.4934H148.27L146.233 88.8031H146.431V93.9902H145.375V87.6974ZM153.882 87.6974H156.583C157.096 87.6974 157.53 87.7798 157.887 87.9446C158.243 88.1064 158.515 88.3431 158.7 88.6548C158.886 88.9664 158.979 89.347 158.979 89.7965C158.979 90.4707 158.772 90.9891 158.359 91.3517C157.948 91.7143 157.356 91.8956 156.583 91.8956H154.659V90.9831H156.471C156.941 90.9831 157.29 90.8858 157.518 90.691C157.749 90.4962 157.864 90.198 157.864 89.7965C157.864 89.3979 157.749 89.1013 157.518 88.9065C157.29 88.7117 156.941 88.6143 156.471 88.6143H154.493L154.97 88.1738V93.9902H153.882V87.6974ZM163.37 92.0215C163.37 91.6649 163.25 91.3862 163.01 91.1854C162.773 90.9846 162.454 90.8843 162.053 90.8843H161.967C161.838 90.8843 161.711 90.8917 161.585 90.9067C161.459 90.9187 161.329 90.9412 161.194 90.9742V90.2145L163.334 88.1738V88.5918H160.088V87.6974H164.255V88.4705L162.259 90.3583L161.954 90.1021C161.99 90.0961 162.029 90.0916 162.07 90.0887C162.112 90.0827 162.148 90.0797 162.178 90.0797H162.286C162.721 90.0797 163.101 90.1636 163.428 90.3314C163.758 90.4992 164.014 90.7299 164.197 91.0236C164.382 91.3143 164.475 91.6514 164.475 92.0349C164.475 92.4485 164.379 92.8111 164.188 93.1227C163.999 93.4314 163.732 93.6726 163.387 93.8464C163.043 94.0172 162.64 94.1026 162.178 94.1026H162.061C161.564 94.1026 161.124 94.0037 160.74 93.8059C160.359 93.6082 160.027 93.3085 159.742 92.907L160.47 92.2957C160.698 92.6043 160.935 92.832 161.18 92.9789C161.429 93.1257 161.708 93.1991 162.017 93.1991H162.102C162.483 93.1991 162.788 93.0957 163.019 92.889C163.253 92.6792 163.37 92.39 163.37 92.0215Z" fill="#191919" style="fill:#191919;fill:color(display-p3 0.0994 0.0994 0.0994);fill-opacity:1;"/>
</svg>
