<svg width="20" height="20" viewBox="0 0 20 20" fill="none" xmlns="http://www.w3.org/2000/svg">
<path fill-rule="evenodd" clip-rule="evenodd" d="M10.0002 6.63197V1.66669H15.0002C15.9206 1.66669 16.6668 2.41288 16.6668 3.33335V16.6667C16.6668 17.5872 15.9206 18.3334 15.0002 18.3334H5.00016C4.07969 18.3334 3.3335 17.5872 3.3335 16.6667V8.29863H8.3335C9.25397 8.29863 10.0002 7.55244 10.0002 6.63197ZM8.3335 6.63196V1.66669L3.36827 6.63196H8.3335ZM8.5 9.37617V14.6238C8.5 14.9312 8.83142 15.1111 9.06413 14.9237L12.3572 12.2999C12.5476 12.1499 12.5476 11.8501 12.3572 11.7001L9.06413 9.0763C8.83142 8.88888 8.5 9.0688 8.5 9.37617Z" fill="white"/>
</svg>
