<svg width="244" height="147" viewBox="0 0 244 147" fill="none" xmlns="http://www.w3.org/2000/svg">
<g clip-path="url(#clip0_5071_38461)">
<rect width="244" height="147" fill="#191919" style="fill:#191919;fill:color(display-p3 0.0994 0.0994 0.0994);fill-opacity:1;"/>
<path d="M72.772 43H107.442V108.53H57.1514V58.2396L72.772 43Z" stroke="white" style="stroke:white;stroke-opacity:1;" stroke-width="1.52396" stroke-linejoin="round"/>
<path d="M57.1514 58.2395H72.391V43.3809" stroke="white" style="stroke:white;stroke-opacity:1;" stroke-width="1.52396" stroke-linejoin="round"/>
<rect x="75.4375" y="67.3828" width="38.0991" height="17.5256" fill="#FF7BC8" style="fill:#FF7BC8;fill:color(display-p3 1.0000 0.4813 0.7830);fill-opacity:1;"/>
<path d="M85.708 73.5644H86.8856L88.9308 77.2691H88.7925L90.825 73.5644H92.0027V79.4316H91.022V74.5953H91.1855L89.3037 78.0361H88.4069L86.5084 74.5953H86.6928V79.4316H85.708V73.5644ZM93.6396 73.5644H96.1583C96.636 73.5644 97.0412 73.6412 97.3736 73.7949C97.7061 73.9458 97.959 74.1665 98.1322 74.457C98.3054 74.7476 98.392 75.1024 98.392 75.5215C98.392 76.1502 98.1993 76.6335 97.8137 76.9716C97.4309 77.3096 96.8791 77.4787 96.1583 77.4787H94.3646V76.6279H96.0535C96.4922 76.6279 96.8177 76.5371 97.03 76.3555C97.2451 76.1739 97.3527 75.8959 97.3527 75.5215C97.3527 75.1499 97.2451 74.8733 97.03 74.6917C96.8177 74.5101 96.4922 74.4193 96.0535 74.4193H94.2095L94.6538 74.0086V79.4316H93.6396V73.5644ZM102.486 77.596C102.486 77.2635 102.374 77.0037 102.15 76.8165C101.93 76.6293 101.632 76.5357 101.258 76.5357H101.178C101.058 76.5357 100.939 76.5427 100.822 76.5567C100.704 76.5679 100.583 76.5888 100.457 76.6195V75.9113L102.452 74.0086V74.3984H99.4263V73.5644H103.311V74.2852L101.45 76.0454L101.165 75.8065C101.199 75.8009 101.235 75.7967 101.274 75.7939C101.314 75.7884 101.347 75.7856 101.375 75.7856H101.476C101.881 75.7856 102.236 75.8638 102.54 76.0203C102.847 76.1767 103.086 76.3918 103.257 76.6656C103.43 76.9367 103.517 77.251 103.517 77.6086C103.517 77.9942 103.427 78.3322 103.248 78.6228C103.072 78.9106 102.824 79.1355 102.502 79.2975C102.181 79.4568 101.805 79.5364 101.375 79.5364H101.266C100.802 79.5364 100.392 79.4442 100.034 79.2598C99.6791 79.0754 99.369 78.796 99.1036 78.4216L99.7825 77.8517C99.9948 78.1394 100.216 78.3518 100.445 78.4887C100.677 78.6256 100.936 78.694 101.224 78.694H101.304C101.659 78.694 101.944 78.5977 102.159 78.4049C102.377 78.2093 102.486 77.9397 102.486 77.596Z" fill="black" style="fill:black;fill-opacity:1;"/>
<path d="M145.921 43H180.592V108.53H130.301V58.2396L145.921 43Z" stroke="white" style="stroke:white;stroke-opacity:1;" stroke-width="1.52396" stroke-linejoin="round"/>
<path d="M130.301 58.2395H145.54V43.3809" stroke="white" style="stroke:white;stroke-opacity:1;" stroke-width="1.52396" stroke-linejoin="round"/>
<rect x="148.588" y="67.3828" width="38.0991" height="17.5256" fill="#6178FD" style="fill:#6178FD;fill:color(display-p3 0.3804 0.4706 0.9922);fill-opacity:1;"/>
<path d="M164.982 73.5644H166.063C165.932 74.207 165.779 74.8636 165.606 75.5341C165.436 76.2019 165.251 76.8654 165.053 77.5248C164.855 78.1842 164.652 78.8198 164.445 79.4316H163.113L161.968 75.0731H162.157L161.013 79.4316H159.693C159.483 78.8198 159.279 78.1842 159.081 77.5248C158.883 76.8654 158.697 76.2019 158.524 75.5341C158.353 74.8636 158.202 74.207 158.071 73.5644H159.181C159.282 74.126 159.399 74.7099 159.534 75.3162C159.67 75.9225 159.817 76.5246 159.974 77.1225C160.13 77.7176 160.289 78.2833 160.451 78.8198H160.309L161.537 74.1721H162.61L163.833 78.8198H163.699C163.861 78.2833 164.022 77.7176 164.181 77.1225C164.34 76.5246 164.489 75.9225 164.625 75.3162C164.765 74.7099 164.884 74.126 164.982 73.5644ZM170.733 79.4316C170.624 78.9958 170.497 78.5418 170.352 78.0696C170.206 77.5974 170.05 77.1225 169.882 76.6447C169.718 76.1669 169.546 75.6989 169.367 75.2407C169.188 74.7825 169.009 74.3481 168.83 73.9374H169.224C169.048 74.3481 168.871 74.7825 168.692 75.2407C168.513 75.6989 168.34 76.1669 168.172 76.6447C168.008 77.1225 167.853 77.5974 167.707 78.0696C167.562 78.5418 167.435 78.9958 167.326 79.4316H166.261C166.446 78.7918 166.654 78.1339 166.886 77.4577C167.118 76.7816 167.365 76.1124 167.628 75.4503C167.89 74.7853 168.157 74.1567 168.428 73.5644H169.66C169.864 74.0086 170.065 74.4738 170.264 74.96C170.465 75.4461 170.658 75.942 170.842 76.4477C171.029 76.9506 171.205 77.4549 171.37 77.9606C171.538 78.4635 171.689 78.9539 171.823 79.4316H170.733ZM170.762 77.8894H167.326L167.443 77.0512H170.641L170.762 77.8894ZM176.169 73.5644H177.246C177.07 74.2042 176.867 74.8622 176.638 75.5383C176.409 76.2144 176.166 76.8836 175.909 77.5457C175.652 78.2079 175.392 78.8365 175.129 79.4316H173.889C173.623 78.8365 173.362 78.2079 173.105 77.5457C172.848 76.8836 172.605 76.2144 172.376 75.5383C172.15 74.8622 171.947 74.2042 171.768 73.5644H172.879C173.03 74.1483 173.204 74.7616 173.403 75.4042C173.604 76.044 173.816 76.6782 174.04 77.3069C174.266 77.9327 174.494 78.5208 174.723 79.0712H174.312C174.482 78.6577 174.654 78.2219 174.828 77.7637C175.001 77.3055 175.168 76.8375 175.33 76.3597C175.492 75.882 175.645 75.407 175.787 74.9348C175.93 74.4598 176.057 74.003 176.169 73.5644Z" fill="white" style="fill:white;fill-opacity:1;"/>
<path d="M219.072 43H253.742V108.53H203.451V58.2396L219.072 43Z" stroke="white" style="stroke:white;stroke-opacity:1;" stroke-width="1.52396" stroke-linejoin="round"/>
<path d="M203.451 58.2395H218.691V43.3809" stroke="white" style="stroke:white;stroke-opacity:1;" stroke-width="1.52396" stroke-linejoin="round"/>
<rect x="221.738" y="67.3828" width="38.0991" height="17.5256" fill="#A8BEFF" style="fill:#A8BEFF;fill:color(display-p3 0.6588 0.7451 1.0000);fill-opacity:1;"/>
<path d="M231.267 76.498C231.267 75.9113 231.382 75.3888 231.614 74.9306C231.849 74.4724 232.18 74.1134 232.608 73.8536C233.038 73.5909 233.544 73.4596 234.125 73.4596H234.259C234.697 73.4596 235.091 73.535 235.441 73.6859C235.793 73.834 236.093 74.0449 236.342 74.3187C236.593 74.5898 236.785 74.9111 236.916 75.2827C237.05 75.6515 237.117 76.0566 237.117 76.498C237.117 77.0847 237 77.6072 236.765 78.0654C236.533 78.5236 236.203 78.884 235.776 79.1467C235.348 79.4065 234.843 79.5364 234.259 79.5364H234.125C233.689 79.5364 233.295 79.4624 232.943 79.3143C232.591 79.1634 232.291 78.9525 232.042 78.6815C231.793 78.4077 231.602 78.085 231.468 77.7134C231.334 77.3418 231.267 76.9367 231.267 76.498ZM232.323 76.498C232.323 76.9395 232.397 77.3236 232.545 77.6505C232.696 77.9774 232.907 78.2303 233.178 78.4091C233.451 78.5851 233.768 78.6731 234.129 78.6731H234.255C234.618 78.6731 234.935 78.5851 235.206 78.4091C235.477 78.2303 235.687 77.9774 235.835 77.6505C235.985 77.3236 236.061 76.9395 236.061 76.498C236.061 76.0538 235.985 75.6696 235.835 75.3455C235.687 75.0186 235.477 74.7672 235.206 74.5912C234.935 74.4123 234.618 74.3229 234.255 74.3229H234.129C233.768 74.3229 233.451 74.4123 233.178 74.5912C232.907 74.7672 232.696 75.0186 232.545 75.3455C232.397 75.6696 232.323 76.0538 232.323 76.498ZM238.011 76.5483C238.011 75.9448 238.131 75.4112 238.372 74.9474C238.615 74.4836 238.953 74.1204 239.386 73.8577C239.819 73.5923 240.323 73.4596 240.899 73.4596H241.029C241.562 73.4596 242.023 73.5728 242.412 73.7991C242.8 74.0226 243.114 74.3257 243.355 74.7085L242.571 75.2156C242.398 74.9334 242.181 74.7141 241.921 74.5576C241.664 74.3984 241.353 74.3187 240.987 74.3187H240.861C240.52 74.3187 240.214 74.4068 239.943 74.5828C239.672 74.756 239.457 75.0075 239.298 75.3371C239.141 75.664 239.063 76.0594 239.063 76.5232C239.063 76.9702 239.139 77.3557 239.289 77.6798C239.443 78.0039 239.66 78.2526 239.939 78.4258C240.218 78.599 240.545 78.6857 240.92 78.6857H241.041C241.385 78.6857 241.692 78.6424 241.963 78.5557C242.234 78.4663 242.459 78.3406 242.638 78.1786L242.529 78.5893V76.7201L242.881 77.0596H240.853V76.2256H243.526V78.7276C243.35 78.8924 243.131 79.0363 242.869 79.1592C242.606 79.2794 242.317 79.3716 242.001 79.4358C241.688 79.5029 241.361 79.5364 241.02 79.5364H240.899C240.455 79.5364 240.054 79.4638 239.696 79.3185C239.341 79.1732 239.038 78.9692 238.787 78.7066C238.538 78.4412 238.347 78.1255 238.212 77.7595C238.078 77.3935 238.011 76.9897 238.011 76.5483ZM244.609 76.5483C244.609 75.9448 244.729 75.4112 244.969 74.9474C245.212 74.4836 245.55 74.1204 245.983 73.8577C246.416 73.5923 246.921 73.4596 247.496 73.4596H247.626C248.16 73.4596 248.621 73.5728 249.009 73.7991C249.397 74.0226 249.712 74.3257 249.952 74.7085L249.168 75.2156C248.995 74.9334 248.779 74.7141 248.519 74.5576C248.262 74.3984 247.95 74.3187 247.584 74.3187H247.458C247.118 74.3187 246.812 74.4068 246.541 74.5828C246.27 74.756 246.055 75.0075 245.895 75.3371C245.739 75.664 245.661 76.0594 245.661 76.5232C245.661 76.9702 245.736 77.3557 245.887 77.6798C246.041 78.0039 246.257 78.2526 246.536 78.4258C246.816 78.599 247.143 78.6857 247.517 78.6857H247.639C247.982 78.6857 248.29 78.6424 248.561 78.5557C248.832 78.4663 249.057 78.3406 249.235 78.1786L249.126 78.5893V76.7201L249.478 77.0596H247.45V76.2256H250.124V78.7276C249.948 78.8924 249.729 79.0363 249.466 79.1592C249.203 79.2794 248.914 79.3716 248.598 79.4358C248.285 79.5029 247.959 79.5364 247.618 79.5364H247.496C247.052 79.5364 246.651 79.4638 246.293 79.3185C245.939 79.1732 245.635 78.9692 245.384 78.7066C245.135 78.4412 244.944 78.1255 244.81 77.7595C244.676 77.3935 244.609 76.9897 244.609 76.5483Z" fill="black" style="fill:black;fill-opacity:1;"/>
<path d="M-0.379386 43H34.2908V108.53H-16V58.2396L-0.379386 43Z" stroke="white" style="stroke:white;stroke-opacity:1;" stroke-width="1.52396" stroke-linejoin="round"/>
<path d="M-16 58.2395H-0.760375V43.3809" stroke="white" style="stroke:white;stroke-opacity:1;" stroke-width="1.52396" stroke-linejoin="round"/>
<rect x="2.28711" y="67.3828" width="38.0991" height="17.5256" fill="#D4FF89" style="fill:#D4FF89;fill:color(display-p3 0.8308 1.0000 0.5384);fill-opacity:1;"/>
<path d="M16.1528 79.4316C16.0439 78.9958 15.9168 78.5418 15.7715 78.0696C15.6262 77.5974 15.4697 77.1225 15.3021 76.6447C15.1372 76.1669 14.9654 75.6989 14.7866 75.2407C14.6078 74.7825 14.429 74.3481 14.2502 73.9374H14.6441C14.4681 74.3481 14.2907 74.7825 14.1119 75.2407C13.9331 75.6989 13.7598 76.1669 13.5922 76.6447C13.4274 77.1225 13.2723 77.5974 13.127 78.0696C12.9817 78.5418 12.8546 78.9958 12.7456 79.4316H11.6812C11.8656 78.7918 12.0737 78.1339 12.3056 77.4577C12.5375 76.7816 12.7848 76.1124 13.0474 75.4503C13.31 74.7853 13.5768 74.1567 13.8478 73.5644H15.08C15.2839 74.0086 15.4851 74.4738 15.6835 74.96C15.8846 75.4461 16.0774 75.942 16.2618 76.4477C16.449 76.9506 16.625 77.4549 16.7899 77.9606C16.9575 78.4635 17.1084 78.9539 17.2425 79.4316H16.1528ZM16.1822 77.8894H12.7456L12.863 77.0512H16.0606L16.1822 77.8894ZM18.3764 73.5644H19.4031V79.4316H18.3764V73.5644ZM21.0366 73.5644H25.2862V74.4277H21.615L22.0634 74.0254V79.4316H21.0366V73.5644ZM21.615 76.1627H24.7204V77.0261H21.615V76.1627ZM26.5781 73.5644H30.8277V74.4277H27.1564L27.6049 74.0254V79.4316H26.5781V73.5644ZM27.1564 76.1627H30.2619V77.0261H27.1564V76.1627Z" fill="black" style="fill:black;fill-opacity:1;"/>
</g>
<defs>
<clipPath id="clip0_5071_38461">
<rect width="244" height="147" fill="white" style="fill:white;fill-opacity:1;"/>
</clipPath>
</defs>
</svg>
