<svg width="24" height="24" viewBox="0 0 24 24" fill="none" xmlns="http://www.w3.org/2000/svg">
<path fill-rule="evenodd" clip-rule="evenodd" d="M6.3 7.65C6.3 7.4567 6.4567 7.3 6.65 7.3H9.73579C9.82861 7.3 9.91764 7.33687 9.98327 7.40251L11.1904 8.60962C11.3123 8.73152 11.4776 8.8 11.65 8.8H16.65C16.8433 8.8 17 8.9567 17 9.15V16.15C17 16.3433 16.8433 16.5 16.65 16.5H6.65C6.4567 16.5 6.3 16.3433 6.3 16.15V7.65ZM6.65 6C5.73873 6 5 6.73873 5 7.65V16.15C5 17.0613 5.73873 17.8 6.65 17.8H16.65C17.5613 17.8 18.3 17.0613 18.3 16.15V9.15C18.3 8.23873 17.5613 7.5 16.65 7.5H11.9192L10.9025 6.48327C10.5931 6.17384 10.1734 6 9.73579 6H6.65ZM10.9784 12.8063C10.9252 13.0499 11.1387 13.255 11.388 13.255C11.6374 13.255 11.8129 13.0397 11.9194 12.8142C11.9251 12.8021 11.9312 12.7904 11.9375 12.779C12.0029 12.6624 12.1172 12.5387 12.2805 12.408L12.5185 12.2155C12.6702 12.0919 12.7997 11.9717 12.907 11.855C13.0167 11.7384 13.0995 11.61 13.1555 11.47C13.2139 11.33 13.243 11.1632 13.243 10.9695C13.243 10.7129 13.1742 10.4854 13.0365 10.287C12.8989 10.0887 12.7075 9.93352 12.4625 9.82152C12.2175 9.70719 11.9352 9.65002 11.6155 9.65002H11.528C11.1477 9.65002 10.8059 9.75036 10.5025 9.95102C10.3101 10.0783 10.1387 10.2362 9.98854 10.4246C9.83889 10.6123 9.91009 10.8808 10.1135 11.0082C10.3257 11.141 10.5991 11.0676 10.7724 10.887C10.9995 10.6504 11.2525 10.532 11.5315 10.532H11.612C11.7894 10.532 11.9364 10.5822 12.053 10.6825C12.172 10.7805 12.2315 10.9054 12.2315 11.057C12.2315 11.1877 12.2035 11.3009 12.1475 11.3965C12.0939 11.4899 11.9772 11.6112 11.7975 11.7605L11.5595 11.9565C11.4102 12.0802 11.29 12.2027 11.199 12.324C11.108 12.443 11.0415 12.576 10.9995 12.723C10.9918 12.7497 10.9848 12.7774 10.9784 12.8063ZM10.9435 14.7705C11.0555 14.8802 11.2037 14.935 11.388 14.935C11.5724 14.935 11.7194 14.8802 11.829 14.7705C11.941 14.6585 11.997 14.5162 11.997 14.3435C11.997 14.1685 11.941 14.0262 11.829 13.9165C11.717 13.8069 11.57 13.752 11.388 13.752C11.2037 13.752 11.0555 13.8069 10.9435 13.9165C10.8315 14.0262 10.7755 14.1685 10.7755 14.3435C10.7755 14.5162 10.8315 14.6585 10.9435 14.7705Z" fill="#FCC12B" style="fill:#FCC12B;fill:color(display-p3 0.9882 0.7569 0.1686);fill-opacity:1;"/>
</svg>
