<svg width="14" height="16" viewBox="0 0 14 16" fill="none" xmlns="http://www.w3.org/2000/svg">
<path d="M11.5437 2.83398L10.7188 3.77673C11.7101 4.9099 12.2561 6.41648 12.2561 8.01907C12.2561 9.62132 11.7102 11.1278 10.7189 12.2611L11.544 13.2038C12.7555 11.8187 13.4228 9.97749 13.4228 8.01907C13.4228 6.0604 12.7555 4.21898 11.5437 2.83398Z" fill="white" style="fill:white;fill-opacity:1;"/>
<path d="M9.04167 5.6934L9.86672 4.75065C10.6358 5.62998 11.0594 6.7989 11.0594 8.04223C11.0594 9.2854 10.6359 10.4543 9.86687 11.3336L9.04175 10.3911C9.59052 9.76348 9.89276 8.9294 9.89276 8.04223C9.89276 7.15507 9.59044 6.32082 9.04167 5.6934Z" fill="white" style="fill:white;fill-opacity:1;"/>
<path d="M7.60813 7.99723C7.60813 7.8194 7.54754 7.65207 7.43758 7.52624L8.26307 6.58398C8.59309 6.96165 8.7748 7.46357 8.7748 7.99723C8.7748 8.53115 8.59294 9.03315 8.26278 9.41074L7.43751 8.4684C7.54754 8.34249 7.60813 8.17524 7.60813 7.99723Z" fill="white" style="fill:white;fill-opacity:1;"/>
<path d="M3.30554 6.00065L5.48334 3.68179C5.66009 3.53029 5.89663 3.50571 6.09423 3.61888C6.29184 3.73171 6.41667 3.96263 6.41667 4.21513V11.7507C6.41667 12.0032 6.29184 12.2341 6.09423 12.3469C6.01169 12.3942 5.9223 12.4173 5.83341 12.4173C5.70945 12.4173 5.5863 12.3722 5.48334 12.284L3.30554 10.0007H2.33334C1.68901 10.0007 1.16667 9.4037 1.16667 8.66732V7.33398C1.16667 6.5976 1.68901 6.00065 2.33334 6.00065H3.30554Z" fill="white" style="fill:white;fill-opacity:1;"/>
</svg>
