<svg width="24" height="24" viewBox="0 0 24 24" fill="none" xmlns="http://www.w3.org/2000/svg">
<path d="M4 9.0332H9.3V14.8332H4C3.72386 14.8332 3.5 14.6093 3.5 14.3332V9.5332C3.5 9.25706 3.72386 9.0332 4 9.0332Z" fill="white" stroke="white" style="fill:white;fill-opacity:1;stroke:white;stroke-opacity:1;"/>
<path d="M8.0332 15.0657V8.80093L13.0559 5.45249C13.3881 5.23097 13.8332 5.46917 13.8332 5.86852V17.9982C13.8332 18.3975 13.3881 18.6357 13.0559 18.4142L8.0332 15.0657Z" fill="white" stroke="white" style="fill:white;fill-opacity:1;stroke:white;stroke-opacity:1;"/>
<path d="M15.4668 14.1998C16.7186 14.1998 17.7335 13.185 17.7335 11.9332C17.7335 10.6813 16.7186 9.6665 15.4668 9.6665" stroke="white" style="stroke:white;stroke-opacity:1;"/>
<path d="M15.4668 16.4666C17.9705 16.4666 20.0001 14.4369 20.0001 11.9332C20.0001 9.42954 17.9705 7.3999 15.4668 7.3999" stroke="white" style="stroke:white;stroke-opacity:1;"/>
</svg>
