<svg width="24" height="24" viewBox="0 0 24 24" fill="none" xmlns="http://www.w3.org/2000/svg">
<g clip-path="url(#clip0_75_24)">
<path fill-rule="evenodd" clip-rule="evenodd" d="M4.59159 9.83331C5.0104 9.83331 5.34992 10.2492 5.34992 10.7621V14.3345C5.34992 14.8475 5.0104 15.2633 4.59159 15.2633C4.17277 15.2633 3.83325 14.8475 3.83325 14.3345V10.7621C3.83325 10.2492 4.17277 9.83331 4.59159 9.83331Z" fill="#E4E6EB" style="fill:#E4E6EB;fill:color(display-p3 0.8941 0.9020 0.9216);fill-opacity:1;"/>
<path fill-rule="evenodd" clip-rule="evenodd" d="M16.2583 9.83331C16.6771 9.83331 17.0167 10.2492 17.0167 10.7621V14.3345C17.0167 14.8475 16.6771 15.2633 16.2583 15.2633C15.8395 15.2633 15.5 14.8475 15.5 14.3345V10.7621C15.5 10.2492 15.8395 9.83331 16.2583 9.83331Z" fill="#E4E6EB" style="fill:#E4E6EB;fill:color(display-p3 0.8941 0.9020 0.9216);fill-opacity:1;"/>
<path fill-rule="evenodd" clip-rule="evenodd" d="M7.50833 7.5C7.92715 7.5 8.26667 7.87952 8.26667 8.34767L8.26667 16.1723C8.26667 16.6405 7.92715 17.02 7.50833 17.02C7.08952 17.02 6.75 16.6405 6.75 16.1723L6.75 8.34767C6.75 7.87952 7.08952 7.5 7.50833 7.5Z" fill="#E4E6EB" style="fill:#E4E6EB;fill:color(display-p3 0.8941 0.9020 0.9216);fill-opacity:1;"/>
<path fill-rule="evenodd" clip-rule="evenodd" d="M10.4251 5C10.8439 5 11.1834 5.31671 11.1834 5.70738L11.1834 18.2226C11.1834 18.6133 10.8439 18.93 10.4251 18.93C10.0063 18.93 9.66675 18.6133 9.66675 18.2226L9.66675 5.70738C9.66675 5.31671 10.0063 5 10.4251 5Z" fill="#E4E6EB" style="fill:#E4E6EB;fill:color(display-p3 0.8941 0.9020 0.9216);fill-opacity:1;"/>
<path fill-rule="evenodd" clip-rule="evenodd" d="M13.3416 7.33331C13.7604 7.33331 14.0999 7.67283 14.0999 8.09165L14.0999 16.8416C14.0999 17.2605 13.7604 17.6 13.3416 17.6C12.9228 17.6 12.5833 17.2605 12.5833 16.8416L12.5833 8.09165C12.5833 7.67283 12.9228 7.33331 13.3416 7.33331Z" fill="#E4E6EB" style="fill:#E4E6EB;fill:color(display-p3 0.8941 0.9020 0.9216);fill-opacity:1;"/>
<path fill-rule="evenodd" clip-rule="evenodd" d="M19.1751 8.66669C19.5939 8.66669 19.9334 9.05655 19.9334 9.53746L19.9334 15.5659C19.9334 16.0468 19.5939 16.4367 19.1751 16.4367C18.7563 16.4367 18.4167 16.0468 18.4167 15.5659L18.4167 9.53746C18.4167 9.05655 18.7563 8.66669 19.1751 8.66669Z" fill="#E4E6EB" style="fill:#E4E6EB;fill:color(display-p3 0.8941 0.9020 0.9216);fill-opacity:1;"/>
</g>
<defs>
<clipPath id="clip0_75_24">
<rect width="24" height="24" fill="white" style="fill:white;fill-opacity:1;"/>
</clipPath>
</defs>
</svg>
