<svg width="20" height="20" viewBox="0 0 20 20" fill="none" xmlns="http://www.w3.org/2000/svg">
<path fill-rule="evenodd" clip-rule="evenodd" d="M7.3306 3.40622C6.62513 4.02327 5.99194 4.77578 5.63522 5.4981C7.29429 4.34868 9.96394 4.34868 9.96394 4.34868V2.04983C9.49341 2.04983 8.88788 2.29808 8.27081 2.69445C7.43452 2.00144 6.19862 1.66669 4.58886 1.66669C4.29003 1.66669 4.04777 1.92399 4.04777 2.2414C4.04777 2.5588 4.29003 2.81611 4.58886 2.81611C5.79677 2.81611 6.70468 3.01829 7.3306 3.40622ZM14.2927 5.4981C13.9432 4.7902 13.328 4.05331 12.6395 3.44334C13.2663 3.04344 14.1836 2.83489 15.4104 2.83489C15.7093 2.83489 15.9515 2.57758 15.9515 2.26018C15.9515 1.94277 15.7093 1.68546 15.4104 1.68546C13.7887 1.68546 12.5465 2.0252 11.7099 2.7287C11.0747 2.31244 10.448 2.04983 9.96403 2.04983V4.34868C9.96403 4.34868 12.7062 4.34868 14.2927 5.4981ZM4.22994 11.2287C3.26391 11.3269 2.43531 11.8392 1.77661 12.761C1.59595 13.0139 1.64247 13.3744 1.88051 13.5663C2.11855 13.7581 2.45798 13.7087 2.63864 13.4559C3.10921 12.7973 3.66781 12.4371 4.34563 12.3706C4.40666 12.7636 4.48821 13.1524 4.58594 13.5221C3.81197 14.3231 3.47158 15.3688 3.59174 16.6245C3.62196 16.9402 3.88747 17.1702 4.18477 17.1381C4.48208 17.106 4.69859 16.824 4.66837 16.5082C4.60321 15.8273 4.71343 15.2522 5.01035 14.7683C5.05818 14.8781 5.10746 14.9829 5.15798 15.082C6.05006 16.8318 7.54242 17.82 8.9176 18.3333V6.8391C7.84453 6.8391 6.01628 7.15506 4.94315 8.33196C4.29869 8.07219 3.81494 7.50952 3.46508 6.61799C3.35011 6.32502 3.0333 6.18651 2.75746 6.30862C2.48163 6.43074 2.35123 6.76723 2.4662 7.06021C2.90402 8.17588 3.55619 8.9424 4.40005 9.33781C4.24779 9.87842 4.19936 10.5371 4.22994 11.2287ZM15.654 12.3706C15.593 12.7636 15.5114 13.1524 15.4137 13.5221C16.1877 14.3231 16.5281 15.3688 16.4079 16.6245C16.3777 16.9402 16.1122 17.1702 15.8149 17.1381C15.5176 17.106 15.3011 16.824 15.3313 16.5082C15.3964 15.8273 15.2862 15.2522 14.9893 14.7683C14.9415 14.8781 14.8922 14.9829 14.8417 15.082C13.9496 16.8318 12.4572 17.82 11.0821 18.3333V6.8391C12.1551 6.8391 13.9834 7.15506 15.0565 8.33196C15.701 8.0722 16.1847 7.50953 16.5346 6.61799C16.6495 6.32502 16.9664 6.18651 17.2422 6.30862C17.518 6.43074 17.6484 6.76723 17.5335 7.06021C17.0956 8.17588 16.4435 8.9424 15.5996 9.33781C15.7519 9.87843 15.8003 10.5371 15.7697 11.2287C16.7357 11.3269 17.5643 11.8392 18.223 12.761C18.4037 13.0139 18.3572 13.3744 18.1191 13.5663C17.8811 13.7581 17.5417 13.7087 17.361 13.4559C16.8904 12.7973 16.3318 12.4371 15.654 12.3706Z" fill="white"/>
</svg>
