<svg width="16" height="16" viewBox="0 0 16 16" fill="none" xmlns="http://www.w3.org/2000/svg">
<mask id="mask0_233_579" style="mask-type:alpha" maskUnits="userSpaceOnUse" x="1" y="1" width="14" height="14">
<path d="M13.333 1.33301C14.0694 1.33301 14.667 1.93062 14.667 2.66699V13.333C14.667 14.0694 14.0694 14.667 13.333 14.667H2.66699C1.93062 14.667 1.33301 14.0694 1.33301 13.333V2.66699C1.33301 1.93062 1.93062 1.33301 2.66699 1.33301H13.333ZM10.9971 5.6123C10.8667 5.48267 10.6563 5.48317 10.5264 5.61328L7.09277 9.05859C7.04076 9.11079 6.95645 9.11161 6.9043 9.05957L5.49121 7.64648C5.36106 7.51653 5.15063 7.51649 5.02051 7.64648L4.31348 8.35352C4.1833 8.4837 4.1833 8.69502 4.31348 8.8252L6.76465 11.2764C6.89491 11.4066 7.1062 11.4067 7.23633 11.2764L11.707 6.79004C11.8369 6.65968 11.8363 6.44831 11.7061 6.31836L10.9971 5.6123Z" fill="black" style="fill:black;fill-opacity:1;"/>
</mask>
<g mask="url(#mask0_233_579)">
<rect y="-0.0144043" width="16" height="16" fill="white" fill-opacity="0.9" style="fill:white;fill-opacity:0.9;"/>
</g>
</svg>
