<svg width="33" height="31" viewBox="0 0 33 31" fill="none" xmlns="http://www.w3.org/2000/svg">
<ellipse cx="16.4998" cy="15.2247" rx="16.4426" ry="15.2247" fill="white" fill-opacity="0.2" style="fill:white;fill-opacity:0.2;"/>
<path d="M23.643 12.6933C23.643 11.466 22.5651 10.47 21.2349 10.47H17.2226L15.9716 9.08368C15.4934 8.55341 14.7844 8.24658 14.0358 8.24658H10.5414C9.14864 8.24658 8.02148 9.28823 8.02148 10.5733V19.1707C8.02148 20.2217 8.87352 21.0737 9.92457 21.0737H12.4848" stroke="white" style="stroke:white;stroke-opacity:1;" stroke-width="0.951542" stroke-linecap="round" stroke-linejoin="round"/>
<path fill-rule="evenodd" clip-rule="evenodd" d="M9.52352 13.5455C9.7752 12.2645 10.9022 11.3252 12.2314 11.3252H23.115C24.9172 11.3252 26.211 13.0062 25.7986 14.7187L25.7978 14.7219L24.6134 19.4794L24.6131 19.4808C24.3154 20.7075 23.2139 21.5869 21.9299 21.5869H10.2543C10.1187 21.5869 9.22471 21.1754 9.1384 21.0738C8.58043 20.5607 7.99662 20.1769 8.0223 20.0477L9.52352 13.5455Z" fill="white" style="fill:white;fill-opacity:1;"/>
</svg>
