<svg width="21" height="21" viewBox="0 0 21 21" fill="none" xmlns="http://www.w3.org/2000/svg">
<path fill-rule="evenodd" clip-rule="evenodd" d="M7.19204 18.2893C6.76653 18.0905 6.3869 17.8071 6.07115 17.4589C5.98299 17.3627 5.85884 17.3141 5.7338 17.3366L5.19674 17.4365C4.82341 17.5048 4.46267 17.2421 4.397 16.8508L2.50426 5.6473C2.47277 5.45748 2.51326 5.26587 2.61851 5.10934C2.72466 4.95101 2.88299 4.84576 3.06471 4.81247L5.18415 4.41935C5.36137 4.38697 5.49091 4.22504 5.49091 4.03613V3.19411C5.49091 3.10055 5.49541 3.00879 5.5017 2.91793C5.5134 2.7713 5.33348 2.81358 5.33348 2.81358L2.88749 3.26697C2.36123 3.36323 1.86465 3.62501 1.52101 4.05142C1.0982 4.57768 0.925475 5.25058 1.03792 5.91717L2.93067 17.1207C3.11778 18.2236 4.03897 19.0009 5.0762 19.0009C5.20124 19.0009 5.32808 18.9892 5.45493 18.9658L7.14886 18.6545C7.32878 18.6212 7.35936 18.3675 7.19204 18.2893Z" fill="white"/>
<path fill-rule="evenodd" clip-rule="evenodd" d="M17.8247 6.40628H15.098C14.2731 6.40628 13.5984 5.73159 13.5984 4.90666V2.1809C13.5984 1.53319 13.074 1.00873 12.4262 1.00873H9.36314C8.22425 1.00873 7.30127 1.93171 7.30127 3.07059V14.2399C7.30127 15.3788 8.22425 16.3018 9.36314 16.3018H16.9341C18.0721 16.3018 18.996 15.3788 18.996 14.2399V7.57755C18.996 6.93075 18.4715 6.40628 17.8247 6.40628Z" fill="white"/>
<path fill-rule="evenodd" clip-rule="evenodd" d="M14.6154 1.02719C14.4309 0.917439 14.5191 1.23859 14.5191 1.23859C14.5839 1.46889 14.619 1.71268 14.619 1.96367V4.72272C14.619 5.08435 14.9122 5.37672 15.2739 5.37672H18.0293C18.3145 5.37672 18.5907 5.4226 18.8488 5.50626C18.8488 5.50626 19.0405 5.51886 18.9919 5.4226C18.9091 5.29396 18.8165 5.17161 18.7058 5.06096L14.9338 1.28717C14.8358 1.18822 14.7278 1.10275 14.6154 1.02719Z" fill="white"/>
</svg>
