<svg width="20" height="20" viewBox="0 0 20 20" fill="none" xmlns="http://www.w3.org/2000/svg">
<path fill-rule="evenodd" clip-rule="evenodd" d="M9.99984 5.83335C7.44171 5.83335 4.94036 7.4196 3.5415 10C4.94036 12.5804 7.44171 14.1667 9.99984 14.1667C12.558 14.1667 15.0593 12.5804 16.4582 10C15.0593 7.4196 12.558 5.83335 9.99984 5.83335ZM9.99984 4.16669C13.3199 4.16669 16.509 6.26294 18.155 9.63585L18.3332 10.001L18.155 10.3661C16.509 13.739 13.3199 15.8334 9.99984 15.8334C6.67973 15.8334 3.49067 13.739 1.84463 10.3661L1.6665 10.001L1.84463 9.63585C3.49067 6.26294 6.67973 4.16669 9.99984 4.16669ZM7.49984 10C7.49984 8.61929 8.61911 7.50002 9.99984 7.50002C11.3806 7.50002 12.4998 8.61929 12.4998 10C12.4998 11.3807 11.3806 12.5 9.99984 12.5C8.61911 12.5 7.49984 11.3807 7.49984 10Z" fill="white"/>
</svg>
