<svg width="20" height="20" viewBox="0 0 20 20" fill="none" xmlns="http://www.w3.org/2000/svg">
<path fill-rule="evenodd" clip-rule="evenodd" d="M18.9104 2.32618L17.6737 1.08948L13.706 5.05718C12.5444 4.47924 11.2819 4.16668 9.99985 4.16668C6.67975 4.16668 3.49068 6.26293 1.84464 9.63584L1.66652 10.0009L1.84464 10.3661C2.56476 11.8417 3.58022 13.0726 4.77276 13.9904L1.08936 17.6739L2.32606 18.9106L6.29332 14.9433C6.29924 14.9462 6.30517 14.9492 6.3111 14.9521L8.36028 12.9029C8.35463 12.8997 8.34898 12.8965 8.34334 12.8933L12.8931 8.34351C12.8963 8.34914 12.8996 8.35479 12.9028 8.36045L15.2414 6.02183C15.2364 6.01796 15.2314 6.0141 15.2264 6.01025L18.9104 2.32618ZM11.6564 7.10679C11.1684 6.82678 10.6028 6.66668 9.99985 6.66668C8.15888 6.66668 6.66652 8.15904 6.66652 10C6.66652 10.603 6.82662 11.1686 7.10663 11.6566L11.6564 7.10679ZM9.99985 15.8333C9.36715 15.8333 8.73921 15.7573 8.1258 15.6108L16.5242 7.21246C17.1607 7.91779 17.7134 8.73087 18.1551 9.63584L18.3332 10.0009L18.1551 10.3661C16.509 13.739 13.32 15.8333 9.99985 15.8333Z" fill="white"/>
</svg>
