<svg width="12" height="12" viewBox="0 0 12 12" fill="none" xmlns="http://www.w3.org/2000/svg">
<mask id="mask0_234_665" style="mask-type:alpha" maskUnits="userSpaceOnUse" x="1" y="1" width="10" height="9">
<path d="M10.9004 4.99609C10.9554 4.9963 10.9999 5.04067 11 5.0957V9.49609C10.9999 9.77212 10.776 9.99609 10.5 9.99609H1.5C1.22394 9.99609 1.00013 9.77212 1 9.49609V5.0957C1.00008 5.04067 1.04461 4.9963 1.09961 4.99609H10.9004ZM4.63965 1.49609C4.8548 1.4961 5.04617 1.6338 5.11426 1.83789L5.42773 2.37207C5.4726 2.44851 5.55492 2.49605 5.64355 2.49609H10.5C10.7761 2.49609 11 2.71995 11 2.99609V3.89551C11 3.95061 10.9554 3.99588 10.9004 3.99609H1.09961C1.04456 3.99588 1 3.95061 1 3.89551V1.99609C1 1.71995 1.22386 1.49609 1.5 1.49609H4.63965Z" fill="black" style="fill:black;fill-opacity:1;"/>
</mask>
<g mask="url(#mask0_234_665)">
<rect y="-0.00415039" width="12" height="12" fill="white" style="fill:white;fill-opacity:1;"/>
</g>
</svg>
