<svg width="16" height="16" viewBox="0 0 16 16" fill="none" xmlns="http://www.w3.org/2000/svg">
<path d="M12.1992 0.799805C12.9692 0.799805 13.5996 1.44823 13.5996 2.24023V13.7598C13.5996 14.5516 12.9768 15.2 12.207 15.2002H3.7998C3.0298 15.2002 2.39941 14.5518 2.39941 13.7598V5.71777C2.39941 5.33619 2.54652 4.96855 2.8125 4.70215L6.18652 1.22461C6.45252 0.951009 6.80966 0.799805 7.18066 0.799805H12.1992ZM7.25195 5.66113C7.06583 5.51123 6.80089 5.65459 6.80078 5.90039V10.0986C6.80078 10.3444 7.0658 10.4885 7.25195 10.3389L9.88672 8.23926C10.0388 8.11929 10.0388 7.87969 9.88672 7.75977L7.25195 5.66113Z" fill="white" style="fill:white;fill-opacity:1;"/>
</svg>
