<svg width="20" height="20" viewBox="0 0 20 20" fill="none" xmlns="http://www.w3.org/2000/svg">
<path fill-rule="evenodd" clip-rule="evenodd" d="M6.00003 16.3995C4.45166 16.3995 3.11831 16.9329 2 17.9995L2.00003 3.59951C3.11832 2.53285 4.45166 1.99951 6.00003 1.99951C7.5484 1.99951 8.88174 2.53285 10 3.59951C11.1183 2.53285 12.4516 1.99951 14 1.99951C15.5484 1.99951 16.8817 2.53285 18 3.59951V17.9995C16.8817 16.9329 15.5484 16.3995 14 16.3995C13.1003 16.3995 12.1676 16.9397 11.3859 17.3923C10.8223 17.7187 10.3373 17.9995 10 17.9995C9.66273 17.9995 9.17775 17.7187 8.61416 17.3923C7.83252 16.9397 6.8997 16.3995 6.00003 16.3995ZM6.00003 14.7995C6.26255 14.7995 6.52543 14.8263 6.78952 14.877C7.53537 15.0203 8.19396 15.3123 9.06765 15.8074C9.09809 15.8247 9.14568 15.8519 9.2 15.8832V5.04749L8.89569 4.75724C8.07515 3.97457 7.13736 3.59945 6.00003 3.59945C5.0852 3.59945 4.29947 3.84215 3.60003 4.34442L3.6 15.1827C4.35272 14.9281 5.15493 14.7995 6.00003 14.7995ZM10.8 5.04754V15.8832C10.8543 15.8519 10.9019 15.8247 10.9324 15.8074C11.806 15.3124 12.4645 15.0203 13.2104 14.877C13.4744 14.8263 13.7373 14.7995 14 14.7995C14.8451 14.7995 15.6474 14.9281 16.4 15.1827V4.34442C15.7006 3.84215 14.9148 3.59945 14 3.59945C12.8627 3.59945 11.9249 3.97457 11.1044 4.75721L10.8 5.04754Z" fill="white"/>
</svg>
