<svg width="18" height="18" viewBox="0 0 18 18" fill="none" xmlns="http://www.w3.org/2000/svg">
<mask id="mask0_5042_31078" style="mask-type:alpha" maskUnits="userSpaceOnUse" x="2" y="2" width="14" height="14">
<path d="M4.88965 7.00098C5.03606 6.85468 5.2735 6.85471 5.41992 7.00098L6.21582 7.79688C6.36195 7.94333 6.36206 8.18076 6.21582 8.32715L4.88965 9.65234C3.93781 10.6042 3.93794 12.1477 4.88965 13.0996C5.84156 14.0515 7.38498 14.0515 8.33691 13.0996L9.66309 11.7744C9.80957 11.6281 10.047 11.628 10.1934 11.7744L10.9883 12.5693C11.1347 12.7158 11.1347 12.9532 10.9883 13.0996L9.66309 14.4258C7.97896 16.1099 5.24761 16.1099 3.56348 14.4258C1.87962 12.7417 1.87964 10.0112 3.56348 8.32715L4.88965 7.00098ZM10.1934 6.4707C10.3399 6.32455 10.5773 6.32435 10.7236 6.4707L11.5186 7.2666C11.665 7.41305 11.665 7.65048 11.5186 7.79688L7.80664 11.5088C7.66017 11.6553 7.42282 11.6553 7.27637 11.5088L6.48047 10.7139C6.33413 10.5676 6.33434 10.3301 6.48047 10.1836L10.1934 6.4707ZM8.33691 3.55371C10.021 1.86985 12.7515 1.86985 14.4355 3.55371C16.1196 5.23777 16.1195 7.9682 14.4355 9.65234L13.1094 10.9785C12.963 11.1249 12.7255 11.125 12.5791 10.9785L11.7842 10.1836C11.6377 10.0372 11.6377 9.79882 11.7842 9.65234L13.1094 8.32715C14.0613 7.37521 14.0613 5.83179 13.1094 4.87988C12.1575 3.92825 10.6149 3.92828 9.66309 4.87988L8.33691 6.20605C8.19051 6.35228 7.95301 6.35221 7.80664 6.20605L7.01074 5.41016C6.86449 5.26374 6.86447 5.02629 7.01074 4.87988L8.33691 3.55371Z" fill="black" style="fill:black;fill-opacity:1;"/>
</mask>
<g mask="url(#mask0_5042_31078)">
<rect y="-0.0107422" width="18" height="18" fill="white" fill-opacity="0.9" style="fill:white;fill-opacity:0.9;"/>
</g>
</svg>
