<svg width="20" height="20" viewBox="0 0 20 20" fill="none" xmlns="http://www.w3.org/2000/svg">
<g clip-path="url(#clip0_18203_225423)">
<path fill-rule="evenodd" clip-rule="evenodd" d="M10 2C14.4112 2 18 5.5888 18 10C18 14.4112 14.4112 18 10 18C5.5888 18 2 14.4112 2 10C2 5.5888 5.5888 2 10 2Z" fill="#F02849" fill-opacity="0.3"/>
</g>
<path fill-rule="evenodd" clip-rule="evenodd" d="M9.95873 5C9.43893 5 9.01755 5.42138 9.01755 5.94118V10.0588C9.01755 10.5786 9.43893 11 9.95873 11C10.4785 11 10.8999 10.5786 10.8999 10.0588V5.94118C10.8999 5.42138 10.4785 5 9.95873 5ZM9.95198 15C10.532 15 11.0175 14.5279 11.0175 13.9479C11.0175 13.3679 10.532 12.8824 9.95198 12.8824C9.37199 12.8824 8.8999 13.3679 8.8999 13.9479C8.8999 14.5279 9.37199 15 9.95198 15Z" fill="#F02849"/>
<defs>
<clipPath id="clip0_18203_225423">
<rect width="16" height="16" fill="white" transform="translate(2 2)"/>
</clipPath>
</defs>
</svg>
