<svg width="16" height="16" viewBox="0 0 16 16" fill="none" xmlns="http://www.w3.org/2000/svg">
<path d="M12.1992 0.799805C12.9692 0.799805 13.5996 1.44823 13.5996 2.24023V13.7598C13.5996 14.5516 12.9768 15.2 12.207 15.2002H3.7998C3.0298 15.2002 2.39941 14.5518 2.39941 13.7598V5.71777C2.39941 5.33619 2.54652 4.96855 2.8125 4.70215L6.18652 1.22461C6.45252 0.951009 6.80966 0.799805 7.18066 0.799805H12.1992ZM7.14258 5.50391C6.70808 5.54494 6.42841 5.88199 6.26758 6.125C6.08106 6.40691 5.92079 6.77093 5.7832 7.07715C5.63463 7.40782 5.50725 7.68278 5.37207 7.87793C5.26415 8.03372 5.20515 8.06013 5.19531 8.06348H4L3.89941 8.07324C3.67152 8.11983 3.5 8.32182 3.5 8.56348C3.50007 8.80502 3.67164 9.00611 3.89941 9.05273L4 9.06348H5.20312C5.68929 9.06346 6.00694 8.71778 6.19434 8.44727C6.39197 8.1619 6.55608 7.79621 6.69531 7.48633C6.84552 7.15201 6.97014 6.87539 7.10156 6.67676C7.15802 6.59145 7.20049 6.5465 7.22656 6.52246C7.27379 6.57419 7.33674 6.67092 7.4082 6.83008C7.55676 7.16107 7.68224 7.61889 7.81934 8.12988C7.94979 8.61611 8.09229 9.15677 8.27051 9.57227C8.35963 9.78002 8.473 9.99434 8.625 10.1631C8.78195 10.3372 9.01614 10.4999 9.32812 10.5C9.75515 10.5 10.102 10.2836 10.3633 10.0322C10.6246 9.78074 10.8465 9.4515 11.0342 9.12207C11.2239 8.789 11.3945 8.42815 11.5449 8.09766C11.6222 7.9278 11.6925 7.76903 11.7588 7.62305L11.9473 7.22363L11.9834 7.12891C12.0435 6.90429 11.9397 6.66078 11.7236 6.55273C11.5077 6.44477 11.2511 6.50785 11.1074 6.69043L11.0527 6.77637L10.8486 7.20898C10.7783 7.36368 10.7067 7.52548 10.6348 7.68359C10.4865 8.0092 10.3313 8.33613 10.165 8.62793C9.99669 8.92333 9.8307 9.15682 9.66992 9.31152C9.53813 9.43832 9.4397 9.48185 9.37012 9.49414L9.36816 9.49316C9.32318 9.44322 9.26115 9.3449 9.18945 9.17773C9.04603 8.8433 8.92297 8.38378 8.78516 7.87012C8.65404 7.38139 8.50838 6.8388 8.32031 6.41992C8.22613 6.21018 8.1058 5.99566 7.94531 5.82715C7.77851 5.65202 7.54006 5.50001 7.23145 5.5L7.14258 5.50391Z" fill="white" style="fill:white;fill-opacity:1;"/>
</svg>
