<svg width="20" height="20" viewBox="0 0 20 20" fill="none" xmlns="http://www.w3.org/2000/svg">
<path fill-rule="evenodd" clip-rule="evenodd" d="M10.0001 7.40039C9.50304 7.40039 9.1001 7.80333 9.1001 8.30039V10.5004C9.1001 10.9974 9.50304 11.4004 10.0001 11.4004C10.4972 11.4004 10.9001 10.9974 10.9001 10.5004V8.30039C10.9001 7.80333 10.4972 7.40039 10.0001 7.40039ZM9.99437 13.8004C10.4874 13.8004 10.9001 13.3991 10.9001 12.9061C10.9001 12.4131 10.4874 12.0004 9.99437 12.0004C9.50137 12.0004 9.1001 12.4131 9.1001 12.9061C9.1001 13.3991 9.50137 13.8004 9.99437 13.8004Z" fill="#FFCE2E"/>
<path d="M2.76979 16C2.47097 16 2.2501 15.8704 2.10719 15.6111C1.96427 15.3519 1.96427 15.0926 2.10719 14.8333L9.3179 2.38889C9.46082 2.12963 9.68818 2 10 2C10.3118 2 10.5392 2.12963 10.6821 2.38889L17.8928 14.8333C18.0357 15.0926 18.0357 15.3519 17.8928 15.6111C17.7499 15.8704 17.529 16 17.2302 16H2.76979ZM10 7.44444C9.77913 7.44444 9.59412 7.51885 9.44497 7.66767C9.2953 7.817 9.22046 8.00185 9.22046 8.22222V10.5556C9.22046 10.7759 9.2953 10.9605 9.44497 11.1093C9.59412 11.2587 9.77913 11.3333 10 11.3333C10.2209 11.3333 10.4061 11.2587 10.5558 11.1093C10.705 10.9605 10.7795 10.7759 10.7795 10.5556V8.22222C10.7795 8.00185 10.705 7.817 10.5558 7.66767C10.4061 7.51885 10.2209 7.44444 10 7.44444ZM10 13.6667C10.2209 13.6667 10.4061 13.592 10.5558 13.4427C10.705 13.2939 10.7795 13.1093 10.7795 12.8889C10.7795 12.6685 10.705 12.4839 10.5558 12.3351C10.4061 12.1858 10.2209 12.1111 10 12.1111C9.77913 12.1111 9.59412 12.1858 9.44497 12.3351C9.2953 12.4839 9.22046 12.6685 9.22046 12.8889C9.22046 13.1093 9.2953 13.2939 9.44497 13.4427C9.59412 13.592 9.77913 13.6667 10 13.6667Z" fill="#FCC12B" fill-opacity="0.3"/>
</svg>
