<svg width="16" height="16" viewBox="0 0 16 16" fill="none" xmlns="http://www.w3.org/2000/svg">
<path d="M12.1992 0.799805C12.9692 0.799805 13.5996 1.44823 13.5996 2.24023V13.7598C13.5996 14.5516 12.9768 15.2 12.207 15.2002H3.7998C3.0298 15.2002 2.39941 14.5518 2.39941 13.7598V5.71777C2.39941 5.33619 2.54652 4.96855 2.8125 4.70215L6.18652 1.22461C6.45252 0.951009 6.80966 0.799805 7.18066 0.799805H12.1992ZM9 5.66699C8.6418 5.66699 8.30327 5.74936 8 5.89355C7.69673 5.74936 7.3582 5.66699 7 5.66699C5.71134 5.66699 4.66699 6.71134 4.66699 8C4.66699 9.28866 5.71134 10.333 7 10.333C7.35835 10.333 7.69664 10.2498 8 10.1055C8.30336 10.2498 8.64165 10.333 9 10.333C10.2887 10.333 11.333 9.28866 11.333 8C11.333 6.71134 10.2887 5.66699 9 5.66699ZM7 6.33301C7.11469 6.33301 7.22678 6.34414 7.33496 6.36621C6.92194 6.78708 6.66699 7.36362 6.66699 8C6.66699 8.63613 6.92223 9.21198 7.33496 9.63281C7.22672 9.65491 7.11476 9.66699 7 9.66699C6.07953 9.66699 5.33301 8.92047 5.33301 8C5.33301 7.07953 6.07953 6.33301 7 6.33301Z" fill="white" style="fill:white;fill-opacity:1;"/>
</svg>
