<svg width="20" height="20" viewBox="0 0 20 20" fill="none" xmlns="http://www.w3.org/2000/svg">
<path fill-rule="evenodd" clip-rule="evenodd" d="M8.4267 1C8.07265 1 7.73804 1.14732 7.49424 1.40336L5.30704 3.7H2.7999C2.30285 3.7 1.8999 4.10294 1.8999 4.6C1.8999 5.09706 2.30285 5.5 2.7999 5.5H17.1999C17.697 5.5 18.0999 5.09706 18.0999 4.6C18.0999 4.10294 17.697 3.7 17.1999 3.7H14.6928L12.5056 1.40336C12.2618 1.14732 11.9272 1 11.5731 1H8.4267ZM13.1505 17.2C13.6176 17.2 14.0136 16.8373 14.0469 16.3639L14.4969 10.0639C14.5329 9.56801 14.1594 9.13781 13.6635 9.10271C13.1577 9.05411 12.7374 9.44111 12.7023 9.93521L12.2523 16.2352C12.2163 16.7311 12.5898 17.1622 13.0857 17.1973C13.1073 17.1991 13.1289 17.2 13.1505 17.2ZM9.9999 17.2C10.4976 17.2 10.8999 16.7968 10.8999 16.3V10C10.8999 9.50231 10.4976 9.10001 9.9999 9.10001C9.5022 9.10001 9.0999 9.50231 9.0999 10V16.3C9.0999 16.7968 9.5022 17.2 9.9999 17.2ZM6.8487 17.2C6.8694 17.2 6.8919 17.1991 6.9135 17.1973C7.4094 17.1622 7.7829 16.7311 7.7469 16.2352L7.2969 9.93519C7.2618 9.44109 6.8433 9.05139 6.3357 9.10269C5.8398 9.13779 5.4663 9.56799 5.5023 10.0639L5.9523 16.3639C5.9856 16.8373 6.3807 17.2 6.8487 17.2ZM3.69975 7.3H16.2998C16.4276 7.3 16.5491 7.354 16.6346 7.4494C16.7201 7.5439 16.7606 7.6708 16.7471 7.7968L15.7274 17.4061C15.632 18.3142 14.786 19 13.76 19H6.23955C5.21355 19 4.36755 18.3142 4.27215 17.4061L3.25245 7.7968C3.23895 7.6708 3.27945 7.5439 3.36495 7.4494C3.45045 7.354 3.57195 7.3 3.69975 7.3Z" fill="#E0E0E0"/>
</svg>
