<svg width="24" height="24" viewBox="0 0 24 24" fill="none" xmlns="http://www.w3.org/2000/svg">
<mask id="mask0_214_1243" style="mask-type:alpha" maskUnits="userSpaceOnUse" x="2" y="2" width="20" height="19">
<path d="M6.99994 12.9959C9.20552 12.9959 10.9999 14.7903 10.9999 16.9959C10.9997 19.2014 9.2054 20.9959 6.99994 20.9959C4.79458 20.9958 3.00015 19.2013 2.99994 16.9959C2.99994 14.7904 4.79446 12.996 6.99994 12.9959ZM18.9999 12.9959C20.1044 12.9959 20.9999 13.8913 20.9999 14.9959V18.9959C20.9997 20.1003 20.1043 20.9959 18.9999 20.9959H14.9999C13.8956 20.9958 13.0001 20.1002 12.9999 18.9959V14.9959C12.9999 13.8914 13.8955 12.9961 14.9999 12.9959H18.9999ZM6.99994 14.9959C5.89721 14.996 4.99994 15.8932 4.99994 16.9959C5.00015 18.0985 5.89733 18.9958 6.99994 18.9959C8.10265 18.9959 8.99974 18.0986 8.99994 16.9959C8.99994 15.8931 8.10277 14.9959 6.99994 14.9959ZM14.9999 14.9959V18.9959H18.9999V14.9959H14.9999ZM5.53412 3.49106C6.34403 2.68114 7.65676 2.68126 8.46674 3.49106L10.4833 5.50766C11.2933 6.31764 11.2933 7.63031 10.4833 8.44028L8.46674 10.4569C7.65677 11.2668 6.34408 11.2669 5.53412 10.4569L3.51752 8.44028C2.70774 7.63031 2.70766 6.31759 3.51752 5.50766L5.53412 3.49106ZM16.9999 2.99595C17.3669 2.99595 17.7051 3.19663 17.8798 3.51938L21.1298 9.51938C21.2975 9.82922 21.2896 10.2049 21.1093 10.5077C20.929 10.8103 20.6023 10.9959 20.2499 10.9959H13.7499C13.3977 10.9959 13.071 10.8104 12.8906 10.5077C12.7102 10.2049 12.7031 9.82926 12.871 9.51938L16.121 3.51938C16.2957 3.19667 16.633 2.99599 16.9999 2.99595ZM15.4296 8.99595H18.5712L16.9999 6.09556L15.4296 8.99595ZM5.03901 6.99595L6.99994 8.95688L8.96088 6.99595L6.99994 5.03501L5.03901 6.99595Z" fill="black" style="fill:black;fill-opacity:1;"/>
</mask>
<g mask="url(#mask0_214_1243)">
<rect y="-0.00415039" width="24" height="24" fill="black" style="fill:black;fill-opacity:1;"/>
</g>
</svg>
