<svg width="16" height="16" viewBox="0 0 16 16" fill="none" xmlns="http://www.w3.org/2000/svg">
<g clip-path="url(#clip0_599_94090)">
<path fill-rule="evenodd" clip-rule="evenodd" d="M11.1997 8.64155H8.63968V11.2015C8.63968 11.5535 8.35168 11.8415 7.99968 11.8415C7.64768 11.8415 7.35968 11.5535 7.35968 11.2015V8.64155H4.79968C4.44768 8.64155 4.15968 8.35355 4.15968 8.00155C4.15968 7.64955 4.44768 7.36155 4.79968 7.36155H7.35968V4.80155C7.35968 4.44955 7.64768 4.16155 7.99968 4.16155C8.35168 4.16155 8.63968 4.44955 8.63968 4.80155V7.36155H11.1997C11.5517 7.36155 11.8397 7.64955 11.8397 8.00155C11.8397 8.35355 11.5517 8.64155 11.1997 8.64155M7.99961 1.60156C4.47001 1.60156 1.59961 4.47196 1.59961 8.00156C1.59961 11.5312 4.47001 14.4016 7.99961 14.4016C11.5292 14.4016 14.3996 11.5312 14.3996 8.00156C14.3996 4.47196 11.5292 1.60156 7.99961 1.60156" fill="white"/>
</g>
<defs>
<clipPath id="clip0_599_94090">
<rect width="16" height="16" fill="white"/>
</clipPath>
</defs>
</svg>
