<svg width="20" height="20" viewBox="0 0 20 20" fill="none" xmlns="http://www.w3.org/2000/svg">
<path fill-rule="evenodd" clip-rule="evenodd" d="M4.2491 2.83489C3.85857 2.44436 3.22541 2.44436 2.83489 2.83489C2.44436 3.22541 2.44436 3.85857 2.83489 4.2491L8.58578 9.99999L2.83489 15.7509C2.44436 16.1414 2.44436 16.7746 2.83489 17.1651C3.22541 17.5556 3.85857 17.5556 4.2491 17.1651L9.99999 11.4142L15.7509 17.1651C16.1414 17.5556 16.7746 17.5556 17.1651 17.1651C17.5556 16.7746 17.5556 16.1414 17.1651 15.7509L11.4142 9.99999L17.1651 4.2491C17.5556 3.85857 17.5556 3.22541 17.1651 2.83489C16.7746 2.44436 16.1414 2.44436 15.7509 2.83489L9.99999 8.58578L4.2491 2.83489Z" fill="#E4E6EB"/>
</svg>
