<svg width="20" height="20" viewBox="0 0 20 20" fill="none" xmlns="http://www.w3.org/2000/svg">
<path fill-rule="evenodd" clip-rule="evenodd" d="M18.9119 2.32618L17.6752 1.08948L13.7647 5.00002H5.00006C3.15911 5.00002 1.66673 6.4924 1.66673 8.33335V11.6667C1.66673 13.1361 2.61758 14.3835 3.93757 14.8271L1.09082 17.6738L2.32752 18.9105L18.9119 2.32618ZM5.43132 13.3333L12.098 6.66668H5.00006C4.07959 6.66668 3.3334 7.41287 3.3334 8.33335V11.6667C3.3334 12.5872 4.07959 13.3333 5.00006 13.3333H5.43132ZM12.6771 13.1949C12.4621 12.6968 12.1142 12.2722 11.6766 11.9646L10.4547 13.1865C10.4682 13.1918 10.4817 13.1974 10.4951 13.2032C10.7875 13.3296 11.0206 13.5628 11.1468 13.8553L11.2428 14.0779C11.5652 14.5732 12.0894 14.9092 12.6763 15H15.0001C16.841 15 18.3334 13.5076 18.3334 11.6667V8.33335C18.3334 7.4912 18.0211 6.72199 17.506 6.13522L16.3224 7.31876C16.5384 7.59977 16.6667 7.95157 16.6667 8.33335V11.6667C16.6667 12.5872 15.9205 13.3333 15.0001 13.3333H12.8531C12.793 13.3122 12.7385 13.2784 12.6945 13.2353L12.6771 13.1949Z" fill="white"/>
</svg>
