<svg width="23" height="23" viewBox="0 0 23 23" fill="none" xmlns="http://www.w3.org/2000/svg">
<path fill-rule="evenodd" clip-rule="evenodd" d="M16.3533 12.7518C16.7534 11.2019 16.3749 9.53065 15.2071 8.36285C14.9391 8.09484 14.4021 7.76441 13.5819 7.41C12.7878 7.06686 11.8254 6.74166 10.7978 6.44337C8.78125 5.858 6.59815 5.40026 5.12371 5.11998C5.40399 6.59442 5.86173 8.77752 6.44709 10.794C6.74538 11.8216 7.07059 12.7841 7.41372 13.5782C7.76814 14.3984 8.09857 14.9353 8.36657 15.2033C9.53438 16.3711 11.2056 16.7497 12.7555 16.3495C13.5856 16.1352 14.3319 16.4658 14.7845 16.9184L15.6858 17.9542C16.135 18.4034 16.492 17.8603 16.9642 17.388L17.3918 16.9605C17.864 16.4883 18.4103 16.1281 17.9611 15.6789L16.9222 14.7808C16.4695 14.3282 16.139 13.5819 16.3533 12.7518ZM17.495 12.9926C17.407 13.3337 17.5371 13.6856 17.7772 13.9257L18.9972 15.1457C19.8955 16.044 19.0448 16.7246 18.1004 17.6691L17.6728 18.0966C16.7284 19.0411 15.9119 19.9083 15.0136 19.01L13.9295 17.7735C13.6893 17.5334 13.3374 17.4032 12.9963 17.4913C11.0633 17.9904 8.97241 17.5193 7.51151 16.0584C5.83489 14.3818 4.5116 8.2931 3.9485 5.31429C3.79675 4.51149 4.51522 3.79302 5.31802 3.94477C8.29683 4.50787 14.3855 5.83116 16.0621 7.50779C17.523 8.96868 17.9941 11.0596 17.495 12.9926Z" fill="white" style="fill:white;fill-opacity:1;"/>
<path fill-rule="evenodd" clip-rule="evenodd" d="M10.5997 11.3349L4.68445 5.42582L5.53906 4.57031L11.4544 10.4794L10.5997 11.3349Z" fill="white" style="fill:white;fill-opacity:1;"/>
<circle cx="10.9523" cy="11.0069" r="1.20924" transform="rotate(-45.0299 10.9523 11.0069)" fill="white" style="fill:white;fill-opacity:1;"/>
</svg>
