<svg width="20" height="20" viewBox="0 0 20 20" fill="none" xmlns="http://www.w3.org/2000/svg">
<path fill-rule="evenodd" clip-rule="evenodd" d="M7.9165 3.22802V2.50002C7.9165 2.03978 8.2896 1.66669 8.74984 1.66669H11.2498C11.7101 1.66669 12.0832 2.03978 12.0832 2.50002V3.22802C12.5126 3.35996 12.9246 3.53161 13.3149 3.7387L13.83 3.22358C14.1554 2.89814 14.6831 2.89814 15.0085 3.22358L16.7763 4.99135C17.1017 5.31678 17.1017 5.84442 16.7763 6.16986L16.2612 6.68498C16.4682 7.0753 16.6399 7.4873 16.7718 7.91669H17.4998C17.9601 7.91669 18.3332 8.28978 18.3332 8.75002V11.25C18.3332 11.7103 17.9601 12.0834 17.4998 12.0834H16.7718C16.6399 12.5127 16.4682 12.9247 16.2612 13.3151L16.7763 13.8302C17.1017 14.1556 17.1017 14.6833 16.7763 15.0087L15.0085 16.7765C14.6831 17.1019 14.1554 17.1019 13.83 16.7765L13.3149 16.2613C12.9246 16.4684 12.5126 16.6401 12.0832 16.772V17.5C12.0832 17.9603 11.7101 18.3334 11.2498 18.3334H8.74984C8.2896 18.3334 7.9165 17.9603 7.9165 17.5V16.772C7.48712 16.6401 7.07512 16.4684 6.68479 16.2613L6.16968 16.7765C5.84424 17.1019 5.3166 17.1019 4.99116 16.7765L3.2234 15.0087C2.89796 14.6833 2.89796 14.1556 3.2234 13.8302L3.73852 13.3151C3.53143 12.9247 3.35977 12.5127 3.22784 12.0834H2.49984C2.0396 12.0834 1.6665 11.7103 1.6665 11.25V8.75002C1.6665 8.28978 2.0396 7.91669 2.49984 7.91669H3.22784C3.35977 7.4873 3.53143 7.0753 3.73852 6.68498L3.2234 6.16986C2.89796 5.84442 2.89796 5.31678 3.2234 4.99135L4.99116 3.22358C5.3166 2.89814 5.84424 2.89814 6.16968 3.22358L6.68479 3.7387C7.07512 3.53161 7.48712 3.35996 7.9165 3.22802ZM14.9998 10C14.9998 7.23846 12.7614 5.00002 9.99984 5.00002C7.23827 5.00002 4.99984 7.23846 4.99984 10C4.99984 12.7616 7.23827 15 9.99984 15C12.7614 15 14.9998 12.7616 14.9998 10ZM11.6665 10C11.6665 9.0795 10.9204 8.33335 9.99984 8.33335C9.07932 8.33335 8.33317 9.0795 8.33317 10C8.33317 10.9205 9.07932 11.6667 9.99984 11.6667C10.9204 11.6667 11.6665 10.9205 11.6665 10Z" fill="white" style="fill:white;fill:white;fill-opacity:1;"/>
</svg>
