<svg width="24" height="24" viewBox="0 0 24 24" fill="none" xmlns="http://www.w3.org/2000/svg">
<path fill-rule="evenodd" clip-rule="evenodd" d="M17.4258 12.8349C17.8259 11.2849 17.4474 9.61372 16.2796 8.44592C16.0116 8.17792 15.4746 7.84748 14.6544 7.49307C13.8603 7.14993 12.8979 6.82473 11.8703 6.52644C10.3462 6.08402 8.72694 5.7145 7.39041 5.4394L11.8562 9.9005C12.2189 9.84969 12.6003 9.96366 12.8794 10.2425C13.3519 10.7145 13.3523 11.4801 12.8803 11.9526C12.4083 12.4251 11.6427 12.4255 11.1702 11.9535C10.8187 11.6024 10.7285 11.0888 10.8996 10.6542L6.3799 6.13918C6.65973 7.52193 7.0483 9.25351 7.51961 10.8771C7.8179 11.9047 8.1431 12.8671 8.48624 13.6613C8.84065 14.4815 9.17109 15.0184 9.43909 15.2864C10.6069 16.4542 12.2781 16.8328 13.8281 16.4326C14.6581 16.2183 15.4044 16.5489 15.857 17.0015L16.7584 18.0372C17.1399 18.4188 17.4549 18.0844 17.8306 17.6856L17.8306 17.6856C17.8972 17.6149 17.9657 17.5422 18.0368 17.4711L18.4643 17.0436C18.5353 16.9725 18.608 16.904 18.6788 16.8374C19.0783 16.461 19.4152 16.1436 19.0336 15.762L17.9947 14.8639C17.5421 14.4112 17.2115 13.6649 17.4258 12.8349ZM18.5675 13.0757C18.4795 13.4168 18.6096 13.7687 18.8497 14.0088L20.0697 15.2288C20.8951 16.0542 20.2439 16.6958 19.4001 17.5271L19.4001 17.5272C19.3256 17.6006 19.2495 17.6755 19.1729 17.7522L18.7454 18.1797L18.6696 18.2556C17.757 19.1695 16.9603 19.9673 16.0861 19.093L15.002 17.8566C14.7618 17.6164 14.4099 17.4863 14.0688 17.5744C12.1358 18.0734 10.0449 17.6024 8.58403 16.1415C6.9074 14.4648 5.58411 8.37617 5.02101 5.39736C4.86926 4.59457 5.58774 3.87609 6.39053 4.02785C9.36934 4.59095 15.458 5.91423 17.1346 7.59086C18.5955 9.05176 19.0666 11.1426 18.5675 13.0757Z" fill="white" style="fill:white;fill-opacity:1;"/>
</svg>
