<svg width="244" height="147" viewBox="0 0 244 147" fill="none" xmlns="http://www.w3.org/2000/svg">
<rect width="244" height="147" fill="#191919" style="fill:#191919;fill:color(display-p3 0.0994 0.0994 0.0994);fill-opacity:1;"/>
<g filter="url(#filter0_di_5071_38490)">
<path d="M13 30.0003C13 27.9884 14.631 26.3574 16.6428 26.3574H140.499C142.511 26.3574 144.142 27.9884 144.142 30.0003V30.0003C144.142 32.0121 142.511 33.6431 140.499 33.6431H16.6428C14.631 33.6431 13 32.0121 13 30.0003V30.0003Z" fill="#414141" style="fill:#414141;fill:color(display-p3 0.2549 0.2549 0.2549);fill-opacity:1;"/>
<g filter="url(#filter1_d_5071_38490)">
<rect x="13" y="26" width="73" height="8" rx="4" fill="#6178FD" style="fill:#6178FD;fill:color(display-p3 0.3804 0.4706 0.9922);fill-opacity:1;" shape-rendering="crispEdges"/>
<rect x="79.2139" y="27.5723" width="4.85711" height="4.85711" rx="2.42856" fill="black" fill-opacity="0.2" style="fill:black;fill-opacity:0.2;"/>
</g>
</g>
<path d="M13.2586 42.9683H15.7758V43.624H13.2586V42.9683ZM17.6237 40.6442L17.8058 40.7644L16.549 41.9556L16.0645 41.4492L17.427 40.1852H18.4215V45.2852H17.6237V40.6442ZM19.7876 42.8918C19.7876 42.2822 19.8775 41.7698 20.0572 41.3545C20.2369 40.9393 20.481 40.626 20.7894 40.4147C21.1003 40.2034 21.4524 40.0978 21.8458 40.0978H21.9296C22.153 40.0978 22.3619 40.1269 22.5562 40.1852C22.7529 40.241 22.9338 40.3273 23.099 40.4438C23.2641 40.558 23.411 40.7037 23.5397 40.881L22.9897 41.3327C22.8197 41.1214 22.6485 40.9757 22.476 40.8955C22.3036 40.813 22.1336 40.7717 21.966 40.7717H21.8859C21.6382 40.7717 21.4184 40.8482 21.2265 41.0012C21.0347 41.1518 20.8853 41.3825 20.7785 41.6933C20.6716 42.0042 20.6182 42.3988 20.6182 42.8772V42.9829C20.6182 43.4103 20.6753 43.7503 20.7894 44.0029C20.9036 44.253 21.0493 44.4315 21.2265 44.5384C21.4063 44.6452 21.5908 44.6987 21.7803 44.6987H21.8495C22.1579 44.6987 22.4044 44.6076 22.589 44.4254C22.7735 44.2409 22.8658 43.9883 22.8658 43.6677C22.8658 43.3593 22.7735 43.114 22.589 42.9319C22.4068 42.7497 22.1603 42.6587 21.8495 42.6587H21.7803C21.5107 42.6587 21.2775 42.7267 21.0808 42.8627C20.8841 42.9987 20.719 43.199 20.5854 43.4637H20.3596C20.3984 43.148 20.4907 42.8809 20.6364 42.6623C20.7846 42.4413 20.9715 42.2737 21.1974 42.1596C21.4233 42.043 21.6722 41.9847 21.9442 41.9847H22.028C22.3388 41.9847 22.6193 42.054 22.8695 42.1924C23.122 42.3308 23.3224 42.5239 23.4705 42.7716C23.6187 43.0193 23.6927 43.3083 23.6927 43.6386C23.6927 43.9762 23.6162 44.2761 23.4632 44.5384C23.3103 44.8007 23.0965 45.0059 22.8221 45.154C22.5477 45.2997 22.2283 45.3726 21.864 45.3726H21.7766C21.5119 45.3726 21.2605 45.3252 21.0225 45.2305C20.7846 45.1358 20.5721 44.9889 20.3851 44.7897C20.2005 44.5882 20.0548 44.3307 19.9479 44.0174C19.8411 43.7017 19.7876 43.3265 19.7876 42.8918ZM24.4314 43.4565C24.4314 43.0752 24.4982 42.7412 24.6318 42.4547C24.7654 42.1681 24.9524 41.9447 25.1928 41.7844C25.4332 41.6217 25.7113 41.5403 26.027 41.5403H26.1108C26.3634 41.5403 26.5916 41.5986 26.7956 41.7152C26.9996 41.8293 27.1672 42.0005 27.2984 42.2288C27.4295 42.4547 27.5109 42.734 27.5424 43.0667H27.3202C27.2328 42.8044 27.1016 42.5931 26.9268 42.4328C26.7519 42.2725 26.5443 42.1924 26.3039 42.1924H26.2347C25.9287 42.1924 25.6846 42.3029 25.5024 42.5239C25.3203 42.7449 25.2292 43.0557 25.2292 43.4565C25.2292 43.7236 25.2705 43.9519 25.3531 44.1413C25.4357 44.3307 25.5522 44.4752 25.7028 44.5748C25.8534 44.6744 26.0307 44.7242 26.2347 44.7242H26.3039C26.4641 44.7242 26.6099 44.6877 26.741 44.6149C26.8746 44.5396 26.9899 44.4364 27.0871 44.3052C27.1866 44.1741 27.2644 44.0211 27.3202 43.8462H27.5825C27.5485 44.1814 27.4635 44.4619 27.3275 44.6877C27.1915 44.9136 27.0179 45.0848 26.8066 45.2014C26.5977 45.3155 26.3658 45.3726 26.1108 45.3726H26.027C25.7113 45.3726 25.4332 45.2924 25.1928 45.1322C24.9524 44.9719 24.7654 44.7472 24.6318 44.4582C24.4982 44.1692 24.4314 43.8353 24.4314 43.4565ZM27.2729 39.9666H28.0451V45.2852H27.2838V44.3854L27.2729 44.2433V39.9666ZM32.6976 43.828C32.6976 43.5657 32.6211 43.369 32.4681 43.2379C32.3151 43.1067 32.0503 43.0412 31.6739 43.0412H29.9399V42.3855H31.4918C31.8099 42.3855 32.0443 42.3223 32.1948 42.196C32.3478 42.0673 32.4243 41.8742 32.4243 41.6168C32.4243 41.357 32.3454 41.1651 32.1876 41.0413C32.0297 40.915 31.7844 40.8518 31.4517 40.8518H29.7906L30.1403 40.5604V44.9063L29.7906 44.6185H31.6921C32.0297 44.6185 32.2811 44.5529 32.4462 44.4218C32.6138 44.2882 32.6976 44.0903 32.6976 43.828ZM33.244 41.4893C33.244 41.7832 33.1638 42.0333 33.0036 42.2397C32.8433 42.4437 32.5616 42.5834 32.1584 42.6587V42.5567C32.6417 42.6174 32.9902 42.7655 33.2039 43.0011C33.42 43.2367 33.5281 43.5342 33.5281 43.8936C33.5281 44.3332 33.3727 44.6756 33.0618 44.9209C32.751 45.1637 32.3029 45.2852 31.7176 45.2852H29.3316V40.1852H31.51C31.8913 40.1852 32.2106 40.2374 32.4681 40.3418C32.7255 40.4438 32.9186 40.592 33.0473 40.7863C33.1784 40.9805 33.244 41.2149 33.244 41.4893Z" fill="#8E8E8E" style="fill:#8E8E8E;fill:color(display-p3 0.5569 0.5569 0.5569);fill-opacity:1;"/>
<path d="M13.408 18.4937C13.408 17.9716 13.5124 17.5089 13.7213 17.1058C13.9301 16.7027 14.2216 16.387 14.5956 16.1587C14.9696 15.928 15.4043 15.8126 15.8997 15.8126H16.0053C16.4643 15.8126 16.8602 15.9085 17.1929 16.1004C17.528 16.2922 17.7988 16.5533 18.0053 16.8836L17.3678 17.2952C17.2172 17.0475 17.0265 16.8532 16.7958 16.7124C16.5676 16.5715 16.2919 16.5011 15.9689 16.5011H15.8633C15.5573 16.5011 15.2828 16.58 15.04 16.7379C14.7971 16.8957 14.6053 17.1216 14.4644 17.4154C14.3236 17.7069 14.2531 18.0602 14.2531 18.4755C14.2531 18.8738 14.3211 19.2174 14.4571 19.5064C14.5956 19.7954 14.7898 20.0176 15.04 20.1731C15.2901 20.3261 15.584 20.4026 15.9216 20.4026H16.0199C16.3283 20.4026 16.604 20.3637 16.8468 20.286C17.0921 20.2083 17.2937 20.0966 17.4515 19.9509L17.3568 20.2933V18.6358L17.63 18.9127H15.8633V18.2314H18.1583V20.3953C18.0004 20.5386 17.8085 20.6624 17.5827 20.7669C17.3593 20.8689 17.1128 20.9478 16.8432 21.0036C16.5761 21.0595 16.2968 21.0874 16.0053 21.0874H15.9033C15.5172 21.0874 15.1699 21.0255 14.8615 20.9016C14.5555 20.7754 14.2944 20.5981 14.0783 20.3698C13.8621 20.1391 13.6958 19.8646 13.5792 19.5465C13.4651 19.2284 13.408 18.8774 13.408 18.4937ZM21.5509 20.1476L21.529 20.0201V18.8289C21.529 18.518 21.461 18.2849 21.325 18.1294C21.1914 17.974 20.9838 17.8963 20.7021 17.8963C20.4762 17.8963 20.2832 17.9388 20.1229 18.0238C19.965 18.1088 19.8351 18.2314 19.7331 18.3917L19.2158 18.0165C19.3712 17.7712 19.5765 17.583 19.8315 17.4519C20.0889 17.3207 20.3815 17.2552 20.7094 17.2552H20.7932C21.0992 17.2552 21.3639 17.3135 21.5873 17.43C21.8132 17.5466 21.9868 17.7202 22.1082 17.9509C22.2321 18.1792 22.294 18.4622 22.294 18.7997V21H21.5509V20.1476ZM19.0555 20.0019C19.0555 19.6449 19.1855 19.3704 19.4453 19.1786C19.7076 18.9843 20.0792 18.8872 20.56 18.8872H21.5764V19.4081H20.6256C20.356 19.4081 20.1557 19.4518 20.0245 19.5392C19.8934 19.6267 19.8278 19.7614 19.8278 19.9436C19.8278 20.1063 19.88 20.2338 19.9845 20.3261C20.0913 20.4184 20.2492 20.4645 20.458 20.4645C20.7762 20.4645 21.0312 20.3746 21.223 20.1949C21.4173 20.0128 21.5497 19.7687 21.6201 19.4627H21.8532C21.8217 19.7954 21.7367 20.0832 21.5982 20.3261C21.4598 20.5689 21.2764 20.7559 21.0482 20.8871C20.8223 21.0158 20.5576 21.0801 20.254 21.0801C20.0039 21.0801 19.789 21.0352 19.6092 20.9454C19.432 20.8555 19.2947 20.7292 19.1976 20.5665C19.1029 20.4038 19.0555 20.2156 19.0555 20.0019ZM23.3475 17.3462H24.1198V21H23.3475V17.3462ZM23.2418 16.1587C23.2418 16.0202 23.2855 15.9085 23.373 15.8235C23.4604 15.7361 23.5818 15.6924 23.7373 15.6924C23.8903 15.6924 24.0105 15.7361 24.0979 15.8235C24.1878 15.9085 24.2327 16.0202 24.2327 16.1587C24.2327 16.2971 24.1878 16.41 24.0979 16.4975C24.0105 16.5825 23.8903 16.625 23.7373 16.625C23.5818 16.625 23.4604 16.5825 23.373 16.4975C23.2855 16.41 23.2418 16.2971 23.2418 16.1587ZM27.7902 18.96C27.7902 18.6054 27.7295 18.3419 27.6081 18.1695C27.4866 17.9947 27.3033 17.9072 27.058 17.9072H26.9815C26.8115 17.9072 26.6536 17.9522 26.5079 18.042C26.3646 18.1294 26.242 18.2545 26.14 18.4172C26.0404 18.5799 25.9688 18.7706 25.9251 18.9892H25.6519C25.732 18.4427 25.9069 18.0177 26.1764 17.7142C26.446 17.4082 26.7848 17.2552 27.1928 17.2552H27.2766C27.6846 17.2552 28.0003 17.396 28.2237 17.6777C28.4496 17.9594 28.5625 18.3553 28.5625 18.8653V21H27.7902V18.96ZM25.2329 17.3462H25.9943V18.3589L26.0052 18.5265V21H25.2329V17.3462Z" fill="white" fill-opacity="0.9" style="fill:white;fill-opacity:0.9;"/>
<path d="M127.741 40.6442L127.923 40.7644L126.667 41.9556L126.182 41.4492L127.544 40.1852H128.539V45.2852H127.741V40.6442ZM129.905 42.8918C129.905 42.2822 129.995 41.7698 130.175 41.3545C130.354 40.9393 130.598 40.626 130.907 40.4147C131.218 40.2034 131.57 40.0978 131.963 40.0978H132.047C132.271 40.0978 132.479 40.1269 132.674 40.1852C132.87 40.241 133.051 40.3273 133.216 40.4438C133.382 40.558 133.529 40.7037 133.657 40.881L133.107 41.3327C132.937 41.1214 132.766 40.9757 132.594 40.8955C132.421 40.813 132.251 40.7717 132.084 40.7717H132.003C131.756 40.7717 131.536 40.8482 131.344 41.0012C131.152 41.1518 131.003 41.3825 130.896 41.6933C130.789 42.0042 130.736 42.3988 130.736 42.8772V42.9829C130.736 43.4103 130.793 43.7503 130.907 44.0029C131.021 44.253 131.167 44.4315 131.344 44.5384C131.524 44.6452 131.708 44.6987 131.898 44.6987H131.967C132.275 44.6987 132.522 44.6076 132.706 44.4254C132.891 44.2409 132.983 43.9883 132.983 43.6677C132.983 43.3593 132.891 43.114 132.706 42.9319C132.524 42.7497 132.278 42.6587 131.967 42.6587H131.898C131.628 42.6587 131.395 42.7267 131.198 42.8627C131.002 42.9987 130.836 43.199 130.703 43.4637H130.477C130.516 43.148 130.608 42.8809 130.754 42.6623C130.902 42.4413 131.089 42.2737 131.315 42.1596C131.541 42.043 131.79 41.9847 132.062 41.9847H132.145C132.456 41.9847 132.737 42.054 132.987 42.1924C133.24 42.3308 133.44 42.5239 133.588 42.7716C133.736 43.0193 133.81 43.3083 133.81 43.6386C133.81 43.9762 133.734 44.2761 133.581 44.5384C133.428 44.8007 133.214 45.0059 132.94 45.154C132.665 45.2997 132.346 45.3726 131.982 45.3726H131.894C131.629 45.3726 131.378 45.3252 131.14 45.2305C130.902 45.1358 130.69 44.9889 130.503 44.7897C130.318 44.5882 130.172 44.3307 130.065 44.0174C129.959 43.7017 129.905 43.3265 129.905 42.8918ZM134.549 43.4565C134.549 43.0752 134.616 42.7412 134.749 42.4547C134.883 42.1681 135.07 41.9447 135.31 41.7844C135.551 41.6217 135.829 41.5403 136.144 41.5403H136.228C136.481 41.5403 136.709 41.5986 136.913 41.7152C137.117 41.8293 137.285 42.0005 137.416 42.2288C137.547 42.4547 137.628 42.734 137.66 43.0667H137.438C137.35 42.8044 137.219 42.5931 137.044 42.4328C136.869 42.2725 136.662 42.1924 136.421 42.1924H136.352C136.046 42.1924 135.802 42.3029 135.62 42.5239C135.438 42.7449 135.347 43.0557 135.347 43.4565C135.347 43.7236 135.388 43.9519 135.471 44.1413C135.553 44.3307 135.67 44.4752 135.82 44.5748C135.971 44.6744 136.148 44.7242 136.352 44.7242H136.421C136.582 44.7242 136.727 44.6877 136.858 44.6149C136.992 44.5396 137.107 44.4364 137.205 44.3052C137.304 44.1741 137.382 44.0211 137.438 43.8462H137.7C137.666 44.1814 137.581 44.4619 137.445 44.6877C137.309 44.9136 137.135 45.0848 136.924 45.2014C136.715 45.3155 136.483 45.3726 136.228 45.3726H136.144C135.829 45.3726 135.551 45.2924 135.31 45.1322C135.07 44.9719 134.883 44.7472 134.749 44.4582C134.616 44.1692 134.549 43.8353 134.549 43.4565ZM137.39 39.9666H138.163V45.2852H137.401V44.3854L137.39 44.2433V39.9666ZM142.815 43.828C142.815 43.5657 142.739 43.369 142.586 43.2379C142.433 43.1067 142.168 43.0412 141.791 43.0412H140.057V42.3855H141.609C141.927 42.3855 142.162 42.3223 142.312 42.196C142.465 42.0673 142.542 41.8742 142.542 41.6168C142.542 41.357 142.463 41.1651 142.305 41.0413C142.147 40.915 141.902 40.8518 141.569 40.8518H139.908L140.258 40.5604V44.9063L139.908 44.6185H141.81C142.147 44.6185 142.399 44.5529 142.564 44.4218C142.731 44.2882 142.815 44.0903 142.815 43.828ZM143.361 41.4893C143.361 41.7832 143.281 42.0333 143.121 42.2397C142.961 42.4437 142.679 42.5834 142.276 42.6587V42.5567C142.759 42.6174 143.108 42.7655 143.321 43.0011C143.538 43.2367 143.646 43.5342 143.646 43.8936C143.646 44.3332 143.49 44.6756 143.179 44.9209C142.868 45.1637 142.42 45.2852 141.835 45.2852H139.449V40.1852H141.627C142.009 40.1852 142.328 40.2374 142.586 40.3418C142.843 40.4438 143.036 40.592 143.165 40.7863C143.296 40.9805 143.361 41.2149 143.361 41.4893Z" fill="#8E8E8E" style="fill:#8E8E8E;fill:color(display-p3 0.5569 0.5569 0.5569);fill-opacity:1;"/>
<path d="M121.791 19.6048C121.791 19.2794 121.881 19.0013 122.061 18.7706C122.24 18.5399 122.504 18.3759 122.851 18.2788V18.4099C122.54 18.3104 122.308 18.1562 122.155 17.9473C122.002 17.7384 121.926 17.4919 121.926 17.2078C121.926 16.9334 121.995 16.6917 122.134 16.4829C122.274 16.2716 122.475 16.1077 122.735 15.9911C122.994 15.8721 123.307 15.8126 123.671 15.8126H123.773C124.047 15.8126 124.291 15.8466 124.505 15.9146C124.721 15.9826 124.905 16.0785 125.055 16.2024C125.206 16.3262 125.321 16.4732 125.401 16.6432C125.481 16.8132 125.521 17.0014 125.521 17.2078C125.521 17.4919 125.445 17.7397 125.292 17.9509C125.139 18.1598 124.907 18.3128 124.596 18.4099V18.2788C124.943 18.3759 125.206 18.5399 125.383 18.7706C125.563 19.0013 125.653 19.2794 125.653 19.6048C125.653 19.8962 125.578 20.1536 125.43 20.3771C125.285 20.6005 125.072 20.7754 124.793 20.9016C124.514 21.0255 124.174 21.0874 123.773 21.0874H123.671C123.375 21.0874 123.11 21.0522 122.877 20.9818C122.644 20.9089 122.447 20.8069 122.287 20.6758C122.126 20.5446 122.004 20.3892 121.919 20.2095C121.834 20.0274 121.791 19.8258 121.791 19.6048ZM122.622 19.5611C122.622 19.7408 122.664 19.8962 122.749 20.0274C122.834 20.1561 122.956 20.2544 123.113 20.3224C123.274 20.3904 123.461 20.4244 123.674 20.4244H123.769C124.095 20.4244 124.352 20.3491 124.541 20.1986C124.731 20.0456 124.826 19.8331 124.826 19.5611C124.826 19.3814 124.782 19.2272 124.694 19.0984C124.607 18.9697 124.484 18.8714 124.327 18.8034C124.169 18.7354 123.983 18.7014 123.769 18.7014H123.674C123.356 18.7014 123.101 18.7779 122.91 18.9309C122.718 19.0814 122.622 19.2915 122.622 19.5611ZM122.742 17.2515C122.742 17.5089 122.827 17.7057 122.997 17.8417C123.167 17.9777 123.393 18.0457 123.674 18.0457H123.769C124.051 18.0457 124.277 17.9777 124.447 17.8417C124.619 17.7057 124.705 17.5089 124.705 17.2515C124.705 17.084 124.667 16.9419 124.589 16.8253C124.511 16.7087 124.402 16.6213 124.261 16.563C124.123 16.5023 123.959 16.472 123.769 16.472H123.674C123.393 16.472 123.167 16.54 122.997 16.676C122.827 16.8095 122.742 17.0014 122.742 17.2515ZM126.447 20.5847C126.447 20.4366 126.496 20.3164 126.596 20.2241C126.696 20.1318 126.827 20.0856 126.989 20.0856C127.15 20.0856 127.28 20.1318 127.379 20.2241C127.479 20.3164 127.529 20.4366 127.529 20.5847C127.529 20.7304 127.479 20.8506 127.379 20.9454C127.28 21.0401 127.15 21.0874 126.989 21.0874C126.827 21.0874 126.696 21.0401 126.596 20.9454C126.496 20.8506 126.447 20.7304 126.447 20.5847ZM128.498 20.4026L130.203 18.7997C130.434 18.5812 130.615 18.3942 130.746 18.2387C130.88 18.0833 130.974 17.9388 131.03 17.8052C131.086 17.6717 131.114 17.5296 131.114 17.379C131.114 17.1799 131.075 17.0147 130.997 16.8836C130.922 16.7525 130.82 16.6541 130.691 16.5885C130.563 16.523 130.418 16.4902 130.258 16.4902H130.185C129.932 16.4902 129.711 16.5606 129.522 16.7015C129.333 16.8399 129.149 17.0645 128.972 17.3754L128.36 17.0038C128.547 16.6322 128.793 16.3408 129.099 16.1295C129.408 15.9182 129.771 15.8126 130.189 15.8126H130.269C130.577 15.8126 130.858 15.8709 131.11 15.9875C131.363 16.104 131.564 16.2777 131.715 16.5084C131.868 16.7391 131.945 17.0257 131.945 17.3681C131.945 17.5235 131.924 17.6717 131.883 17.8125C131.844 17.9534 131.778 18.0967 131.686 18.2424C131.596 18.3881 131.473 18.5459 131.318 18.7159C131.165 18.8859 130.973 19.079 130.742 19.2952L129.475 20.4827L129.446 20.3224H132.057V21H128.498V20.4026ZM134.549 19.1713C134.549 18.79 134.616 18.4561 134.749 18.1695C134.883 17.8829 135.07 17.6595 135.31 17.4992C135.551 17.3365 135.829 17.2552 136.144 17.2552H136.228C136.481 17.2552 136.709 17.3135 136.913 17.43C137.117 17.5442 137.285 17.7154 137.416 17.9437C137.547 18.1695 137.628 18.4488 137.66 18.7815H137.438C137.35 18.5192 137.219 18.3079 137.044 18.1477C136.869 17.9874 136.662 17.9072 136.421 17.9072H136.352C136.046 17.9072 135.802 18.0177 135.62 18.2387C135.438 18.4597 135.347 18.7706 135.347 19.1713C135.347 19.4384 135.388 19.6667 135.471 19.8561C135.553 20.0456 135.67 20.1901 135.82 20.2896C135.971 20.3892 136.148 20.439 136.352 20.439H136.421C136.582 20.439 136.727 20.4026 136.858 20.3297C136.992 20.2544 137.107 20.1512 137.205 20.0201C137.304 19.8889 137.382 19.7359 137.438 19.5611H137.7C137.666 19.8962 137.581 20.1767 137.445 20.4026C137.309 20.6284 137.135 20.7996 136.924 20.9162C136.715 21.0304 136.483 21.0874 136.228 21.0874H136.144C135.829 21.0874 135.551 21.0073 135.31 20.847C135.07 20.6867 134.883 20.4621 134.749 20.1731C134.616 19.8841 134.549 19.5502 134.549 19.1713ZM137.39 15.6815H138.163V21H137.401V20.1002L137.39 19.9581V15.6815ZM142.815 19.5429C142.815 19.2806 142.739 19.0839 142.586 18.9527C142.433 18.8216 142.168 18.756 141.791 18.756H140.057V18.1003H141.609C141.927 18.1003 142.162 18.0372 142.312 17.9109C142.465 17.7822 142.542 17.5891 142.542 17.3317C142.542 17.0718 142.463 16.88 142.305 16.7561C142.147 16.6298 141.902 16.5667 141.569 16.5667H139.908L140.258 16.2752V20.6211L139.908 20.3334H141.81C142.147 20.3334 142.399 20.2678 142.564 20.1366C142.731 20.0031 142.815 19.8051 142.815 19.5429ZM143.361 17.2042C143.361 17.498 143.281 17.7482 143.121 17.9546C142.961 18.1586 142.679 18.2982 142.276 18.3735V18.2715C142.759 18.3322 143.108 18.4804 143.321 18.7159C143.538 18.9515 143.646 19.249 143.646 19.6084C143.646 20.048 143.49 20.3904 143.179 20.6357C142.868 20.8786 142.42 21 141.835 21H139.449V15.9H141.627C142.009 15.9 142.328 15.9522 142.586 16.0567C142.843 16.1587 143.036 16.3068 143.165 16.5011C143.296 16.6954 143.361 16.9297 143.361 17.2042Z" fill="white" fill-opacity="0.9" style="fill:white;fill-opacity:0.9;"/>
<g filter="url(#filter2_di_5071_38490)">
<path d="M56.0732 73.9983C56.0732 71.9864 57.7042 70.3555 59.7161 70.3555H183.572C185.584 70.3555 187.215 71.9864 187.215 73.9983V73.9983C187.215 76.0102 185.584 77.6411 183.572 77.6411H59.7161C57.7042 77.6411 56.0732 76.0102 56.0732 73.9983V73.9983Z" fill="#414141" style="fill:#414141;fill:color(display-p3 0.2549 0.2549 0.2549);fill-opacity:1;"/>
</g>
<g filter="url(#filter3_d_5071_38490)">
<rect x="56" y="70.3555" width="44.8124" height="7.28567" rx="3.64284" fill="#FF66BF" style="fill:#FF66BF;fill:color(display-p3 1.0000 0.4000 0.7490);fill-opacity:1;" shape-rendering="crispEdges"/>
<rect x="57.2139" y="71.5703" width="4.85711" height="4.85711" rx="2.42856" fill="black" fill-opacity="0.2" style="fill:black;fill-opacity:0.2;"/>
<rect x="94.8564" y="71.5703" width="4.85711" height="4.85711" rx="2.42856" fill="black" fill-opacity="0.2" style="fill:black;fill-opacity:0.2;"/>
</g>
<path d="M56.8018 84.1832H57.6214V88.8934L57.279 88.5801H60.3135V89.2832H56.8018V84.1832ZM60.9305 87.4545C60.9305 87.0829 61.0046 86.7526 61.1527 86.4636C61.3033 86.1746 61.5158 85.9488 61.7902 85.7861C62.0646 85.6209 62.3864 85.5384 62.7556 85.5384H62.8394C63.2109 85.5384 63.5327 85.6209 63.8047 85.7861C64.0767 85.9488 64.288 86.1746 64.4386 86.4636C64.5891 86.7526 64.6644 87.0829 64.6644 87.4545C64.6644 87.8261 64.5891 88.1564 64.4386 88.4454C64.288 88.7343 64.0767 88.9614 63.8047 89.1266C63.5327 89.2893 63.2109 89.3706 62.8394 89.3706H62.7556C62.3864 89.3706 62.0646 89.2893 61.7902 89.1266C61.5158 88.9614 61.3033 88.7343 61.1527 88.4454C61.0046 88.1564 60.9305 87.8261 60.9305 87.4545ZM61.7283 87.4545C61.7283 87.7095 61.7696 87.9317 61.8521 88.1211C61.9347 88.3106 62.0525 88.4587 62.2055 88.5656C62.3609 88.67 62.5455 88.7222 62.7592 88.7222H62.8357C63.1539 88.7222 63.404 88.6068 63.5861 88.3761C63.7707 88.1454 63.863 87.8382 63.863 87.4545C63.863 87.1995 63.8217 86.9773 63.7391 86.7879C63.6566 86.5984 63.5376 86.4515 63.3821 86.3471C63.2291 86.2426 63.047 86.1904 62.8357 86.1904H62.7592C62.4411 86.1904 62.1897 86.3058 62.0051 86.5365C61.8206 86.7648 61.7283 87.0708 61.7283 87.4545ZM70.0464 85.6294H70.8624C70.6996 86.2511 70.5199 86.8692 70.3232 87.4836C70.1289 88.0981 69.9249 88.6979 69.7112 89.2832H68.7386L67.7805 85.9354H68.2359L67.2742 89.2832H66.3015C66.0854 88.6979 65.8802 88.0981 65.6859 87.4836C65.494 86.8692 65.3155 86.2511 65.1504 85.6294H65.9846C66.1157 86.1904 66.259 86.7514 66.4145 87.3124C66.5723 87.871 66.7375 88.4235 66.9099 88.9699H66.7277L67.6202 85.8371H68.4071L69.2959 88.9699H69.1247C69.2972 88.4235 69.4623 87.871 69.6202 87.3124C69.778 86.7514 69.9201 86.1904 70.0464 85.6294Z" fill="#8E8E8E" style="fill:#8E8E8E;fill:color(display-p3 0.5569 0.5569 0.5569);fill-opacity:1;"/>
<path d="M56.8018 59.9H57.6214V65H56.8018V59.9ZM57.086 62.0894H60.8053V62.7961H57.086V62.0894ZM60.2552 59.9H61.0749V65H60.2552V59.9ZM64.6383 64.1476L64.6165 64.0201V62.8289C64.6165 62.518 64.5485 62.2849 64.4125 62.1294C64.2789 61.974 64.0713 61.8963 63.7896 61.8963C63.5637 61.8963 63.3706 61.9388 63.2104 62.0238C63.0525 62.1088 62.9226 62.2314 62.8206 62.3917L62.3033 62.0165C62.4587 61.7712 62.6639 61.583 62.9189 61.4519C63.1764 61.3207 63.469 61.2552 63.7969 61.2552H63.8806C64.1866 61.2552 64.4513 61.3135 64.6748 61.43C64.9006 61.5466 65.0743 61.7202 65.1957 61.9509C65.3196 62.1792 65.3815 62.4622 65.3815 62.7997V65H64.6383V64.1476ZM62.143 64.0019C62.143 63.6449 62.2729 63.3704 62.5328 63.1786C62.7951 62.9843 63.1666 62.8872 63.6475 62.8872H64.6638V63.4081H63.7131C63.4435 63.4081 63.2431 63.4518 63.112 63.5392C62.9809 63.6267 62.9153 63.7614 62.9153 63.9436C62.9153 64.1063 62.9675 64.2338 63.0719 64.3261C63.1788 64.4184 63.3366 64.4645 63.5455 64.4645C63.8636 64.4645 64.1186 64.3746 64.3105 64.1949C64.5048 64.0128 64.6371 63.7687 64.7076 63.4627H64.9407C64.9091 63.7954 64.8241 64.0832 64.6857 64.3261C64.5473 64.5689 64.3639 64.7559 64.1356 64.8871C63.9098 65.0158 63.6451 65.0801 63.3415 65.0801C63.0914 65.0801 62.8764 65.0352 62.6967 64.9454C62.5194 64.8555 62.3822 64.7292 62.2851 64.5665C62.1904 64.4038 62.143 64.2156 62.143 64.0019ZM69.2472 63.1749C69.2472 62.9054 69.2059 62.6771 69.1234 62.4901C69.0432 62.3007 68.9279 62.1562 68.7773 62.0566C68.6291 61.957 68.4519 61.9072 68.2454 61.9072H68.1762C68.0159 61.9072 67.869 61.9449 67.7354 62.0202C67.6043 62.093 67.4889 62.195 67.3894 62.3262C67.2922 62.4573 67.2145 62.6091 67.1562 62.7815H66.8976C66.9292 62.4488 67.0129 62.1695 67.1489 61.9437C67.2874 61.7154 67.461 61.5442 67.6699 61.43C67.8812 61.3135 68.1143 61.2552 68.3693 61.2552H68.4531C68.7712 61.2552 69.0493 61.3365 69.2873 61.4992C69.5253 61.6595 69.7111 61.8829 69.8446 62.1695C69.9806 62.4561 70.0486 62.7912 70.0486 63.1749C70.0486 63.5538 69.9806 63.8877 69.8446 64.1767C69.7111 64.4633 69.5253 64.6867 69.2873 64.847C69.0493 65.0073 68.7712 65.0874 68.4531 65.0874H68.3693C68.1167 65.0874 67.8884 65.0304 67.6844 64.9162C67.4804 64.7996 67.3129 64.6284 67.1817 64.4026C67.0506 64.1767 66.968 63.8974 66.934 63.5647H67.1562C67.2437 63.8221 67.3748 64.0322 67.5497 64.1949C67.7269 64.3576 67.9358 64.439 68.1762 64.439H68.2454C68.5514 64.439 68.7943 64.3285 68.974 64.1075C69.1561 63.8841 69.2472 63.5732 69.2472 63.1749ZM67.2072 66.53H66.4349V61.3462H67.1963V62.246L67.2072 62.3844V66.53ZM71.2487 63.7359V60.2716H72.021V63.6339C72.021 63.8258 72.044 63.9788 72.0902 64.0929C72.1363 64.2046 72.208 64.286 72.3051 64.337C72.4022 64.3856 72.5285 64.4099 72.6839 64.4099C72.7908 64.4099 72.8879 64.4038 72.9754 64.3916C73.0652 64.3795 73.1575 64.3649 73.2522 64.3479V64.9599C73.1478 64.9866 73.0337 65.0073 72.9098 65.0219C72.7884 65.0389 72.6669 65.0474 72.5455 65.0474C72.2541 65.0474 72.0125 65.0012 71.8206 64.9089C71.6287 64.8166 71.4855 64.6734 71.3907 64.4791C71.296 64.2848 71.2487 64.0371 71.2487 63.7359ZM70.5274 61.3462H73.2012V61.9473H70.5274V61.3462ZM74.0479 61.3462H74.8202V65H74.0479V61.3462ZM73.9423 60.1587C73.9423 60.0202 73.986 59.9085 74.0734 59.8235C74.1608 59.7361 74.2823 59.6924 74.4377 59.6924C74.5907 59.6924 74.7109 59.7361 74.7983 59.8235C74.8882 59.9085 74.9331 60.0202 74.9331 60.1587C74.9331 60.2971 74.8882 60.41 74.7983 60.4975C74.7109 60.5825 74.5907 60.625 74.4377 60.625C74.2823 60.625 74.1608 60.5825 74.0734 60.4975C73.986 60.41 73.9423 60.2971 73.9423 60.1587ZM75.7366 63.1749C75.7366 62.7791 75.8119 62.4379 75.9625 62.1513C76.1131 61.8647 76.3219 61.6437 76.5891 61.4883C76.8586 61.3329 77.1695 61.2552 77.5216 61.2552H77.6054C77.8993 61.2552 78.1725 61.328 78.4251 61.4737C78.6776 61.6194 78.8792 61.8186 79.0298 62.0712L78.4396 62.4427C78.3376 62.2752 78.2162 62.1452 78.0753 62.0529C77.9345 61.9582 77.7754 61.9109 77.5981 61.9109H77.518C77.2168 61.9109 76.9776 62.025 76.8004 62.2533C76.6255 62.4816 76.5381 62.7876 76.5381 63.1713C76.5381 63.4287 76.5781 63.6522 76.6583 63.8416C76.7384 64.0286 76.8514 64.1743 76.9971 64.2787C77.1428 64.3831 77.3164 64.4354 77.518 64.4354H77.5981C77.7778 64.4354 77.9418 64.3941 78.0899 64.3115C78.2381 64.2265 78.3656 64.1136 78.4724 63.9727L79.0298 64.3807C78.8695 64.6041 78.6643 64.7778 78.4141 64.9016C78.1664 65.0255 77.8968 65.0874 77.6054 65.0874H77.5216C77.1695 65.0874 76.8599 65.0109 76.5927 64.8579C76.3256 64.7025 76.1155 64.4815 75.9625 64.1949C75.8119 63.9084 75.7366 63.5684 75.7366 63.1749ZM81.3479 62.45C81.3479 61.94 81.4486 61.4871 81.6502 61.0912C81.8518 60.693 82.1371 60.3809 82.5063 60.155C82.8754 59.9267 83.3114 59.8126 83.8141 59.8126H83.9233C84.3022 59.8126 84.6434 59.8782 84.947 60.0093C85.2506 60.138 85.5092 60.3214 85.7229 60.5594C85.9391 60.795 86.1042 61.073 86.2183 61.3936C86.3325 61.7142 86.3895 62.0663 86.3895 62.45C86.3895 62.96 86.2888 63.4142 86.0872 63.8124C85.8881 64.2083 85.6039 64.5204 85.2348 64.7486C84.8656 64.9745 84.4285 65.0874 83.9233 65.0874H83.8141C83.4352 65.0874 83.094 65.0231 82.7904 64.8944C82.4893 64.7632 82.2306 64.5799 82.0145 64.3443C81.8008 64.1063 81.6356 63.827 81.5191 63.5064C81.4049 63.1834 81.3479 62.8313 81.3479 62.45ZM82.1966 62.45C82.1966 62.8434 82.2634 63.1859 82.397 63.4773C82.5306 63.7687 82.7188 63.9946 82.9616 64.1549C83.2069 64.3151 83.4923 64.3953 83.8177 64.3953H83.9197C84.2476 64.3953 84.5329 64.3151 84.7758 64.1549C85.0186 63.9946 85.2068 63.7687 85.3404 63.4773C85.4764 63.1859 85.5444 62.8434 85.5444 62.45C85.5444 62.0566 85.4764 61.7142 85.3404 61.4227C85.2068 61.1313 85.0186 60.9055 84.7758 60.7452C84.5329 60.5849 84.2476 60.5047 83.9197 60.5047H83.8177C83.4923 60.5047 83.2069 60.5849 82.9616 60.7452C82.7188 60.9055 82.5306 61.1313 82.397 61.4227C82.2634 61.7142 82.1966 62.0566 82.1966 62.45ZM87.298 63.4773V61.3462H88.0703V63.3862C88.0703 63.7335 88.1298 63.9958 88.2488 64.1731C88.3702 64.3504 88.5548 64.439 88.8025 64.439H88.879C89.0587 64.439 89.2202 64.3916 89.3635 64.2969C89.5092 64.2022 89.6294 64.0735 89.7241 63.9108C89.8213 63.7457 89.8905 63.5599 89.9318 63.3534H90.205C90.154 63.7007 90.0617 64.0055 89.9281 64.2678C89.7945 64.5276 89.6221 64.7292 89.4108 64.8725C89.202 65.0158 88.9543 65.0874 88.6677 65.0874H88.5839C88.307 65.0874 88.0715 65.0243 87.8772 64.898C87.6853 64.7717 87.5408 64.5884 87.4437 64.3479C87.3466 64.1075 87.298 63.8173 87.298 63.4773ZM89.8516 61.3462H90.6239V65H89.8625V63.9873L89.8516 63.8197V61.3462ZM92.0598 63.7359V60.2716H92.8321V63.6339C92.8321 63.8258 92.8551 63.9788 92.9013 64.0929C92.9474 64.2046 93.0191 64.286 93.1162 64.337C93.2134 64.3856 93.3396 64.4099 93.4951 64.4099C93.6019 64.4099 93.6991 64.4038 93.7865 64.3916C93.8764 64.3795 93.9686 64.3649 94.0634 64.3479V64.9599C93.9589 64.9866 93.8448 65.0073 93.7209 65.0219C93.5995 65.0389 93.4781 65.0474 93.3566 65.0474C93.0652 65.0474 92.8236 65.0012 92.6317 64.9089C92.4399 64.8166 92.2966 64.6734 92.2019 64.4791C92.1071 64.2848 92.0598 64.0371 92.0598 63.7359ZM91.3385 61.3462H94.0124V61.9473H91.3385V61.3462ZM97.6713 63.1749C97.6713 62.9054 97.63 62.6771 97.5474 62.4901C97.4673 62.3007 97.3519 62.1562 97.2014 62.0566C97.0532 61.957 96.8759 61.9072 96.6695 61.9072H96.6003C96.44 61.9072 96.2931 61.9449 96.1595 62.0202C96.0284 62.093 95.913 62.195 95.8135 62.3262C95.7163 62.4573 95.6386 62.6091 95.5803 62.7815H95.3217C95.3532 62.4488 95.437 62.1695 95.573 61.9437C95.7115 61.7154 95.8851 61.5442 96.0939 61.43C96.3052 61.3135 96.5384 61.2552 96.7934 61.2552H96.8772C97.1953 61.2552 97.4734 61.3365 97.7114 61.4992C97.9494 61.6595 98.1352 61.8829 98.2687 62.1695C98.4047 62.4561 98.4727 62.7912 98.4727 63.1749C98.4727 63.5538 98.4047 63.8877 98.2687 64.1767C98.1352 64.4633 97.9494 64.6867 97.7114 64.847C97.4734 65.0073 97.1953 65.0874 96.8772 65.0874H96.7934C96.5408 65.0874 96.3125 65.0304 96.1085 64.9162C95.9045 64.7996 95.737 64.6284 95.6058 64.4026C95.4747 64.1767 95.3921 63.8974 95.3581 63.5647H95.5803C95.6677 63.8221 95.7989 64.0322 95.9737 64.1949C96.151 64.3576 96.3599 64.439 96.6003 64.439H96.6695C96.9755 64.439 97.2184 64.3285 97.3981 64.1075C97.5802 63.8841 97.6713 63.5732 97.6713 63.1749ZM95.6313 66.53H94.859V61.3462H95.6204V62.246L95.6313 62.3844V66.53ZM99.3293 63.4773V61.3462H100.102V63.3862C100.102 63.7335 100.161 63.9958 100.28 64.1731C100.402 64.3504 100.586 64.439 100.834 64.439H100.91C101.09 64.439 101.252 64.3916 101.395 64.2969C101.541 64.2022 101.661 64.0735 101.755 63.9108C101.853 63.7457 101.922 63.5599 101.963 63.3534H102.236C102.185 63.7007 102.093 64.0055 101.959 64.2678C101.826 64.5276 101.653 64.7292 101.442 64.8725C101.233 65.0158 100.986 65.0874 100.699 65.0874H100.615C100.338 65.0874 100.103 65.0243 99.9085 64.898C99.7167 64.7717 99.5722 64.5884 99.475 64.3479C99.3779 64.1075 99.3293 63.8173 99.3293 63.4773ZM101.883 61.3462H102.655V65H101.894V63.9873L101.883 63.8197V61.3462ZM104.091 63.7359V60.2716H104.863V63.6339C104.863 63.8258 104.886 63.9788 104.933 64.0929C104.979 64.2046 105.05 64.286 105.148 64.337C105.245 64.3856 105.371 64.4099 105.526 64.4099C105.633 64.4099 105.73 64.4038 105.818 64.3916C105.908 64.3795 106 64.3649 106.095 64.3479V64.9599C105.99 64.9866 105.876 65.0073 105.752 65.0219C105.631 65.0389 105.509 65.0474 105.388 65.0474C105.097 65.0474 104.855 65.0012 104.663 64.9089C104.471 64.8166 104.328 64.6734 104.233 64.4791C104.138 64.2848 104.091 64.0371 104.091 63.7359ZM103.37 61.3462H106.044V61.9473H103.37V61.3462Z" fill="white" fill-opacity="0.9" style="fill:white;fill-opacity:0.9;"/>
<path d="M171.445 84.1832H172.265V89.2832H171.445V84.1832ZM171.729 86.3726H175.449V87.0793H171.729V86.3726ZM174.899 84.1832H175.718V89.2832H174.899V84.1832ZM177.009 85.6294H177.781V89.2832H177.009V85.6294ZM176.903 84.4419C176.903 84.3034 176.947 84.1917 177.034 84.1067C177.122 84.0193 177.243 83.9756 177.399 83.9756C177.552 83.9756 177.672 84.0193 177.759 84.1067C177.849 84.1917 177.894 84.3034 177.894 84.4419C177.894 84.5803 177.849 84.6932 177.759 84.7807C177.672 84.8657 177.552 84.9082 177.399 84.9082C177.243 84.9082 177.122 84.8657 177.034 84.7807C176.947 84.6932 176.903 84.5803 176.903 84.4419ZM178.694 87.4181C178.694 87.0441 178.761 86.7174 178.894 86.4381C179.028 86.1564 179.214 85.9379 179.452 85.7824C179.692 85.6246 179.969 85.5457 180.282 85.5457H180.37C180.622 85.5457 180.853 85.6052 181.062 85.7242C181.271 85.8407 181.444 86.0132 181.583 86.2414C181.721 86.4673 181.808 86.7478 181.845 87.0829H181.575C181.5 86.8206 181.374 86.6069 181.196 86.4418C181.022 86.2742 180.81 86.1904 180.563 86.1904H180.493C180.187 86.1904 179.945 86.2985 179.765 86.5146C179.585 86.7284 179.495 87.0295 179.495 87.4181C179.495 87.8091 179.585 88.1126 179.765 88.3288C179.945 88.5425 180.187 88.6493 180.493 88.6493H180.563C180.81 88.6493 181.022 88.5668 181.196 88.4016C181.371 88.2341 181.498 88.0191 181.575 87.7569H181.805C181.751 88.2571 181.592 88.6384 181.328 88.9007C181.065 89.163 180.746 89.2941 180.37 89.2941H180.282C179.969 89.2941 179.692 89.2164 179.452 89.061C179.214 88.9056 179.028 88.687 178.894 88.4053C178.761 88.1236 178.694 87.7945 178.694 87.4181ZM178.883 90.1648L179.379 89.7349C179.5 89.9073 179.646 90.0385 179.816 90.1283C179.986 90.2182 180.189 90.2631 180.424 90.2631C180.767 90.2631 181.033 90.1623 181.222 89.9608C181.414 89.7616 181.51 89.4581 181.51 89.0501V86.5656L181.528 86.409V85.6367H182.271V88.9772C182.271 89.4119 182.196 89.7713 182.045 90.0555C181.895 90.3396 181.687 90.5509 181.422 90.6893C181.158 90.8302 180.852 90.9006 180.504 90.9006H180.421C180.093 90.9006 179.795 90.8363 179.528 90.7076C179.263 90.5813 179.048 90.4003 178.883 90.1648ZM185.948 87.2432C185.948 86.8959 185.889 86.6336 185.77 86.4564C185.651 86.2791 185.466 86.1904 185.216 86.1904H185.139C184.96 86.1904 184.797 86.2378 184.651 86.3325C184.506 86.4272 184.384 86.5559 184.287 86.7186C184.192 86.8814 184.124 87.0659 184.083 87.2724H183.81C183.861 86.9251 183.953 86.6215 184.087 86.3616C184.22 86.1018 184.393 85.9002 184.604 85.7569C184.815 85.6112 185.064 85.5384 185.351 85.5384H185.434C185.706 85.5384 185.937 85.6015 186.127 85.7278C186.318 85.8541 186.465 86.0374 186.567 86.2779C186.669 86.5183 186.72 86.8085 186.72 87.1485V89.2832H185.948V87.2432ZM183.391 83.9647H184.163V89.2832H183.391V83.9647Z" fill="#8E8E8E" style="fill:#8E8E8E;fill:color(display-p3 0.5569 0.5569 0.5569);fill-opacity:1;"/>
<path d="M146.806 60.4683H146.944L144.839 63.3061V63.1312H148.387V63.8051H144.15V63.164L146.613 59.9H147.596V65H146.806V60.4683ZM149.201 62.45C149.201 62.042 149.247 61.6753 149.339 61.3499C149.431 61.0245 149.564 60.7476 149.736 60.5193C149.911 60.2886 150.124 60.1137 150.374 59.9947C150.624 59.8733 150.907 59.8126 151.222 59.8126H151.324C151.64 59.8126 151.922 59.8733 152.17 59.9947C152.42 60.1137 152.632 60.2886 152.807 60.5193C152.982 60.7476 153.114 61.0245 153.204 61.3499C153.296 61.6753 153.343 62.042 153.343 62.45C153.343 62.858 153.296 63.2247 153.204 63.5502C153.114 63.8756 152.982 64.1536 152.807 64.3844C152.632 64.6126 152.42 64.7875 152.17 64.9089C151.922 65.0279 151.64 65.0874 151.324 65.0874H151.222C150.907 65.0874 150.624 65.0279 150.374 64.9089C150.124 64.7875 149.911 64.6126 149.736 64.3844C149.564 64.1536 149.431 63.8756 149.339 63.5502C149.247 63.2247 149.201 62.858 149.201 62.45ZM150.177 61.3681C150.082 61.6571 150.035 62.0177 150.035 62.45C150.035 62.7099 150.052 62.9442 150.086 63.1531C150.122 63.3595 150.173 63.5417 150.239 63.6995C150.307 63.8549 150.388 63.9849 150.483 64.0893C150.58 64.1937 150.691 64.2726 150.814 64.3261C150.941 64.3795 151.078 64.4062 151.226 64.4062H151.321C151.569 64.4062 151.781 64.3334 151.958 64.1876C152.136 64.0395 152.272 63.8209 152.366 63.5319C152.461 63.2429 152.508 62.8823 152.508 62.45C152.508 62.1902 152.49 61.957 152.454 61.7506C152.42 61.5417 152.369 61.3596 152.301 61.2042C152.235 61.0463 152.154 60.9152 152.057 60.8107C151.962 60.7063 151.853 60.6274 151.729 60.574C151.605 60.5205 151.469 60.4938 151.321 60.4938H151.226C150.978 60.4938 150.766 60.5667 150.589 60.7124C150.411 60.8581 150.274 61.0767 150.177 61.3681ZM158.838 59.9H159.695L155.465 65H154.609L158.838 59.9ZM157.731 63.6449C157.731 63.198 157.844 62.8459 158.07 62.5884C158.296 62.331 158.602 62.2023 158.988 62.2023H159.046C159.24 62.2023 159.414 62.2363 159.567 62.3043C159.722 62.3699 159.854 62.4646 159.96 62.5884C160.07 62.7123 160.154 62.8629 160.212 63.0402C160.27 63.2174 160.299 63.419 160.299 63.6449C160.299 64.0917 160.188 64.4439 159.964 64.7013C159.741 64.9587 159.435 65.0874 159.046 65.0874H158.988C158.794 65.0874 158.619 65.0546 158.463 64.9891C158.31 64.9211 158.179 64.8251 158.07 64.7013C157.961 64.5774 157.877 64.4256 157.818 64.2459C157.76 64.0662 157.731 63.8659 157.731 63.6449ZM158.405 63.6449C158.405 63.7906 158.418 63.9205 158.445 64.0346C158.472 64.1464 158.509 64.2399 158.558 64.3151C158.609 64.3904 158.671 64.4475 158.744 64.4864C158.817 64.5228 158.899 64.541 158.991 64.541H159.042C159.225 64.541 159.368 64.4657 159.472 64.3151C159.577 64.1646 159.629 63.9411 159.629 63.6449C159.629 63.4943 159.616 63.3644 159.589 63.2551C159.562 63.1434 159.523 63.0499 159.472 62.9746C159.421 62.8969 159.359 62.8398 159.287 62.8034C159.214 62.7645 159.132 62.7451 159.042 62.7451H158.991C158.809 62.7451 158.666 62.8216 158.562 62.9746C158.457 63.1252 158.405 63.3486 158.405 63.6449ZM154.074 61.2552C154.074 60.8083 154.187 60.4562 154.412 60.1987C154.638 59.9413 154.944 59.8126 155.33 59.8126H155.389C155.583 59.8126 155.757 59.8466 155.91 59.9146C156.065 59.9802 156.196 60.0749 156.303 60.1987C156.412 60.3226 156.496 60.4732 156.554 60.6505C156.613 60.8277 156.642 61.0293 156.642 61.2552C156.642 61.702 156.53 62.0542 156.307 62.3116C156.083 62.569 155.777 62.6977 155.389 62.6977H155.33C155.136 62.6977 154.961 62.6649 154.806 62.5994C154.653 62.5314 154.522 62.4354 154.412 62.3116C154.303 62.1877 154.219 62.0359 154.161 61.8562C154.103 61.6765 154.074 61.4762 154.074 61.2552ZM154.748 61.2552C154.748 61.4009 154.761 61.5308 154.788 61.6449C154.814 61.7567 154.852 61.8502 154.901 61.9254C154.952 62.0007 155.013 62.0578 155.086 62.0967C155.159 62.1331 155.242 62.1513 155.334 62.1513H155.385C155.567 62.1513 155.71 62.076 155.815 61.9254C155.919 61.7749 155.972 61.5514 155.972 61.2552C155.972 61.1046 155.958 60.9747 155.931 60.8654C155.905 60.7537 155.866 60.6602 155.815 60.5849C155.764 60.5072 155.702 60.4501 155.629 60.4137C155.556 60.3748 155.475 60.3554 155.385 60.3554H155.334C155.152 60.3554 155.009 60.4319 154.904 60.5849C154.8 60.7355 154.748 60.9589 154.748 61.2552ZM162.451 62.6832H164.968V63.3389H162.451V62.6832ZM168.623 60.359L168.806 60.4792L167.549 61.6704L167.064 61.1641L168.427 59.9H169.421V65H168.623V60.359ZM170.787 62.45C170.787 62.042 170.833 61.6753 170.926 61.3499C171.018 61.0245 171.15 60.7476 171.323 60.5193C171.498 60.2886 171.71 60.1137 171.96 59.9947C172.21 59.8733 172.493 59.8126 172.809 59.8126H172.911C173.227 59.8126 173.509 59.8733 173.756 59.9947C174.006 60.1137 174.219 60.2886 174.394 60.5193C174.569 60.7476 174.701 61.0245 174.791 61.3499C174.883 61.6753 174.929 62.042 174.929 62.45C174.929 62.858 174.883 63.2247 174.791 63.5502C174.701 63.8756 174.569 64.1536 174.394 64.3844C174.219 64.6126 174.006 64.7875 173.756 64.9089C173.509 65.0279 173.227 65.0874 172.911 65.0874H172.809C172.493 65.0874 172.21 65.0279 171.96 64.9089C171.71 64.7875 171.498 64.6126 171.323 64.3844C171.15 64.1536 171.018 63.8756 170.926 63.5502C170.833 63.2247 170.787 62.858 170.787 62.45ZM171.764 61.3681C171.669 61.6571 171.622 62.0177 171.622 62.45C171.622 62.7099 171.639 62.9442 171.673 63.1531C171.709 63.3595 171.76 63.5417 171.826 63.6995C171.894 63.8549 171.975 63.9849 172.07 64.0893C172.167 64.1937 172.277 64.2726 172.401 64.3261C172.527 64.3795 172.665 64.4062 172.813 64.4062H172.907C173.155 64.4062 173.368 64.3334 173.545 64.1876C173.722 64.0395 173.858 63.8209 173.953 63.5319C174.048 63.2429 174.095 62.8823 174.095 62.45C174.095 62.1902 174.077 61.957 174.04 61.7506C174.006 61.5417 173.955 61.3596 173.887 61.2042C173.822 61.0463 173.74 60.9152 173.643 60.8107C173.549 60.7063 173.439 60.6274 173.315 60.574C173.192 60.5205 173.056 60.4938 172.907 60.4938H172.813C172.565 60.4938 172.353 60.5667 172.175 60.7124C171.998 60.8581 171.861 61.0767 171.764 61.3681ZM175.846 62.45C175.846 62.042 175.892 61.6753 175.984 61.3499C176.077 61.0245 176.209 60.7476 176.382 60.5193C176.556 60.2886 176.769 60.1137 177.019 59.9947C177.269 59.8733 177.552 59.8126 177.868 59.8126H177.97C178.286 59.8126 178.567 59.8733 178.815 59.9947C179.065 60.1137 179.278 60.2886 179.452 60.5193C179.627 60.7476 179.76 61.0245 179.85 61.3499C179.942 61.6753 179.988 62.042 179.988 62.45C179.988 62.858 179.942 63.2247 179.85 63.5502C179.76 63.8756 179.627 64.1536 179.452 64.3844C179.278 64.6126 179.065 64.7875 178.815 64.9089C178.567 65.0279 178.286 65.0874 177.97 65.0874H177.868C177.552 65.0874 177.269 65.0279 177.019 64.9089C176.769 64.7875 176.556 64.6126 176.382 64.3844C176.209 64.1536 176.077 63.8756 175.984 63.5502C175.892 63.2247 175.846 62.858 175.846 62.45ZM176.822 61.3681C176.728 61.6571 176.68 62.0177 176.68 62.45C176.68 62.7099 176.697 62.9442 176.731 63.1531C176.768 63.3595 176.819 63.5417 176.884 63.6995C176.952 63.8549 177.034 63.9849 177.128 64.0893C177.225 64.1937 177.336 64.2726 177.46 64.3261C177.586 64.3795 177.723 64.4062 177.871 64.4062H177.966C178.214 64.4062 178.426 64.3334 178.604 64.1876C178.781 64.0395 178.917 63.8209 179.012 63.5319C179.106 63.2429 179.154 62.8823 179.154 62.45C179.154 62.1902 179.136 61.957 179.099 61.7506C179.065 61.5417 179.014 61.3596 178.946 61.2042C178.881 61.0463 178.799 60.9152 178.702 60.8107C178.607 60.7063 178.498 60.6274 178.374 60.574C178.25 60.5205 178.114 60.4938 177.966 60.4938H177.871C177.624 60.4938 177.411 60.5667 177.234 60.7124C177.057 60.8581 176.919 61.0767 176.822 61.3681ZM185.484 59.9H186.34L182.111 65H181.254L185.484 59.9ZM184.376 63.6449C184.376 63.198 184.489 62.8459 184.715 62.5884C184.941 62.331 185.247 62.2023 185.633 62.2023H185.691C185.886 62.2023 186.059 62.2363 186.212 62.3043C186.368 62.3699 186.499 62.4646 186.606 62.5884C186.715 62.7123 186.799 62.8629 186.857 63.0402C186.915 63.2174 186.945 63.419 186.945 63.6449C186.945 64.0917 186.833 64.4439 186.609 64.7013C186.386 64.9587 186.08 65.0874 185.691 65.0874H185.633C185.439 65.0874 185.264 65.0546 185.109 64.9891C184.956 64.9211 184.824 64.8251 184.715 64.7013C184.606 64.5774 184.522 64.4256 184.464 64.2459C184.406 64.0662 184.376 63.8659 184.376 63.6449ZM185.05 63.6449C185.05 63.7906 185.064 63.9205 185.09 64.0346C185.117 64.1464 185.155 64.2399 185.203 64.3151C185.254 64.3904 185.316 64.4475 185.389 64.4864C185.462 64.5228 185.545 64.541 185.637 64.541H185.688C185.87 64.541 186.013 64.4657 186.118 64.3151C186.222 64.1646 186.274 63.9411 186.274 63.6449C186.274 63.4943 186.261 63.3644 186.234 63.2551C186.208 63.1434 186.169 63.0499 186.118 62.9746C186.067 62.8969 186.005 62.8398 185.932 62.8034C185.859 62.7645 185.778 62.7451 185.688 62.7451H185.637C185.455 62.7451 185.311 62.8216 185.207 62.9746C185.103 63.1252 185.05 63.3486 185.05 63.6449ZM180.719 61.2552C180.719 60.8083 180.832 60.4562 181.058 60.1987C181.284 59.9413 181.59 59.8126 181.976 59.8126H182.034C182.228 59.8126 182.402 59.8466 182.555 59.9146C182.71 59.9802 182.842 60.0749 182.948 60.1987C183.058 60.3226 183.141 60.4732 183.2 60.6505C183.258 60.8277 183.287 61.0293 183.287 61.2552C183.287 61.702 183.175 62.0542 182.952 62.3116C182.729 62.569 182.423 62.6977 182.034 62.6977H181.976C181.781 62.6977 181.607 62.6649 181.451 62.5994C181.298 62.5314 181.167 62.4354 181.058 62.3116C180.948 62.1877 180.865 62.0359 180.806 61.8562C180.748 61.6765 180.719 61.4762 180.719 61.2552ZM181.393 61.2552C181.393 61.4009 181.406 61.5308 181.433 61.6449C181.46 61.7567 181.497 61.8502 181.546 61.9254C181.597 62.0007 181.659 62.0578 181.732 62.0967C181.805 62.1331 181.887 62.1513 181.979 62.1513H182.03C182.213 62.1513 182.356 62.076 182.46 61.9254C182.565 61.7749 182.617 61.5514 182.617 61.2552C182.617 61.1046 182.604 60.9747 182.577 60.8654C182.55 60.7537 182.511 60.6602 182.46 60.5849C182.409 60.5072 182.347 60.4501 182.274 60.4137C182.202 60.3748 182.12 60.3554 182.03 60.3554H181.979C181.797 60.3554 181.654 60.4319 181.55 60.5849C181.445 60.7355 181.393 60.9589 181.393 61.2552Z" fill="white" fill-opacity="0.9" style="fill:white;fill-opacity:0.9;"/>
<rect x="205.111" y="103.666" width="24.8889" height="21.7188" rx="10.8594" fill="#EAEAEA" style="fill:#EAEAEA;fill:color(display-p3 0.9188 0.9188 0.9188);fill-opacity:1;"/>
<path d="M217.557 109.32V119.722" stroke="#272727" style="stroke:#272727;stroke:color(display-p3 0.1529 0.1529 0.1529);stroke-opacity:1;" stroke-width="0.930804" stroke-linecap="round" stroke-linejoin="round"/>
<path d="M215.811 110.119H213.919C213.073 110.119 212.391 110.817 212.391 111.678V117.372C212.391 118.233 213.073 118.931 213.919 118.931H215.718" stroke="#272727" style="stroke:#272727;stroke:color(display-p3 0.1529 0.1529 0.1529);stroke-opacity:1;" stroke-width="0.930804" stroke-linecap="round" stroke-linejoin="round"/>
<path d="M214.158 112.842L215.88 114.502L214.096 116.224" stroke="#272727" style="stroke:#272727;stroke:color(display-p3 0.1529 0.1529 0.1529);stroke-opacity:1;" stroke-width="0.930804" stroke-linecap="round" stroke-linejoin="round"/>
<path d="M219.302 118.931H221.194C222.04 118.931 222.722 118.233 222.722 117.372V111.678C222.722 110.817 222.04 110.119 221.194 110.119H219.395" stroke="#272727" style="stroke:#272727;stroke:color(display-p3 0.1529 0.1529 0.1529);stroke-opacity:1;" stroke-width="0.930804" stroke-linecap="round" stroke-linejoin="round"/>
<path d="M220.953 116.216L219.231 114.556L221.015 112.834" stroke="#272727" style="stroke:#272727;stroke:color(display-p3 0.1529 0.1529 0.1529);stroke-opacity:1;" stroke-width="0.930804" stroke-linecap="round" stroke-linejoin="round"/>
<rect x="142.889" y="103.666" width="24.8889" height="21.7188" rx="10.8594" fill="#EAEAEA" style="fill:#EAEAEA;fill:color(display-p3 0.9188 0.9188 0.9188);fill-opacity:1;"/>
<path d="M150.834 110.027C150.834 110.027 151.144 115.255 153.231 117.35C154.72 118.839 156.124 117.388 156.496 117.761L157.823 119.087L158.854 118.056L159.886 117.024L158.56 115.697C158.187 115.325 159.638 113.921 158.149 112.432C156.062 110.338 150.834 110.027 150.834 110.027Z" stroke="#272727" style="stroke:#272727;stroke:color(display-p3 0.1529 0.1529 0.1529);stroke-opacity:1;" stroke-width="0.930804" stroke-linejoin="round"/>
<path d="M154.519 114.495C154.951 114.495 155.302 114.144 155.302 113.711C155.302 113.278 154.951 112.928 154.519 112.928C154.086 112.928 153.735 113.278 153.735 113.711C153.735 114.144 154.086 114.495 154.519 114.495Z" fill="#272727" style="fill:#272727;fill:color(display-p3 0.1529 0.1529 0.1529);fill-opacity:1;"/>
<path d="M150.834 110.027L154.518 113.712" stroke="#272727" style="stroke:#272727;stroke:color(display-p3 0.1529 0.1529 0.1529);stroke-opacity:1;" stroke-width="0.930804" stroke-linejoin="round"/>
<rect x="174" y="103.666" width="24.8889" height="21.7188" rx="10.8594" fill="#EAEAEA" style="fill:#EAEAEA;fill:color(display-p3 0.9188 0.9188 0.9188);fill-opacity:1;"/>
<path d="M186.444 109.041L180.959 114.525L186.444 120.01L191.929 114.525L186.444 109.041Z" stroke="#272727" style="stroke:#272727;stroke:color(display-p3 0.1529 0.1529 0.1529);stroke-opacity:1;" stroke-width="0.930804" stroke-linejoin="round"/>
<path d="M129.424 102.275C130.65 102.276 131.652 103.308 131.652 104.568V122.91C131.652 124.171 130.66 125.202 129.435 125.202H116.05C114.824 125.202 113.821 124.171 113.82 122.91V110.105C113.82 109.498 114.055 108.913 114.479 108.489L119.85 102.952C120.273 102.517 120.842 102.275 121.433 102.275H129.424ZM124.55 110.161C123.971 110.161 123.423 110.291 122.933 110.524C122.443 110.292 121.895 110.161 121.316 110.161C119.233 110.161 117.544 111.85 117.544 113.934C117.544 116.017 119.233 117.706 121.316 117.706C121.895 117.706 122.443 117.575 122.933 117.342C123.423 117.575 123.971 117.706 124.55 117.706C126.633 117.706 128.322 116.017 128.322 113.934C128.322 111.85 126.633 110.161 124.55 110.161ZM121.316 111.239C121.501 111.239 121.681 111.258 121.855 111.293C121.189 111.973 120.777 112.906 120.777 113.934C120.777 114.961 121.189 115.893 121.856 116.573C121.682 116.609 121.501 116.628 121.316 116.628C119.829 116.628 118.622 115.421 118.622 113.934C118.622 112.446 119.828 111.239 121.316 111.239ZM124.55 111.239C126.038 111.239 127.244 112.446 127.244 113.934C127.244 115.421 126.038 116.628 124.55 116.628C124.365 116.628 124.184 116.609 124.01 116.573C124.677 115.893 125.089 114.962 125.089 113.934C125.089 112.906 124.678 111.973 124.011 111.293C124.185 111.258 124.365 111.239 124.55 111.239ZM122.933 111.781C123.586 112.273 124.011 113.053 124.011 113.934C124.011 114.814 123.586 115.593 122.933 116.085C122.28 115.593 121.856 114.814 121.855 113.934C121.855 113.053 122.279 112.273 122.933 111.781Z" fill="#EAEAEA" style="fill:#EAEAEA;fill:color(display-p3 0.9188 0.9188 0.9188);fill-opacity:1;"/>
<defs>
<filter id="filter0_di_5071_38490" x="12.3929" y="26" width="132.357" height="9.21428" filterUnits="userSpaceOnUse" color-interpolation-filters="sRGB">
<feFlood flood-opacity="0" result="BackgroundImageFix"/>
<feColorMatrix in="SourceAlpha" type="matrix" values="0 0 0 0 0 0 0 0 0 0 0 0 0 0 0 0 0 0 127 0" result="hardAlpha"/>
<feOffset dy="0.607139"/>
<feGaussianBlur stdDeviation="0.30357"/>
<feComposite in2="hardAlpha" operator="out"/>
<feColorMatrix type="matrix" values="0 0 0 0 1 0 0 0 0 1 0 0 0 0 1 0 0 0 0.1 0"/>
<feBlend mode="normal" in2="BackgroundImageFix" result="effect1_dropShadow_5071_38490"/>
<feBlend mode="normal" in="SourceGraphic" in2="effect1_dropShadow_5071_38490" result="shape"/>
<feColorMatrix in="SourceAlpha" type="matrix" values="0 0 0 0 0 0 0 0 0 0 0 0 0 0 0 0 0 0 127 0" result="hardAlpha"/>
<feOffset dy="0.607139"/>
<feGaussianBlur stdDeviation="0.30357"/>
<feComposite in2="hardAlpha" operator="arithmetic" k2="-1" k3="1"/>
<feColorMatrix type="matrix" values="0 0 0 0 0 0 0 0 0 0 0 0 0 0 0 0 0 0 0.1 0"/>
<feBlend mode="normal" in2="shape" result="effect2_innerShadow_5071_38490"/>
</filter>
<filter id="filter1_d_5071_38490" x="13" y="25.3929" width="74.2143" height="9.21428" filterUnits="userSpaceOnUse" color-interpolation-filters="sRGB">
<feFlood flood-opacity="0" result="BackgroundImageFix"/>
<feColorMatrix in="SourceAlpha" type="matrix" values="0 0 0 0 0 0 0 0 0 0 0 0 0 0 0 0 0 0 127 0" result="hardAlpha"/>
<feOffset dx="0.607139"/>
<feGaussianBlur stdDeviation="0.30357"/>
<feComposite in2="hardAlpha" operator="out"/>
<feColorMatrix type="matrix" values="0 0 0 0 0.152941 0 0 0 0 0.152941 0 0 0 0 0.152941 0 0 0 0.1 0"/>
<feBlend mode="normal" in2="BackgroundImageFix" result="effect1_dropShadow_5071_38490"/>
<feBlend mode="normal" in="SourceGraphic" in2="effect1_dropShadow_5071_38490" result="shape"/>
</filter>
<filter id="filter2_di_5071_38490" x="55.4661" y="70.3555" width="132.356" height="8.49943" filterUnits="userSpaceOnUse" color-interpolation-filters="sRGB">
<feFlood flood-opacity="0" result="BackgroundImageFix"/>
<feColorMatrix in="SourceAlpha" type="matrix" values="0 0 0 0 0 0 0 0 0 0 0 0 0 0 0 0 0 0 127 0" result="hardAlpha"/>
<feOffset dy="0.607139"/>
<feGaussianBlur stdDeviation="0.30357"/>
<feComposite in2="hardAlpha" operator="out"/>
<feColorMatrix type="matrix" values="0 0 0 0 0 0 0 0 0 0 0 0 0 0 0 0 0 0 0.1 0"/>
<feBlend mode="normal" in2="BackgroundImageFix" result="effect1_dropShadow_5071_38490"/>
<feBlend mode="normal" in="SourceGraphic" in2="effect1_dropShadow_5071_38490" result="shape"/>
<feColorMatrix in="SourceAlpha" type="matrix" values="0 0 0 0 0 0 0 0 0 0 0 0 0 0 0 0 0 0 127 0" result="hardAlpha"/>
<feOffset dy="0.607139"/>
<feGaussianBlur stdDeviation="0.30357"/>
<feComposite in2="hardAlpha" operator="arithmetic" k2="-1" k3="1"/>
<feColorMatrix type="matrix" values="0 0 0 0 0 0 0 0 0 0 0 0 0 0 0 0 0 0 0.1 0"/>
<feBlend mode="normal" in2="shape" result="effect2_innerShadow_5071_38490"/>
</filter>
<filter id="filter3_d_5071_38490" x="56" y="69.7483" width="46.143" height="8.49943" filterUnits="userSpaceOnUse" color-interpolation-filters="sRGB">
<feFlood flood-opacity="0" result="BackgroundImageFix"/>
<feColorMatrix in="SourceAlpha" type="matrix" values="0 0 0 0 0 0 0 0 0 0 0 0 0 0 0 0 0 0 127 0" result="hardAlpha"/>
<feOffset dx="0.607139"/>
<feGaussianBlur stdDeviation="0.30357"/>
<feComposite in2="hardAlpha" operator="out"/>
<feColorMatrix type="matrix" values="0 0 0 0 0.152941 0 0 0 0 0.152941 0 0 0 0 0.152941 0 0 0 0.1 0"/>
<feBlend mode="normal" in2="BackgroundImageFix" result="effect1_dropShadow_5071_38490"/>
<feBlend mode="normal" in="SourceGraphic" in2="effect1_dropShadow_5071_38490" result="shape"/>
</filter>
</defs>
</svg>
